<svg xmlns="http://www.w3.org/2000/svg" xmlns:xlink="http://www.w3.org/1999/xlink" width="576" height="384" version="1.1" viewBox="0 0 432 288"><defs><style type="text/css">*{stroke-linecap:butt;stroke-linejoin:round}</style></defs><g id="figure_1"><g id="patch_1"><path d="M 0 288 L 432 288 L 432 0 L 0 0 z" style="fill:#fff"/></g><g id="axes_1"><g id="patch_2"><path d="M 54 252 L 388.8 252 L 388.8 34.56 L 54 34.56 z" style="fill:#fff"/></g><g id="PolyCollection_1"><path d="M 87.790545 186.768 L 84.464 186.768 L 84.45357 186.129058 L 84.448346 185.490116 L 84.447684 184.851174 L 84.450766 184.212231 L 84.456607 183.573289 L 84.464062 182.934347 L 84.471836 182.295405 L 84.478501 181.656463 L 84.482505 181.017521 L 84.482199 180.378579 L 84.475851 179.739636 L 84.461669 179.100694 L 84.437824 178.461752 L 84.402477 177.82281 L 84.353796 177.183868 L 84.289986 176.544926 L 84.209315 175.905983 L 84.110132 175.267041 L 83.9909 174.628099 L 83.850212 173.989157 L 83.686823 173.350215 L 83.499663 172.711273 L 83.287868 172.072331 L 83.050796 171.433388 L 82.788046 170.794446 L 82.499474 170.155504 L 82.18521 169.516562 L 81.845668 168.87762 L 81.48155 168.238678 L 81.093855 167.599736 L 80.683878 166.960793 L 80.253197 166.321851 L 79.80367 165.682909 L 79.337413 165.043967 L 78.856781 164.405025 L 78.364335 163.766083 L 77.862814 163.12714 L 77.355094 162.488198 L 76.844147 161.849256 L 76.332994 161.210314 L 75.824662 160.571372 L 75.322131 159.93243 L 74.828291 159.293488 L 74.345895 158.654545 L 73.877519 158.015603 L 73.425522 157.376661 L 72.99202 156.737719 L 72.578857 156.098777 L 72.187592 155.459835 L 71.819493 154.820893 L 71.475531 154.18195 L 71.156395 153.543008 L 70.862506 152.904066 L 70.594036 152.265124 L 70.350944 151.626182 L 70.132999 150.98724 L 69.939824 150.348298 L 69.770926 149.709355 L 69.625735 149.070413 L 69.503635 148.431471 L 69.403996 147.792529 L 69.326198 147.153587 L 69.269652 146.514645 L 69.233811 145.875702 L 69.218182 145.23676 L 69.222323 144.597818 L 69.245842 143.958876 L 69.288387 143.319934 L 69.34963 142.680992 L 69.429256 142.04205 L 69.526947 141.403107 L 69.642359 140.764165 L 69.775113 140.125223 L 69.92478 139.486281 L 70.090871 138.847339 L 70.272834 138.208397 L 70.470053 137.569455 L 70.681848 136.930512 L 70.90749 136.29157 L 71.14621 135.652628 L 71.397212 135.013686 L 71.659695 134.374744 L 71.93287 133.735802 L 72.215974 133.09686 L 72.508292 132.457917 L 72.809167 131.818975 L 73.118011 131.180033 L 73.434313 130.541091 L 73.757637 129.902149 L 74.087617 129.263207 L 74.423951 128.624264 L 74.766387 127.985322 L 75.114701 127.34638 L 75.468682 126.707438 L 75.828105 126.068496 L 76.192709 125.429554 L 76.562175 124.790612 L 76.936104 124.151669 L 77.313997 123.512727 L 94.940548 123.512727 L 94.940548 123.512727 L 95.318442 124.151669 L 95.692371 124.790612 L 96.061837 125.429554 L 96.426441 126.068496 L 96.785864 126.707438 L 97.139844 127.34638 L 97.488159 127.985322 L 97.830594 128.624264 L 98.166929 129.263207 L 98.496909 129.902149 L 98.820232 130.541091 L 99.136534 131.180033 L 99.445379 131.818975 L 99.746254 132.457917 L 100.038572 133.09686 L 100.321676 133.735802 L 100.59485 134.374744 L 100.857334 135.013686 L 101.108336 135.652628 L 101.347055 136.29157 L 101.572698 136.930512 L 101.784493 137.569455 L 101.981711 138.208397 L 102.163675 138.847339 L 102.329766 139.486281 L 102.479433 140.125223 L 102.612187 140.764165 L 102.727599 141.403107 L 102.825289 142.04205 L 102.904916 142.680992 L 102.966159 143.319934 L 103.008703 143.958876 L 103.032222 144.597818 L 103.036364 145.23676 L 103.020734 145.875702 L 102.984894 146.514645 L 102.928347 147.153587 L 102.850549 147.792529 L 102.75091 148.431471 L 102.62881 149.070413 L 102.483619 149.709355 L 102.314721 150.348298 L 102.121546 150.98724 L 101.903602 151.626182 L 101.660509 152.265124 L 101.39204 152.904066 L 101.09815 153.543008 L 100.779014 154.18195 L 100.435053 154.820893 L 100.066953 155.459835 L 99.675689 156.098777 L 99.262525 156.737719 L 98.829023 157.376661 L 98.377026 158.015603 L 97.90865 158.654545 L 97.426255 159.293488 L 96.932415 159.93243 L 96.429884 160.571372 L 95.921551 161.210314 L 95.410399 161.849256 L 94.899451 162.488198 L 94.391732 163.12714 L 93.890211 163.766083 L 93.397765 164.405025 L 92.917132 165.043967 L 92.450876 165.682909 L 92.001349 166.321851 L 91.570668 166.960793 L 91.16069 167.599736 L 90.772996 168.238678 L 90.408878 168.87762 L 90.069335 169.516562 L 89.755071 170.155504 L 89.466499 170.794446 L 89.203749 171.433388 L 88.966677 172.072331 L 88.754883 172.711273 L 88.567723 173.350215 L 88.404333 173.989157 L 88.263646 174.628099 L 88.144413 175.267041 L 88.045231 175.905983 L 87.964559 176.544926 L 87.90075 177.183868 L 87.852069 177.82281 L 87.816721 178.461752 L 87.792877 179.100694 L 87.778695 179.739636 L 87.772346 180.378579 L 87.77204 181.017521 L 87.776045 181.656463 L 87.782709 182.295405 L 87.790484 182.934347 L 87.797939 183.573289 L 87.80378 184.212231 L 87.806862 184.851174 L 87.806199 185.490116 L 87.800975 186.129058 L 87.790545 186.768 z" clip-path="url(#pab5cb86e17)" style="fill:#1f77b4;fill-opacity:.3"/></g><g id="PolyCollection_2"><path d="M 156.153325 210.488727 L 151.373948 210.488727 L 151.324829 209.69005 L 151.282881 208.891372 L 151.248288 208.092694 L 151.221123 207.294017 L 151.201345 206.495339 L 151.188797 205.696661 L 151.183203 204.897983 L 151.184172 204.099306 L 151.191203 203.300628 L 151.203688 202.50195 L 151.220921 201.703273 L 151.242112 200.904595 L 151.266388 200.105917 L 151.292815 199.30724 L 151.320403 198.508562 L 151.348125 197.709884 L 151.374924 196.911207 L 151.399731 196.112529 L 151.421474 195.313851 L 151.439091 194.515174 L 151.45154 193.716496 L 151.457809 192.917818 L 151.45692 192.11914 L 151.447943 191.320463 L 151.429992 190.521785 L 151.402234 189.723107 L 151.363892 188.92443 L 151.314243 188.125752 L 151.252617 187.327074 L 151.178404 186.528397 L 151.091045 185.729719 L 150.990034 184.931041 L 150.874916 184.132364 L 150.745291 183.333686 L 150.600804 182.535008 L 150.441156 181.736331 L 150.266096 180.937653 L 150.075427 180.138975 L 149.869011 179.340298 L 149.646765 178.54162 L 149.408671 177.742942 L 149.154779 176.944264 L 148.885212 176.145587 L 148.600167 175.346909 L 148.299927 174.548231 L 147.984859 173.749554 L 147.655422 172.950876 L 147.312169 172.152198 L 146.95575 171.353521 L 146.586914 170.554843 L 146.206508 169.756165 L 145.815481 168.957488 L 145.414879 168.15881 L 145.005845 167.360132 L 144.589616 166.561455 L 144.167519 165.762777 L 143.74097 164.964099 L 143.311465 164.165421 L 142.880582 163.366744 L 142.449972 162.568066 L 142.021355 161.769388 L 141.596519 160.970711 L 141.17731 160.172033 L 140.765634 159.373355 L 140.363445 158.574678 L 139.972744 157.776 L 139.595571 156.977322 L 139.233995 156.178645 L 138.890112 155.379967 L 138.566025 154.581289 L 138.263841 153.782612 L 137.985648 152.983934 L 137.733506 152.185256 L 137.509422 151.386579 L 137.315332 150.587901 L 137.153079 149.789223 L 137.024385 148.990545 L 136.930827 148.191868 L 136.873812 147.39319 L 136.854545 146.594512 L 136.87401 145.795835 L 136.932936 144.997157 L 137.031781 144.198479 L 137.170707 143.399802 L 137.349568 142.601124 L 137.56789 141.802446 L 137.82487 141.003769 L 138.119371 140.205091 L 138.449923 139.406413 L 138.814735 138.607736 L 139.211709 137.809058 L 139.638458 137.01038 L 140.092337 136.211702 L 140.57047 135.413025 L 141.069787 134.614347 L 141.587063 133.815669 L 142.118962 133.016992 L 142.662075 132.218314 L 143.212972 131.419636 L 164.314301 131.419636 L 164.314301 131.419636 L 164.865198 132.218314 L 165.408311 133.016992 L 165.940209 133.815669 L 166.457486 134.614347 L 166.956803 135.413025 L 167.434936 136.211702 L 167.888815 137.01038 L 168.315564 137.809058 L 168.712537 138.607736 L 169.077349 139.406413 L 169.407902 140.205091 L 169.702402 141.003769 L 169.959383 141.802446 L 170.177705 142.601124 L 170.356565 143.399802 L 170.495492 144.198479 L 170.594337 144.997157 L 170.653263 145.795835 L 170.672727 146.594512 L 170.653461 147.39319 L 170.596446 148.191868 L 170.502888 148.990545 L 170.374194 149.789223 L 170.211941 150.587901 L 170.017851 151.386579 L 169.793767 152.185256 L 169.541624 152.983934 L 169.263432 153.782612 L 168.961248 154.581289 L 168.637161 155.379967 L 168.293278 156.178645 L 167.931702 156.977322 L 167.554528 157.776 L 167.163827 158.574678 L 166.761638 159.373355 L 166.349962 160.172033 L 165.930754 160.970711 L 165.505918 161.769388 L 165.077301 162.568066 L 164.646691 163.366744 L 164.215807 164.165421 L 163.786303 164.964099 L 163.359753 165.762777 L 162.937657 166.561455 L 162.521427 167.360132 L 162.112393 168.15881 L 161.711791 168.957488 L 161.320765 169.756165 L 160.940359 170.554843 L 160.571522 171.353521 L 160.215103 172.152198 L 159.87185 172.950876 L 159.542413 173.749554 L 159.227346 174.548231 L 158.927105 175.346909 L 158.642061 176.145587 L 158.372493 176.944264 L 158.118602 177.742942 L 157.880508 178.54162 L 157.658262 179.340298 L 157.451845 180.138975 L 157.261177 180.937653 L 157.086117 181.736331 L 156.926468 182.535008 L 156.781982 183.333686 L 156.652356 184.132364 L 156.537239 184.931041 L 156.436228 185.729719 L 156.348868 186.528397 L 156.274655 187.327074 L 156.21303 188.125752 L 156.16338 188.92443 L 156.125038 189.723107 L 156.097281 190.521785 L 156.07933 191.320463 L 156.070352 192.11914 L 156.069464 192.917818 L 156.075732 193.716496 L 156.088182 194.515174 L 156.105799 195.313851 L 156.127542 196.112529 L 156.152349 196.911207 L 156.179148 197.709884 L 156.206869 198.508562 L 156.234458 199.30724 L 156.260885 200.105917 L 156.285161 200.904595 L 156.306351 201.703273 L 156.323585 202.50195 L 156.33607 203.300628 L 156.3431 204.099306 L 156.34407 204.897983 L 156.338475 205.696661 L 156.325927 206.495339 L 156.30615 207.294017 L 156.278985 208.092694 L 156.244392 208.891372 L 156.202444 209.69005 L 156.153325 210.488727 z" clip-path="url(#pab5cb86e17)" style="fill:#1f77b4;fill-opacity:.3"/></g><g id="PolyCollection_3"><path d="M 223.339046 178.861091 L 219.460954 178.861091 L 219.404994 177.503339 L 219.353379 176.145587 L 219.306274 174.787835 L 219.263783 173.430083 L 219.22594 172.072331 L 219.192715 170.714579 L 219.164007 169.356826 L 219.139651 167.999074 L 219.119411 166.641322 L 219.102984 165.28357 L 219.090003 163.925818 L 219.080035 162.568066 L 219.072583 161.210314 L 219.06709 159.852562 L 219.062939 158.49481 L 219.059458 157.137058 L 219.05592 155.779306 L 219.051552 154.421554 L 219.045533 153.063802 L 219.037003 151.70605 L 219.025069 150.348298 L 219.008806 148.990545 L 218.987268 147.632793 L 218.959491 146.275041 L 218.9245 144.917289 L 218.881317 143.559537 L 218.828963 142.201785 L 218.766469 140.844033 L 218.692879 139.486281 L 218.607253 138.128529 L 218.508676 136.770777 L 218.396259 135.413025 L 218.269148 134.055273 L 218.126525 132.697521 L 217.967613 131.339769 L 217.791685 129.982017 L 217.598069 128.624264 L 217.386155 127.266512 L 217.155403 125.90876 L 216.905357 124.551008 L 216.635655 123.193256 L 216.346043 121.835504 L 216.03639 120.477752 L 215.706705 119.12 L 215.357151 117.762248 L 214.98807 116.404496 L 214.599992 115.046744 L 214.193659 113.688992 L 213.770036 112.33124 L 213.330323 110.973488 L 212.875969 109.615736 L 212.408678 108.257983 L 211.930407 106.900231 L 211.443366 105.542479 L 210.95001 104.184727 L 210.453022 102.826975 L 209.955299 101.469223 L 209.459921 100.111471 L 208.970122 98.753719 L 208.489258 97.395967 L 208.020763 96.038215 L 207.56811 94.680463 L 207.134762 93.322711 L 206.72413 91.964959 L 206.339521 90.607207 L 205.984098 89.249455 L 205.660832 87.891702 L 205.372461 86.53395 L 205.121457 85.176198 L 204.909986 83.818446 L 204.739891 82.460694 L 204.61266 81.102942 L 204.529417 79.74519 L 204.490909 78.387438 L 204.497505 77.029686 L 204.549192 75.671934 L 204.645591 74.314182 L 204.785957 72.95643 L 204.969206 71.598678 L 205.193927 70.240926 L 205.458411 68.883174 L 205.760667 67.525421 L 206.098461 66.167669 L 206.469333 64.809917 L 206.870637 63.452165 L 207.299563 62.094413 L 207.753172 60.736661 L 208.228426 59.378909 L 208.722218 58.021157 L 209.2314 56.663405 L 209.752818 55.305653 L 210.283332 53.947901 L 210.819854 52.590149 L 211.359364 51.232397 L 211.898943 49.874645 L 212.435793 48.516893 L 212.967257 47.15914 L 213.490844 45.801388 L 214.004241 44.443636 L 228.795759 44.443636 L 228.795759 44.443636 L 229.309156 45.801388 L 229.832743 47.15914 L 230.364207 48.516893 L 230.901057 49.874645 L 231.440636 51.232397 L 231.980146 52.590149 L 232.516668 53.947901 L 233.047182 55.305653 L 233.5686 56.663405 L 234.077782 58.021157 L 234.571574 59.378909 L 235.046828 60.736661 L 235.500437 62.094413 L 235.929363 63.452165 L 236.330667 64.809917 L 236.701539 66.167669 L 237.039333 67.525421 L 237.341589 68.883174 L 237.606073 70.240926 L 237.830794 71.598678 L 238.014043 72.95643 L 238.154409 74.314182 L 238.250808 75.671934 L 238.302495 77.029686 L 238.309091 78.387438 L 238.270583 79.74519 L 238.18734 81.102942 L 238.060109 82.460694 L 237.890014 83.818446 L 237.678543 85.176198 L 237.427539 86.53395 L 237.139168 87.891702 L 236.815902 89.249455 L 236.460479 90.607207 L 236.07587 91.964959 L 235.665238 93.322711 L 235.23189 94.680463 L 234.779237 96.038215 L 234.310742 97.395967 L 233.829878 98.753719 L 233.340079 100.111471 L 232.844701 101.469223 L 232.346978 102.826975 L 231.84999 104.184727 L 231.356634 105.542479 L 230.869593 106.900231 L 230.391322 108.257983 L 229.924031 109.615736 L 229.469677 110.973488 L 229.029964 112.33124 L 228.606341 113.688992 L 228.200008 115.046744 L 227.81193 116.404496 L 227.442849 117.762248 L 227.093295 119.12 L 226.76361 120.477752 L 226.453957 121.835504 L 226.164345 123.193256 L 225.894643 124.551008 L 225.644597 125.90876 L 225.413845 127.266512 L 225.201931 128.624264 L 225.008315 129.982017 L 224.832387 131.339769 L 224.673475 132.697521 L 224.530852 134.055273 L 224.403741 135.413025 L 224.291324 136.770777 L 224.192747 138.128529 L 224.107121 139.486281 L 224.033531 140.844033 L 223.971037 142.201785 L 223.918683 143.559537 L 223.8755 144.917289 L 223.840509 146.275041 L 223.812732 147.632793 L 223.791194 148.990545 L 223.774931 150.348298 L 223.762997 151.70605 L 223.754467 153.063802 L 223.748448 154.421554 L 223.74408 155.779306 L 223.740542 157.137058 L 223.737061 158.49481 L 223.73291 159.852562 L 223.727417 161.210314 L 223.719965 162.568066 L 223.709997 163.925818 L 223.697016 165.28357 L 223.680589 166.641322 L 223.660349 167.999074 L 223.635993 169.356826 L 223.607285 170.714579 L 223.57406 172.072331 L 223.536217 173.430083 L 223.493726 174.787835 L 223.446621 176.145587 L 223.395006 177.503339 L 223.339046 178.861091 z" clip-path="url(#pab5cb86e17)" style="fill:#1f77b4;fill-opacity:.3"/></g><g id="PolyCollection_4"><path d="M 290.770007 178.861091 L 287.30272 178.861091 L 287.26588 178.381884 L 287.230727 177.902678 L 287.196096 177.423471 L 287.160627 176.944264 L 287.122786 176.465058 L 287.080896 175.985851 L 287.033173 175.506645 L 286.977763 175.027438 L 286.912791 174.548231 L 286.836399 174.069025 L 286.746802 173.589818 L 286.642323 173.110612 L 286.521446 172.631405 L 286.382849 172.152198 L 286.225438 171.672992 L 286.04838 171.193785 L 285.851115 170.714579 L 285.633374 170.235372 L 285.395179 169.756165 L 285.136838 169.276959 L 284.858935 168.797752 L 284.562303 168.318545 L 284.248002 167.839339 L 283.917285 167.360132 L 283.57156 166.880926 L 283.212353 166.401719 L 282.841269 165.922512 L 282.459949 165.443306 L 282.070043 164.964099 L 281.673168 164.484893 L 281.270888 164.005686 L 280.864686 163.526479 L 280.455952 163.047273 L 280.045973 162.568066 L 279.635928 162.08886 L 279.226891 161.609653 L 278.819839 161.130446 L 278.415662 160.65124 L 278.015182 160.172033 L 277.619172 159.692826 L 277.228373 159.21362 L 276.843518 158.734413 L 276.465356 158.255207 L 276.094672 157.776 L 275.732305 157.296793 L 275.379174 156.817587 L 275.036289 156.33838 L 274.704766 155.859174 L 274.385838 155.379967 L 274.080859 154.90076 L 273.791307 154.421554 L 273.51878 153.942347 L 273.264982 153.46314 L 273.031712 152.983934 L 272.820838 152.504727 L 272.634266 152.025521 L 272.473911 151.546314 L 272.341649 151.067107 L 272.239278 150.587901 L 272.168467 150.108694 L 272.130709 149.629488 L 272.127273 149.150281 L 272.159154 148.671074 L 272.227037 148.191868 L 272.331263 147.712661 L 272.471798 147.233455 L 272.648221 146.754248 L 272.859719 146.275041 L 273.105092 145.795835 L 273.38277 145.316628 L 273.690843 144.837421 L 274.027095 144.358215 L 274.389054 143.879008 L 274.77404 143.399802 L 275.179224 142.920595 L 275.601681 142.441388 L 276.03845 141.962182 L 276.486586 141.482975 L 276.94321 141.003769 L 277.405557 140.524562 L 277.871006 140.045355 L 278.337114 139.566149 L 278.80164 139.086942 L 279.262556 138.607736 L 279.718054 138.128529 L 280.16655 137.649322 L 280.60668 137.170116 L 281.037288 136.690909 L 281.457415 136.211702 L 281.866286 135.732496 L 282.263291 135.253289 L 282.64797 134.774083 L 283.019991 134.294876 L 283.379137 133.815669 L 283.725289 133.336463 L 284.058405 132.857256 L 284.378511 132.37805 L 284.685687 131.898843 L 284.980049 131.419636 L 293.092678 131.419636 L 293.092678 131.419636 L 293.387041 131.898843 L 293.694216 132.37805 L 294.014323 132.857256 L 294.347439 133.336463 L 294.69359 133.815669 L 295.052736 134.294876 L 295.424757 134.774083 L 295.809436 135.253289 L 296.206441 135.732496 L 296.615312 136.211702 L 297.03544 136.690909 L 297.466047 137.170116 L 297.906177 137.649322 L 298.354674 138.128529 L 298.810172 138.607736 L 299.271087 139.086942 L 299.735613 139.566149 L 300.201722 140.045355 L 300.66717 140.524562 L 301.129517 141.003769 L 301.586142 141.482975 L 302.034278 141.962182 L 302.471046 142.441388 L 302.893503 142.920595 L 303.298687 143.399802 L 303.683674 143.879008 L 304.045633 144.358215 L 304.381885 144.837421 L 304.689957 145.316628 L 304.967635 145.795835 L 305.213008 146.275041 L 305.424506 146.754248 L 305.600929 147.233455 L 305.741464 147.712661 L 305.84569 148.191868 L 305.913574 148.671074 L 305.945455 149.150281 L 305.942018 149.629488 L 305.90426 150.108694 L 305.83345 150.587901 L 305.731079 151.067107 L 305.598817 151.546314 L 305.438461 152.025521 L 305.25189 152.504727 L 305.041015 152.983934 L 304.807745 153.46314 L 304.553948 153.942347 L 304.28142 154.421554 L 303.991868 154.90076 L 303.686889 155.379967 L 303.367961 155.859174 L 303.036438 156.33838 L 302.693553 156.817587 L 302.340422 157.296793 L 301.978056 157.776 L 301.607371 158.255207 L 301.229209 158.734413 L 300.844354 159.21362 L 300.453555 159.692826 L 300.057545 160.172033 L 299.657066 160.65124 L 299.252889 161.130446 L 298.845836 161.609653 L 298.436799 162.08886 L 298.026754 162.568066 L 297.616775 163.047273 L 297.208042 163.526479 L 296.80184 164.005686 L 296.399559 164.484893 L 296.002684 164.964099 L 295.612778 165.443306 L 295.231459 165.922512 L 294.860374 166.401719 L 294.501167 166.880926 L 294.155442 167.360132 L 293.824725 167.839339 L 293.510424 168.318545 L 293.213792 168.797752 L 292.935889 169.276959 L 292.677548 169.756165 L 292.439353 170.235372 L 292.221612 170.714579 L 292.024347 171.193785 L 291.847289 171.672992 L 291.689879 172.152198 L 291.551281 172.631405 L 291.430404 173.110612 L 291.325926 173.589818 L 291.236328 174.069025 L 291.159936 174.548231 L 291.094964 175.027438 L 291.039554 175.506645 L 290.991831 175.985851 L 290.949941 176.465058 L 290.9121 176.944264 L 290.876631 177.423471 L 290.842 177.902678 L 290.806847 178.381884 L 290.770007 178.861091 z" clip-path="url(#pab5cb86e17)" style="fill:#1f77b4;fill-opacity:.3"/></g><g id="PolyCollection_5"><path d="M 358.40712 242.116364 L 354.938335 242.116364 L 354.891336 241.717025 L 354.842605 241.317686 L 354.790815 240.918347 L 354.734462 240.519008 L 354.671874 240.119669 L 354.601239 239.720331 L 354.520625 239.320992 L 354.428011 238.921653 L 354.321325 238.522314 L 354.198481 238.122975 L 354.057424 237.723636 L 353.896173 237.324298 L 353.712873 236.924959 L 353.505837 236.52562 L 353.273599 236.126281 L 353.014956 235.726942 L 352.72901 235.327603 L 352.415209 234.928264 L 352.073375 234.528926 L 351.703732 234.129587 L 351.306922 233.730248 L 350.884011 233.330909 L 350.436491 232.93157 L 349.966267 232.532231 L 349.475637 232.132893 L 348.967261 231.733554 L 348.444121 231.334215 L 347.909478 230.934876 L 347.366813 230.535537 L 346.819773 230.136198 L 346.272107 229.73686 L 345.727602 229.337521 L 345.190025 228.938182 L 344.663057 228.538843 L 344.150241 228.139504 L 343.654932 227.740165 L 343.180253 227.340826 L 342.729061 226.941488 L 342.303925 226.542149 L 341.907105 226.14281 L 341.540549 225.743471 L 341.205892 225.344132 L 340.904466 224.944793 L 340.637314 224.545455 L 340.40521 224.146116 L 340.208681 223.746777 L 340.048027 223.347438 L 339.923353 222.948099 L 339.83458 222.54876 L 339.78147 222.149421 L 339.763636 221.750083 L 339.780556 221.350744 L 339.831572 220.951405 L 339.915894 220.552066 L 340.032595 220.152727 L 340.180605 219.753388 L 340.358697 219.35405 L 340.565483 218.954711 L 340.799404 218.555372 L 341.058717 218.156033 L 341.3415 217.756694 L 341.645643 217.357355 L 341.968865 216.958017 L 342.308716 216.558678 L 342.662603 216.159339 L 343.02781 215.76 L 343.401531 215.360661 L 343.780907 214.961322 L 344.163063 214.561983 L 344.545153 214.162645 L 344.924405 213.763306 L 345.298167 213.363967 L 345.663949 212.964628 L 346.019471 212.565289 L 346.362692 212.16595 L 346.691854 211.766612 L 347.005504 211.367273 L 347.302515 210.967934 L 347.582105 210.568595 L 347.843842 210.169256 L 348.087642 209.769917 L 348.313766 209.370579 L 348.522801 208.97124 L 348.715644 208.571901 L 348.893468 208.172562 L 349.057695 207.773223 L 349.209958 207.373884 L 349.352057 206.974545 L 349.485917 206.575207 L 349.613543 206.175868 L 349.736973 205.776529 L 349.85823 205.37719 L 349.979278 204.977851 L 350.101982 204.578512 L 350.228061 204.179174 L 350.35906 203.779835 L 350.496313 203.380496 L 350.640924 202.981157 L 350.79374 202.581818 L 362.551714 202.581818 L 362.551714 202.581818 L 362.704531 202.981157 L 362.849141 203.380496 L 362.986395 203.779835 L 363.117394 204.179174 L 363.243473 204.578512 L 363.366176 204.977851 L 363.487225 205.37719 L 363.608482 205.776529 L 363.731911 206.175868 L 363.859538 206.575207 L 363.993398 206.974545 L 364.135496 207.373884 L 364.287759 207.773223 L 364.451987 208.172562 L 364.629811 208.571901 L 364.822653 208.97124 L 365.031689 209.370579 L 365.257813 209.769917 L 365.501613 210.169256 L 365.763349 210.568595 L 366.04294 210.967934 L 366.339951 211.367273 L 366.6536 211.766612 L 366.982762 212.16595 L 367.325984 212.565289 L 367.681505 212.964628 L 368.047288 213.363967 L 368.42105 213.763306 L 368.800302 214.162645 L 369.182391 214.561983 L 369.564547 214.961322 L 369.943923 215.360661 L 370.317645 215.76 L 370.682852 216.159339 L 371.036738 216.558678 L 371.37659 216.958017 L 371.699811 217.357355 L 372.003955 217.756694 L 372.286737 218.156033 L 372.546051 218.555372 L 372.779971 218.954711 L 372.986758 219.35405 L 373.16485 219.753388 L 373.312859 220.152727 L 373.42956 220.552066 L 373.513883 220.951405 L 373.564899 221.350744 L 373.581818 221.750083 L 373.563985 222.149421 L 373.510874 222.54876 L 373.422101 222.948099 L 373.297427 223.347438 L 373.136774 223.746777 L 372.940244 224.146116 L 372.70814 224.545455 L 372.440989 224.944793 L 372.139563 225.344132 L 371.804906 225.743471 L 371.43835 226.14281 L 371.04153 226.542149 L 370.616393 226.941488 L 370.165202 227.340826 L 369.690522 227.740165 L 369.195213 228.139504 L 368.682397 228.538843 L 368.155429 228.938182 L 367.617852 229.337521 L 367.073348 229.73686 L 366.525682 230.136198 L 365.978641 230.535537 L 365.435977 230.934876 L 364.901333 231.334215 L 364.378194 231.733554 L 363.869817 232.132893 L 363.379187 232.532231 L 362.908964 232.93157 L 362.461444 233.330909 L 362.038533 233.730248 L 361.641722 234.129587 L 361.272079 234.528926 L 360.930246 234.928264 L 360.616444 235.327603 L 360.330499 235.726942 L 360.071855 236.126281 L 359.839617 236.52562 L 359.632582 236.924959 L 359.449281 237.324298 L 359.288031 237.723636 L 359.146974 238.122975 L 359.02413 238.522314 L 358.917443 238.921653 L 358.824829 239.320992 L 358.744215 239.720331 L 358.67358 240.119669 L 358.610993 240.519008 L 358.554639 240.918347 L 358.50285 241.317686 L 358.454119 241.717025 L 358.40712 242.116364 z" clip-path="url(#pab5cb86e17)" style="fill:#1f77b4;fill-opacity:.3"/></g><g id="matplotlib.axis_1"><g id="xtick_1"><g id="line2d_1"><defs><path id="m1d9005f43a" d="M 0 0 L 0 3.5" style="stroke:#000;stroke-width:.8"/></defs><g><use style="stroke:#000;stroke-width:.8" x="86.127" y="252" xlink:href="#m1d9005f43a"/></g></g><g id="text_1"><defs><path id="DejaVuSans-49" d="M 12.40625 8.296875 L 28.515625 8.296875 L 28.515625 63.921875 L 10.984375 60.40625 L 10.984375 69.390625 L 28.421875 72.90625 L 38.28125 72.90625 L 38.28125 8.296875 L 54.390625 8.296875 L 54.390625 0 L 12.40625 0 z"/></defs><g transform="translate(82.946023 266.598437)scale(0.1 -0.1)"><use xlink:href="#DejaVuSans-49"/></g></g></g><g id="xtick_2"><g id="line2d_2"><g><use style="stroke:#000;stroke-width:.8" x="153.764" y="252" xlink:href="#m1d9005f43a"/></g></g><g id="text_2"><defs><path id="DejaVuSans-50" d="M 19.1875 8.296875 L 53.609375 8.296875 L 53.609375 0 L 7.328125 0 L 7.328125 8.296875 Q 12.9375 14.109375 22.625 23.890625 Q 32.328125 33.6875 34.8125 36.53125 Q 39.546875 41.84375 41.421875 45.53125 Q 43.3125 49.21875 43.3125 52.78125 Q 43.3125 58.59375 39.234375 62.25 Q 35.15625 65.921875 28.609375 65.921875 Q 23.96875 65.921875 18.8125 64.3125 Q 13.671875 62.703125 7.8125 59.421875 L 7.8125 69.390625 Q 13.765625 71.78125 18.9375 73 Q 24.125 74.21875 28.421875 74.21875 Q 39.75 74.21875 46.484375 68.546875 Q 53.21875 62.890625 53.21875 53.421875 Q 53.21875 48.921875 51.53125 44.890625 Q 49.859375 40.875 45.40625 35.40625 Q 44.1875 33.984375 37.640625 27.21875 Q 31.109375 20.453125 19.1875 8.296875 z"/></defs><g transform="translate(150.582386 266.598437)scale(0.1 -0.1)"><use xlink:href="#DejaVuSans-50"/></g></g></g><g id="xtick_3"><g id="line2d_3"><g><use style="stroke:#000;stroke-width:.8" x="221.4" y="252" xlink:href="#m1d9005f43a"/></g></g><g id="text_3"><defs><path id="DejaVuSans-51" d="M 40.578125 39.3125 Q 47.65625 37.796875 51.625 33 Q 55.609375 28.21875 55.609375 21.1875 Q 55.609375 10.40625 48.1875 4.484375 Q 40.765625 -1.421875 27.09375 -1.421875 Q 22.515625 -1.421875 17.65625 -0.515625 Q 12.796875 0.390625 7.625 2.203125 L 7.625 11.71875 Q 11.71875 9.328125 16.59375 8.109375 Q 21.484375 6.890625 26.8125 6.890625 Q 36.078125 6.890625 40.9375 10.546875 Q 45.796875 14.203125 45.796875 21.1875 Q 45.796875 27.640625 41.28125 31.265625 Q 36.765625 34.90625 28.71875 34.90625 L 20.21875 34.90625 L 20.21875 43.015625 L 29.109375 43.015625 Q 36.375 43.015625 40.234375 45.921875 Q 44.09375 48.828125 44.09375 54.296875 Q 44.09375 59.90625 40.109375 62.90625 Q 36.140625 65.921875 28.71875 65.921875 Q 24.65625 65.921875 20.015625 65.03125 Q 15.375 64.15625 9.8125 62.3125 L 9.8125 71.09375 Q 15.4375 72.65625 20.34375 73.4375 Q 25.25 74.21875 29.59375 74.21875 Q 40.828125 74.21875 47.359375 69.109375 Q 53.90625 64.015625 53.90625 55.328125 Q 53.90625 49.265625 50.4375 45.09375 Q 46.96875 40.921875 40.578125 39.3125 z"/></defs><g transform="translate(218.21875 266.598437)scale(0.1 -0.1)"><use xlink:href="#DejaVuSans-51"/></g></g></g><g id="xtick_4"><g id="line2d_4"><g><use style="stroke:#000;stroke-width:.8" x="289.036" y="252" xlink:href="#m1d9005f43a"/></g></g><g id="text_4"><defs><path id="DejaVuSans-52" d="M 37.796875 64.3125 L 12.890625 25.390625 L 37.796875 25.390625 z M 35.203125 72.90625 L 47.609375 72.90625 L 47.609375 25.390625 L 58.015625 25.390625 L 58.015625 17.1875 L 47.609375 17.1875 L 47.609375 0 L 37.796875 0 L 37.796875 17.1875 L 4.890625 17.1875 L 4.890625 26.703125 z"/></defs><g transform="translate(285.855114 266.598437)scale(0.1 -0.1)"><use xlink:href="#DejaVuSans-52"/></g></g></g><g id="xtick_5"><g id="line2d_5"><g><use style="stroke:#000;stroke-width:.8" x="356.673" y="252" xlink:href="#m1d9005f43a"/></g></g><g id="text_5"><defs><path id="DejaVuSans-53" d="M 10.796875 72.90625 L 49.515625 72.90625 L 49.515625 64.59375 L 19.828125 64.59375 L 19.828125 46.734375 Q 21.96875 47.46875 24.109375 47.828125 Q 26.265625 48.1875 28.421875 48.1875 Q 40.625 48.1875 47.75 41.5 Q 54.890625 34.8125 54.890625 23.390625 Q 54.890625 11.625 47.5625 5.09375 Q 40.234375 -1.421875 26.90625 -1.421875 Q 22.3125 -1.421875 17.546875 -0.640625 Q 12.796875 0.140625 7.71875 1.703125 L 7.71875 11.625 Q 12.109375 9.234375 16.796875 8.0625 Q 21.484375 6.890625 26.703125 6.890625 Q 35.15625 6.890625 40.078125 11.328125 Q 45.015625 15.765625 45.015625 23.390625 Q 45.015625 31 40.078125 35.4375 Q 35.15625 39.890625 26.703125 39.890625 Q 22.75 39.890625 18.8125 39.015625 Q 14.890625 38.140625 10.796875 36.28125 z"/></defs><g transform="translate(353.491477 266.598437)scale(0.1 -0.1)"><use xlink:href="#DejaVuSans-53"/></g></g></g></g><g id="matplotlib.axis_2"><g id="ytick_1"><g id="line2d_6"><defs><path id="mf32824b63b" d="M 0 0 L -3.5 0" style="stroke:#000;stroke-width:.8"/></defs><g><use style="stroke:#000;stroke-width:.8" x="54" y="242.116" xlink:href="#mf32824b63b"/></g></g><g id="text_6"><g transform="translate(40.6375 245.915582)scale(0.1 -0.1)"><use xlink:href="#DejaVuSans-53"/></g></g></g><g id="ytick_2"><g id="line2d_7"><g><use style="stroke:#000;stroke-width:.8" x="54" y="202.582" xlink:href="#mf32824b63b"/></g></g><g id="text_7"><defs><path id="DejaVuSans-48" d="M 31.78125 66.40625 Q 24.171875 66.40625 20.328125 58.90625 Q 16.5 51.421875 16.5 36.375 Q 16.5 21.390625 20.328125 13.890625 Q 24.171875 6.390625 31.78125 6.390625 Q 39.453125 6.390625 43.28125 13.890625 Q 47.125 21.390625 47.125 36.375 Q 47.125 51.421875 43.28125 58.90625 Q 39.453125 66.40625 31.78125 66.40625 z M 31.78125 74.21875 Q 44.046875 74.21875 50.515625 64.515625 Q 56.984375 54.828125 56.984375 36.375 Q 56.984375 17.96875 50.515625 8.265625 Q 44.046875 -1.421875 31.78125 -1.421875 Q 19.53125 -1.421875 13.0625 8.265625 Q 6.59375 17.96875 6.59375 36.375 Q 6.59375 54.828125 13.0625 64.515625 Q 19.53125 74.21875 31.78125 74.21875 z"/></defs><g transform="translate(34.275 206.381037)scale(0.1 -0.1)"><use xlink:href="#DejaVuSans-49"/><use x="63.623" xlink:href="#DejaVuSans-48"/></g></g></g><g id="ytick_3"><g id="line2d_8"><g><use style="stroke:#000;stroke-width:.8" x="54" y="163.047" xlink:href="#mf32824b63b"/></g></g><g id="text_8"><g transform="translate(34.275 166.846491)scale(0.1 -0.1)"><use xlink:href="#DejaVuSans-49"/><use x="63.623" xlink:href="#DejaVuSans-53"/></g></g></g><g id="ytick_4"><g id="line2d_9"><g><use style="stroke:#000;stroke-width:.8" x="54" y="123.513" xlink:href="#mf32824b63b"/></g></g><g id="text_9"><g transform="translate(34.275 127.311946)scale(0.1 -0.1)"><use xlink:href="#DejaVuSans-50"/><use x="63.623" xlink:href="#DejaVuSans-48"/></g></g></g><g id="ytick_5"><g id="line2d_10"><g><use style="stroke:#000;stroke-width:.8" x="54" y="83.978" xlink:href="#mf32824b63b"/></g></g><g id="text_10"><g transform="translate(34.275 87.777401)scale(0.1 -0.1)"><use xlink:href="#DejaVuSans-50"/><use x="63.623" xlink:href="#DejaVuSans-53"/></g></g></g><g id="ytick_6"><g id="line2d_11"><g><use style="stroke:#000;stroke-width:.8" x="54" y="44.444" xlink:href="#mf32824b63b"/></g></g><g id="text_11"><g transform="translate(34.275 48.242855)scale(0.1 -0.1)"><use xlink:href="#DejaVuSans-51"/><use x="63.623" xlink:href="#DejaVuSans-48"/></g></g></g><g id="text_12"><defs><path id="DejaVuSans-68" d="M 19.671875 64.796875 L 19.671875 8.109375 L 31.59375 8.109375 Q 46.6875 8.109375 53.6875 14.9375 Q 60.6875 21.78125 60.6875 36.53125 Q 60.6875 51.171875 53.6875 57.984375 Q 46.6875 64.796875 31.59375 64.796875 z M 9.8125 72.90625 L 30.078125 72.90625 Q 51.265625 72.90625 61.171875 64.09375 Q 71.09375 55.28125 71.09375 36.53125 Q 71.09375 17.671875 61.125 8.828125 Q 51.171875 0 30.078125 0 L 9.8125 0 z"/><path id="DejaVuSans-105" d="M 9.421875 54.6875 L 18.40625 54.6875 L 18.40625 0 L 9.421875 0 z M 9.421875 75.984375 L 18.40625 75.984375 L 18.40625 64.59375 L 9.421875 64.59375 z"/><path id="DejaVuSans-97" d="M 34.28125 27.484375 Q 23.390625 27.484375 19.1875 25 Q 14.984375 22.515625 14.984375 16.5 Q 14.984375 11.71875 18.140625 8.90625 Q 21.296875 6.109375 26.703125 6.109375 Q 34.1875 6.109375 38.703125 11.40625 Q 43.21875 16.703125 43.21875 25.484375 L 43.21875 27.484375 z M 52.203125 31.203125 L 52.203125 0 L 43.21875 0 L 43.21875 8.296875 Q 40.140625 3.328125 35.546875 0.953125 Q 30.953125 -1.421875 24.3125 -1.421875 Q 15.921875 -1.421875 10.953125 3.296875 Q 6 8.015625 6 15.921875 Q 6 25.140625 12.171875 29.828125 Q 18.359375 34.515625 30.609375 34.515625 L 43.21875 34.515625 L 43.21875 35.40625 Q 43.21875 41.609375 39.140625 45 Q 35.0625 48.390625 27.6875 48.390625 Q 23 48.390625 18.546875 47.265625 Q 14.109375 46.140625 10.015625 43.890625 L 10.015625 52.203125 Q 14.9375 54.109375 19.578125 55.046875 Q 24.21875 56 28.609375 56 Q 40.484375 56 46.34375 49.84375 Q 52.203125 43.703125 52.203125 31.203125 z"/><path id="DejaVuSans-109" d="M 52 44.1875 Q 55.375 50.25 60.0625 53.125 Q 64.75 56 71.09375 56 Q 79.640625 56 84.28125 50.015625 Q 88.921875 44.046875 88.921875 33.015625 L 88.921875 0 L 79.890625 0 L 79.890625 32.71875 Q 79.890625 40.578125 77.09375 44.375 Q 74.3125 48.1875 68.609375 48.1875 Q 61.625 48.1875 57.5625 43.546875 Q 53.515625 38.921875 53.515625 30.90625 L 53.515625 0 L 44.484375 0 L 44.484375 32.71875 Q 44.484375 40.625 41.703125 44.40625 Q 38.921875 48.1875 33.109375 48.1875 Q 26.21875 48.1875 22.15625 43.53125 Q 18.109375 38.875 18.109375 30.90625 L 18.109375 0 L 9.078125 0 L 9.078125 54.6875 L 18.109375 54.6875 L 18.109375 46.1875 Q 21.1875 51.21875 25.484375 53.609375 Q 29.78125 56 35.6875 56 Q 41.65625 56 45.828125 52.96875 Q 50 49.953125 52 44.1875 z"/><path id="DejaVuSans-101" d="M 56.203125 29.59375 L 56.203125 25.203125 L 14.890625 25.203125 Q 15.484375 15.921875 20.484375 11.0625 Q 25.484375 6.203125 34.421875 6.203125 Q 39.59375 6.203125 44.453125 7.46875 Q 49.3125 8.734375 54.109375 11.28125 L 54.109375 2.78125 Q 49.265625 0.734375 44.1875 -0.34375 Q 39.109375 -1.421875 33.890625 -1.421875 Q 20.796875 -1.421875 13.15625 6.1875 Q 5.515625 13.8125 5.515625 26.8125 Q 5.515625 40.234375 12.765625 48.109375 Q 20.015625 56 32.328125 56 Q 43.359375 56 49.78125 48.890625 Q 56.203125 41.796875 56.203125 29.59375 z M 47.21875 32.234375 Q 47.125 39.59375 43.09375 43.984375 Q 39.0625 48.390625 32.421875 48.390625 Q 24.90625 48.390625 20.390625 44.140625 Q 15.875 39.890625 15.1875 32.171875 z"/><path id="DejaVuSans-116" d="M 18.3125 70.21875 L 18.3125 54.6875 L 36.8125 54.6875 L 36.8125 47.703125 L 18.3125 47.703125 L 18.3125 18.015625 Q 18.3125 11.328125 20.140625 9.421875 Q 21.96875 7.515625 27.59375 7.515625 L 36.8125 7.515625 L 36.8125 0 L 27.59375 0 Q 17.1875 0 13.234375 3.875 Q 9.28125 7.765625 9.28125 18.015625 L 9.28125 47.703125 L 2.6875 47.703125 L 2.6875 54.6875 L 9.28125 54.6875 L 9.28125 70.21875 z"/><path id="DejaVuSans-114" d="M 41.109375 46.296875 Q 39.59375 47.171875 37.8125 47.578125 Q 36.03125 48 33.890625 48 Q 26.265625 48 22.1875 43.046875 Q 18.109375 38.09375 18.109375 28.8125 L 18.109375 0 L 9.078125 0 L 9.078125 54.6875 L 18.109375 54.6875 L 18.109375 46.1875 Q 20.953125 51.171875 25.484375 53.578125 Q 30.03125 56 36.53125 56 Q 37.453125 56 38.578125 55.875 Q 39.703125 55.765625 41.0625 55.515625 z"/><path id="DejaVuSans-32"/><path id="DejaVuSans-40" d="M 31 75.875 Q 24.46875 64.65625 21.28125 53.65625 Q 18.109375 42.671875 18.109375 31.390625 Q 18.109375 20.125 21.3125 9.0625 Q 24.515625 -2 31 -13.1875 L 23.1875 -13.1875 Q 15.875 -1.703125 12.234375 9.375 Q 8.59375 20.453125 8.59375 31.390625 Q 8.59375 42.28125 12.203125 53.3125 Q 15.828125 64.359375 23.1875 75.875 z"/><path id="DejaVuSans-Oblique-956" d="M -1.3125 -20.796875 L 13.375 54.6875 L 22.40625 54.6875 L 15.765625 20.65625 Q 15.578125 19.625 15.421875 18.359375 Q 15.28125 17.09375 15.28125 15.828125 Q 15.28125 11.28125 18.140625 8.828125 Q 21 6.390625 26.3125 6.390625 Q 33.546875 6.390625 37.984375 10.484375 Q 42.4375 14.59375 44 22.796875 L 50.203125 54.6875 L 59.1875 54.6875 L 51.03125 12.640625 Q 50.828125 11.71875 50.75 11.03125 Q 50.6875 10.359375 50.6875 9.8125 Q 50.6875 8.296875 51.296875 7.59375 Q 51.90625 6.890625 53.21875 6.890625 Q 53.71875 6.890625 54.5625 7.125 Q 55.421875 7.375 56.984375 8.015625 L 55.609375 0.78125 Q 53.46875 -0.296875 51.515625 -0.859375 Q 49.5625 -1.421875 47.703125 -1.421875 Q 44.484375 -1.421875 42.65625 0.625 Q 40.828125 2.6875 40.828125 6.296875 Q 38.09375 2.390625 34.296875 0.484375 Q 30.515625 -1.421875 25.390625 -1.421875 Q 20.84375 -1.421875 17.453125 0.671875 Q 14.0625 2.78125 12.984375 6.203125 L 7.71875 -20.796875 z"/><path id="DejaVuSans-Oblique-109" d="M 89.796875 33.015625 L 83.40625 0 L 74.421875 0 L 80.71875 32.71875 Q 81.109375 34.8125 81.296875 36.328125 Q 81.5 37.84375 81.5 38.921875 Q 81.5 43.3125 79.046875 45.75 Q 76.609375 48.1875 72.21875 48.1875 Q 65.671875 48.1875 60.546875 43.28125 Q 55.421875 38.375 53.90625 30.515625 L 47.90625 0 L 38.921875 0 L 45.3125 32.71875 Q 45.703125 34.515625 45.890625 36.046875 Q 46.09375 37.59375 46.09375 38.8125 Q 46.09375 43.265625 43.65625 45.71875 Q 41.21875 48.1875 36.921875 48.1875 Q 30.28125 48.1875 25.140625 43.28125 Q 20.015625 38.375 18.5 30.515625 L 12.5 0 L 3.515625 0 L 14.203125 54.6875 L 23.1875 54.6875 L 21.484375 46.1875 Q 25.140625 50.984375 30.046875 53.484375 Q 34.96875 56 40.578125 56 Q 46.53125 56 50.359375 52.875 Q 54.203125 49.75 54.984375 44.1875 Q 59.078125 49.953125 64.46875 52.96875 Q 69.875 56 75.875 56 Q 82.90625 56 86.734375 51.953125 Q 90.578125 47.90625 90.578125 40.484375 Q 90.578125 38.875 90.375 36.9375 Q 90.1875 35.015625 89.796875 33.015625 z"/><path id="DejaVuSans-41" d="M 8.015625 75.875 L 15.828125 75.875 Q 23.140625 64.359375 26.78125 53.3125 Q 30.421875 42.28125 30.421875 31.390625 Q 30.421875 20.453125 26.78125 9.375 Q 23.140625 -1.703125 15.828125 -13.1875 L 8.015625 -13.1875 Q 14.5 -2 17.703125 9.0625 Q 20.90625 20.125 20.90625 31.390625 Q 20.90625 42.671875 17.703125 53.65625 Q 14.5 64.65625 8.015625 75.875 z"/></defs><g transform="translate(28.175 180.18)rotate(-90)scale(0.1 -0.1)"><use transform="translate(0 0.015625)" xlink:href="#DejaVuSans-68"/><use transform="translate(77.001953 0.015625)" xlink:href="#DejaVuSans-105"/><use transform="translate(104.785156 0.015625)" xlink:href="#DejaVuSans-97"/><use transform="translate(166.064453 0.015625)" xlink:href="#DejaVuSans-109"/><use transform="translate(263.476562 0.015625)" xlink:href="#DejaVuSans-101"/><use transform="translate(325 0.015625)" xlink:href="#DejaVuSans-116"/><use transform="translate(364.208984 0.015625)" xlink:href="#DejaVuSans-101"/><use transform="translate(425.732422 0.015625)" xlink:href="#DejaVuSans-114"/><use transform="translate(466.845703 0.015625)" xlink:href="#DejaVuSans-32"/><use transform="translate(498.632812 0.015625)" xlink:href="#DejaVuSans-40"/><use transform="translate(537.646484 0.015625)" xlink:href="#DejaVuSans-Oblique-956"/><use transform="translate(601.269531 0.015625)" xlink:href="#DejaVuSans-Oblique-109"/><use transform="translate(698.681641 0.015625)" xlink:href="#DejaVuSans-41"/></g></g></g><g id="LineCollection_1"><path d="M 77.672727 144.861382 L 94.581818 144.861382" clip-path="url(#pab5cb86e17)" style="fill:none;stroke:green;stroke-width:1.5"/><path d="M 145.309091 155.140364 L 162.218182 155.140364" clip-path="url(#pab5cb86e17)" style="fill:none;stroke:green;stroke-width:1.5"/><path d="M 212.945455 88.326982 L 229.854545 88.326982" clip-path="url(#pab5cb86e17)" style="fill:none;stroke:green;stroke-width:1.5"/><path d="M 280.581818 151.186909 L 297.490909 151.186909" clip-path="url(#pab5cb86e17)" style="fill:none;stroke:green;stroke-width:1.5"/><path d="M 348.218182 219.186327 L 365.127273 219.186327" clip-path="url(#pab5cb86e17)" style="fill:none;stroke:green;stroke-width:1.5"/></g><g id="LineCollection_2"><path d="M 77.672727 123.512727 L 94.581818 123.512727" clip-path="url(#pab5cb86e17)" style="fill:none;stroke:#1f77b4;stroke-width:1.5"/><path d="M 145.309091 131.419636 L 162.218182 131.419636" clip-path="url(#pab5cb86e17)" style="fill:none;stroke:#1f77b4;stroke-width:1.5"/><path d="M 212.945455 44.443636 L 229.854545 44.443636" clip-path="url(#pab5cb86e17)" style="fill:none;stroke:#1f77b4;stroke-width:1.5"/><path d="M 280.581818 131.419636 L 297.490909 131.419636" clip-path="url(#pab5cb86e17)" style="fill:none;stroke:#1f77b4;stroke-width:1.5"/><path d="M 348.218182 202.581818 L 365.127273 202.581818" clip-path="url(#pab5cb86e17)" style="fill:none;stroke:#1f77b4;stroke-width:1.5"/></g><g id="LineCollection_3"><path d="M 77.672727 186.768 L 94.581818 186.768" clip-path="url(#pab5cb86e17)" style="fill:none;stroke:#1f77b4;stroke-width:1.5"/><path d="M 145.309091 210.488727 L 162.218182 210.488727" clip-path="url(#pab5cb86e17)" style="fill:none;stroke:#1f77b4;stroke-width:1.5"/><path d="M 212.945455 178.861091 L 229.854545 178.861091" clip-path="url(#pab5cb86e17)" style="fill:none;stroke:#1f77b4;stroke-width:1.5"/><path d="M 280.581818 178.861091 L 297.490909 178.861091" clip-path="url(#pab5cb86e17)" style="fill:none;stroke:#1f77b4;stroke-width:1.5"/><path d="M 348.218182 242.116364 L 365.127273 242.116364" clip-path="url(#pab5cb86e17)" style="fill:none;stroke:#1f77b4;stroke-width:1.5"/></g><g id="LineCollection_4"><path d="M 86.127273 186.768 L 86.127273 123.512727" clip-path="url(#pab5cb86e17)" style="fill:none;stroke:#1f77b4;stroke-width:1.5"/><path d="M 153.763636 210.488727 L 153.763636 131.419636" clip-path="url(#pab5cb86e17)" style="fill:none;stroke:#1f77b4;stroke-width:1.5"/><path d="M 221.4 178.861091 L 221.4 44.443636" clip-path="url(#pab5cb86e17)" style="fill:none;stroke:#1f77b4;stroke-width:1.5"/><path d="M 289.036364 178.861091 L 289.036364 131.419636" clip-path="url(#pab5cb86e17)" style="fill:none;stroke:#1f77b4;stroke-width:1.5"/><path d="M 356.672727 242.116364 L 356.672727 202.581818" clip-path="url(#pab5cb86e17)" style="fill:none;stroke:#1f77b4;stroke-width:1.5"/></g><g id="LineCollection_5"><path d="M 77.672727 143.28 L 94.581818 143.28" clip-path="url(#pab5cb86e17)" style="fill:none;stroke:red;stroke-width:1.5"/><path d="M 145.309091 147.233455 L 162.218182 147.233455" clip-path="url(#pab5cb86e17)" style="fill:none;stroke:red;stroke-width:1.5"/><path d="M 212.945455 83.978182 L 229.854545 83.978182" clip-path="url(#pab5cb86e17)" style="fill:none;stroke:red;stroke-width:1.5"/><path d="M 280.581818 147.233455 L 297.490909 147.233455" clip-path="url(#pab5cb86e17)" style="fill:none;stroke:red;stroke-width:1.5"/><path d="M 348.218182 218.395636 L 365.127273 218.395636" clip-path="url(#pab5cb86e17)" style="fill:none;stroke:red;stroke-width:1.5"/></g><g id="patch_3"><path d="M 54 252 L 54 34.56" style="fill:none;stroke:#000;stroke-linecap:square;stroke-linejoin:miter;stroke-width:.8"/></g><g id="patch_4"><path d="M 388.8 252 L 388.8 34.56" style="fill:none;stroke:#000;stroke-linecap:square;stroke-linejoin:miter;stroke-width:.8"/></g><g id="patch_5"><path d="M 54 252 L 388.8 252" style="fill:none;stroke:#000;stroke-linecap:square;stroke-linejoin:miter;stroke-width:.8"/></g><g id="patch_6"><path d="M 54 34.56 L 388.8 34.56" style="fill:none;stroke:#000;stroke-linecap:square;stroke-linejoin:miter;stroke-width:.8"/></g></g></g><defs><clipPath id="pab5cb86e17"><rect width="334.8" height="217.44" x="54" y="34.56"/></clipPath></defs></svg>