<svg xmlns="http://www.w3.org/2000/svg" xmlns:xlink="http://www.w3.org/1999/xlink" width="96" height="96" version="1.1" viewBox="0 0 72 72"><defs><style type="text/css">*{stroke-linecap:butt;stroke-linejoin:round}</style></defs><g id="figure_1"><g id="patch_1"><path d="M 0 72 L 72 72 L 72 0 L 0 0 z" style="fill:#fff"/></g><g id="axes_1"><g id="patch_2"><path d="M 9 63 L 64.8 63 L 64.8 8.64 L 9 8.64 z" style="fill:#fff"/></g><g id="PolyCollection_1"><path d="M 47.219655 60.529091 L 26.580345 60.529091 L 26.201277 60.029917 L 25.825688 59.530744 L 25.454226 59.03157 L 25.087464 58.532397 L 24.725895 58.033223 L 24.369925 57.53405 L 24.019869 57.034876 L 23.675946 56.535702 L 23.338278 56.036529 L 23.006887 55.537355 L 22.681695 55.038182 L 22.362521 54.539008 L 22.04909 54.039835 L 21.741028 53.540661 L 21.437875 53.041488 L 21.139086 52.542314 L 20.844044 52.04314 L 20.552066 51.543967 L 20.262422 51.044793 L 19.974346 50.54562 L 19.68705 50.046446 L 19.399748 49.547273 L 19.111672 49.048099 L 18.822092 48.548926 L 18.530342 48.049752 L 18.235837 47.550579 L 17.938101 47.051405 L 17.636781 46.552231 L 17.331678 46.053058 L 17.022756 45.553884 L 16.710164 45.054711 L 16.394252 44.555537 L 16.075577 44.056364 L 15.754912 43.55719 L 15.433251 43.058017 L 15.111805 42.558843 L 14.791996 42.059669 L 14.475446 41.560496 L 14.163962 41.061322 L 13.859511 40.562149 L 13.564201 40.062975 L 13.280245 39.563802 L 13.00993 39.064628 L 12.755583 38.565455 L 12.519528 38.066281 L 12.304048 37.567107 L 12.111344 37.067934 L 11.943494 36.56876 L 11.802413 36.069587 L 11.689815 35.570413 L 11.60718 35.07124 L 11.555722 34.572066 L 11.536364 34.072893 L 11.549714 33.573719 L 11.596054 33.074545 L 11.67533 32.575372 L 11.787147 32.076198 L 11.930778 31.577025 L 12.10517 31.077851 L 12.308967 30.578678 L 12.540528 30.079504 L 12.797961 29.580331 L 13.079153 29.081157 L 13.381812 28.581983 L 13.703506 28.08281 L 14.041711 27.583636 L 14.39385 27.084463 L 14.757347 26.585289 L 15.129668 26.086116 L 15.508366 25.586942 L 15.891121 25.087769 L 16.275782 24.588595 L 16.660397 24.089421 L 17.043241 23.590248 L 17.422843 23.091074 L 17.798002 22.591901 L 18.167793 22.092727 L 18.531577 21.593554 L 18.888998 21.09438 L 19.239973 20.595207 L 19.584676 20.096033 L 19.923522 19.59686 L 20.257142 19.097686 L 20.58635 18.598512 L 20.912115 18.099339 L 21.235522 17.600165 L 21.557742 17.100992 L 21.879984 16.601818 L 22.20347 16.102645 L 22.529388 15.603471 L 22.858865 15.104298 L 23.19293 14.605124 L 23.532488 14.10595 L 23.878297 13.606777 L 24.230943 13.107603 L 24.590828 12.60843 L 24.958158 12.109256 L 25.332936 11.610083 L 25.714965 11.110909 L 48.085035 11.110909 L 48.085035 11.110909 L 48.467064 11.610083 L 48.841842 12.109256 L 49.209172 12.60843 L 49.569057 13.107603 L 49.921703 13.606777 L 50.267512 14.10595 L 50.60707 14.605124 L 50.941135 15.104298 L 51.270612 15.603471 L 51.59653 16.102645 L 51.920016 16.601818 L 52.242258 17.100992 L 52.564478 17.600165 L 52.887885 18.099339 L 53.21365 18.598512 L 53.542858 19.097686 L 53.876478 19.59686 L 54.215324 20.096033 L 54.560027 20.595207 L 54.911002 21.09438 L 55.268423 21.593554 L 55.632207 22.092727 L 56.001998 22.591901 L 56.377157 23.091074 L 56.756759 23.590248 L 57.139603 24.089421 L 57.524218 24.588595 L 57.908879 25.087769 L 58.291634 25.586942 L 58.670332 26.086116 L 59.042653 26.585289 L 59.40615 27.084463 L 59.758289 27.583636 L 60.096494 28.08281 L 60.418188 28.581983 L 60.720847 29.081157 L 61.002039 29.580331 L 61.259472 30.079504 L 61.491033 30.578678 L 61.69483 31.077851 L 61.869222 31.577025 L 62.012853 32.076198 L 62.12467 32.575372 L 62.203946 33.074545 L 62.250286 33.573719 L 62.263636 34.072893 L 62.244278 34.572066 L 62.19282 35.07124 L 62.110185 35.570413 L 61.997587 36.069587 L 61.856506 36.56876 L 61.688656 37.067934 L 61.495952 37.567107 L 61.280472 38.066281 L 61.044417 38.565455 L 60.79007 39.064628 L 60.519755 39.563802 L 60.235799 40.062975 L 59.940489 40.562149 L 59.636038 41.061322 L 59.324554 41.560496 L 59.008004 42.059669 L 58.688195 42.558843 L 58.366749 43.058017 L 58.045088 43.55719 L 57.724423 44.056364 L 57.405748 44.555537 L 57.089836 45.054711 L 56.777244 45.553884 L 56.468322 46.053058 L 56.163219 46.552231 L 55.861899 47.051405 L 55.564163 47.550579 L 55.269658 48.049752 L 54.977908 48.548926 L 54.688328 49.048099 L 54.400252 49.547273 L 54.11295 50.046446 L 53.825654 50.54562 L 53.537578 51.044793 L 53.247934 51.543967 L 52.955956 52.04314 L 52.660914 52.542314 L 52.362125 53.041488 L 52.058972 53.540661 L 51.75091 54.039835 L 51.437479 54.539008 L 51.118305 55.038182 L 50.793113 55.537355 L 50.461722 56.036529 L 50.124054 56.535702 L 49.780131 57.034876 L 49.430075 57.53405 L 49.074105 58.033223 L 48.712536 58.532397 L 48.345774 59.03157 L 47.974312 59.530744 L 47.598723 60.029917 L 47.219655 60.529091 z" clip-path="url(#pbd5f31ec58)" style="fill:#1f77b4;fill-opacity:.3"/></g><g id="matplotlib.axis_1"><g id="xtick_1"><g id="line2d_1"><defs><path id="ma355d8c78d" d="M 0 0 L 0 3.5" style="stroke:#000;stroke-width:.8"/></defs><g><use style="stroke:#000;stroke-width:.8" x="36.9" y="63" xlink:href="#ma355d8c78d"/></g></g><g id="text_1"><defs><path id="DejaVuSans-49" d="M 12.40625 8.296875 L 28.515625 8.296875 L 28.515625 63.921875 L 10.984375 60.40625 L 10.984375 69.390625 L 28.421875 72.90625 L 38.28125 72.90625 L 38.28125 8.296875 L 54.390625 8.296875 L 54.390625 0 L 12.40625 0 z"/></defs><g transform="translate(33.71875 77.598438)scale(0.1 -0.1)"><use xlink:href="#DejaVuSans-49"/></g></g></g></g><g id="matplotlib.axis_2"><g id="ytick_1"><g id="line2d_2"><defs><path id="me664161ac7" d="M 0 0 L -3.5 0" style="stroke:#000;stroke-width:.8"/></defs><g><use style="stroke:#000;stroke-width:.8" x="9" y="55.823" xlink:href="#me664161ac7"/></g></g><g id="text_2"><defs><path id="DejaVuSans-55" d="M 8.203125 72.90625 L 55.078125 72.90625 L 55.078125 68.703125 L 28.609375 0 L 18.3125 0 L 43.21875 64.59375 L 8.203125 64.59375 z"/><path id="DejaVuSans-48" d="M 31.78125 66.40625 Q 24.171875 66.40625 20.328125 58.90625 Q 16.5 51.421875 16.5 36.375 Q 16.5 21.390625 20.328125 13.890625 Q 24.171875 6.390625 31.78125 6.390625 Q 39.453125 6.390625 43.28125 13.890625 Q 47.125 21.390625 47.125 36.375 Q 47.125 51.421875 43.28125 58.90625 Q 39.453125 66.40625 31.78125 66.40625 z M 31.78125 74.21875 Q 44.046875 74.21875 50.515625 64.515625 Q 56.984375 54.828125 56.984375 36.375 Q 56.984375 17.96875 50.515625 8.265625 Q 44.046875 -1.421875 31.78125 -1.421875 Q 19.53125 -1.421875 13.0625 8.265625 Q 6.59375 17.96875 6.59375 36.375 Q 6.59375 54.828125 13.0625 64.515625 Q 19.53125 74.21875 31.78125 74.21875 z"/></defs><g transform="translate(-10.725 59.621816)scale(0.1 -0.1)"><use xlink:href="#DejaVuSans-55"/><use x="63.623" xlink:href="#DejaVuSans-48"/></g></g></g><g id="ytick_2"><g id="line2d_3"><g><use style="stroke:#000;stroke-width:.8" x="9" y="32.29" xlink:href="#me664161ac7"/></g></g><g id="text_3"><defs><path id="DejaVuSans-56" d="M 31.78125 34.625 Q 24.75 34.625 20.71875 30.859375 Q 16.703125 27.09375 16.703125 20.515625 Q 16.703125 13.921875 20.71875 10.15625 Q 24.75 6.390625 31.78125 6.390625 Q 38.8125 6.390625 42.859375 10.171875 Q 46.921875 13.96875 46.921875 20.515625 Q 46.921875 27.09375 42.890625 30.859375 Q 38.875 34.625 31.78125 34.625 z M 21.921875 38.8125 Q 15.578125 40.375 12.03125 44.71875 Q 8.5 49.078125 8.5 55.328125 Q 8.5 64.0625 14.71875 69.140625 Q 20.953125 74.21875 31.78125 74.21875 Q 42.671875 74.21875 48.875 69.140625 Q 55.078125 64.0625 55.078125 55.328125 Q 55.078125 49.078125 51.53125 44.71875 Q 48 40.375 41.703125 38.8125 Q 48.828125 37.15625 52.796875 32.3125 Q 56.78125 27.484375 56.78125 20.515625 Q 56.78125 9.90625 50.3125 4.234375 Q 43.84375 -1.421875 31.78125 -1.421875 Q 19.734375 -1.421875 13.25 4.234375 Q 6.78125 9.90625 6.78125 20.515625 Q 6.78125 27.484375 10.78125 32.3125 Q 14.796875 37.15625 21.921875 38.8125 z M 18.3125 54.390625 Q 18.3125 48.734375 21.84375 45.5625 Q 25.390625 42.390625 31.78125 42.390625 Q 38.140625 42.390625 41.71875 45.5625 Q 45.3125 48.734375 45.3125 54.390625 Q 45.3125 60.0625 41.71875 63.234375 Q 38.140625 66.40625 31.78125 66.40625 Q 25.390625 66.40625 21.84375 63.234375 Q 18.3125 60.0625 18.3125 54.390625 z"/></defs><g transform="translate(-10.725 36.089349)scale(0.1 -0.1)"><use xlink:href="#DejaVuSans-56"/><use x="63.623" xlink:href="#DejaVuSans-48"/></g></g></g><g id="ytick_3"><g id="line2d_4"><g><use style="stroke:#000;stroke-width:.8" x="9" y="8.758" xlink:href="#me664161ac7"/></g></g><g id="text_4"><defs><path id="DejaVuSans-57" d="M 10.984375 1.515625 L 10.984375 10.5 Q 14.703125 8.734375 18.5 7.8125 Q 22.3125 6.890625 25.984375 6.890625 Q 35.75 6.890625 40.890625 13.453125 Q 46.046875 20.015625 46.78125 33.40625 Q 43.953125 29.203125 39.59375 26.953125 Q 35.25 24.703125 29.984375 24.703125 Q 19.046875 24.703125 12.671875 31.3125 Q 6.296875 37.9375 6.296875 49.421875 Q 6.296875 60.640625 12.9375 67.421875 Q 19.578125 74.21875 30.609375 74.21875 Q 43.265625 74.21875 49.921875 64.515625 Q 56.59375 54.828125 56.59375 36.375 Q 56.59375 19.140625 48.40625 8.859375 Q 40.234375 -1.421875 26.421875 -1.421875 Q 22.703125 -1.421875 18.890625 -0.6875 Q 15.09375 0.046875 10.984375 1.515625 z M 30.609375 32.421875 Q 37.25 32.421875 41.125 36.953125 Q 45.015625 41.5 45.015625 49.421875 Q 45.015625 57.28125 41.125 61.84375 Q 37.25 66.40625 30.609375 66.40625 Q 23.96875 66.40625 20.09375 61.84375 Q 16.21875 57.28125 16.21875 49.421875 Q 16.21875 41.5 20.09375 36.953125 Q 23.96875 32.421875 30.609375 32.421875 z"/></defs><g transform="translate(-10.725 12.556881)scale(0.1 -0.1)"><use xlink:href="#DejaVuSans-57"/><use x="63.623" xlink:href="#DejaVuSans-48"/></g></g></g></g><g id="LineCollection_1"><path d="M 24.218182 35.349351 L 49.581818 35.349351" clip-path="url(#pbd5f31ec58)" style="fill:none;stroke:green;stroke-width:1.5"/></g><g id="LineCollection_2"><path d="M 24.218182 11.110909 L 49.581818 11.110909" clip-path="url(#pbd5f31ec58)" style="fill:none;stroke:#1f77b4;stroke-width:1.5"/></g><g id="LineCollection_3"><path d="M 24.218182 60.529091 L 49.581818 60.529091" clip-path="url(#pbd5f31ec58)" style="fill:none;stroke:#1f77b4;stroke-width:1.5"/></g><g id="LineCollection_4"><path d="M 36.9 60.529091 L 36.9 11.110909" clip-path="url(#pbd5f31ec58)" style="fill:none;stroke:#1f77b4;stroke-width:1.5"/></g><g id="LineCollection_5"><path d="M 24.218182 34.643377 L 49.581818 34.643377" clip-path="url(#pbd5f31ec58)" style="fill:none;stroke:red;stroke-width:1.5"/></g><g id="patch_3"><path d="M 9 63 L 9 8.64" style="fill:none;stroke:#000;stroke-linecap:square;stroke-linejoin:miter;stroke-width:.8"/></g><g id="patch_4"><path d="M 64.8 63 L 64.8 8.64" style="fill:none;stroke:#000;stroke-linecap:square;stroke-linejoin:miter;stroke-width:.8"/></g><g id="patch_5"><path d="M 9 63 L 64.8 63" style="fill:none;stroke:#000;stroke-linecap:square;stroke-linejoin:miter;stroke-width:.8"/></g><g id="patch_6"><path d="M 9 8.64 L 64.8 8.64" style="fill:none;stroke:#000;stroke-linecap:square;stroke-linejoin:miter;stroke-width:.8"/></g></g></g><defs><clipPath id="pbd5f31ec58"><rect width="55.8" height="54.36" x="9" y="8.64"/></clipPath></defs></svg>