<svg xmlns="http://www.w3.org/2000/svg" xmlns:xlink="http://www.w3.org/1999/xlink" width="576" height="384" version="1.1" viewBox="0 0 432 288"><defs><style type="text/css">*{stroke-linecap:butt;stroke-linejoin:round}</style></defs><g id="figure_1"><g id="patch_1"><path d="M 0 288 L 432 288 L 432 0 L 0 0 z" style="fill:#fff"/></g><g id="axes_1"><g id="patch_2"><path d="M 54 252 L 388.8 252 L 388.8 34.56 L 54 34.56 z" style="fill:#fff"/></g><g id="PolyCollection_1"><path d="M 90.360103 184.461818 L 81.894443 184.461818 L 81.644738 183.796253 L 81.387291 183.130689 L 81.122054 182.465124 L 80.848986 181.799559 L 80.568059 181.133994 L 80.27926 180.46843 L 79.982608 179.802865 L 79.678149 179.1373 L 79.365974 178.471736 L 79.046217 177.806171 L 78.719064 177.140606 L 78.384758 176.475041 L 78.043604 175.809477 L 77.695968 175.143912 L 77.342285 174.478347 L 76.983061 173.812782 L 76.61887 173.147218 L 76.250359 172.481653 L 75.878251 171.816088 L 75.503344 171.150523 L 75.126515 170.484959 L 74.748723 169.819394 L 74.371009 169.153829 L 73.994503 168.488264 L 73.620425 167.8227 L 73.250092 167.157135 L 72.884917 166.49157 L 72.526414 165.826006 L 72.176196 165.160441 L 71.835979 164.494876 L 71.507573 163.829311 L 71.192879 163.163747 L 70.893875 162.498182 L 70.612608 161.832617 L 70.351169 161.167052 L 70.111673 160.501488 L 69.896234 159.835923 L 69.706928 159.170358 L 69.545766 158.504793 L 69.414651 157.839229 L 69.315339 157.173664 L 69.249401 156.508099 L 69.218182 155.842534 L 69.222759 155.17697 L 69.263912 154.511405 L 69.342084 153.84584 L 69.457363 153.180275 L 69.609457 152.514711 L 69.797682 151.849146 L 70.02096 151.183581 L 70.277823 150.518017 L 70.566425 149.852452 L 70.884567 149.186887 L 71.229724 148.521322 L 71.599085 147.855758 L 71.989597 147.190193 L 72.398016 146.524628 L 72.820962 145.859063 L 73.254972 145.193499 L 73.696565 144.527934 L 74.142293 143.862369 L 74.5888 143.196804 L 75.032875 142.53124 L 75.471499 141.865675 L 75.901888 141.20011 L 76.321525 140.534545 L 76.728194 139.868981 L 77.12 139.203416 L 77.495378 138.537851 L 77.853104 137.872287 L 78.192293 137.206722 L 78.512389 136.541157 L 78.813152 135.875592 L 79.094642 135.210028 L 79.357191 134.544463 L 79.601377 133.878898 L 79.827998 133.213333 L 80.038038 132.547769 L 80.232632 131.882204 L 80.413039 131.216639 L 80.580608 130.551074 L 80.736747 129.88551 L 80.882893 129.219945 L 81.020487 128.55438 L 81.150948 127.888815 L 81.27565 127.223251 L 81.395905 126.557686 L 81.512943 125.892121 L 81.627897 125.226556 L 81.741794 124.560992 L 81.855545 123.895427 L 81.969935 123.229862 L 82.085624 122.564298 L 82.20314 121.898733 L 82.322881 121.233168 L 82.445118 120.567603 L 82.569996 119.902039 L 82.697542 119.236474 L 82.82767 118.570909 L 89.426876 118.570909 L 89.426876 118.570909 L 89.557004 119.236474 L 89.684549 119.902039 L 89.809427 120.567603 L 89.931664 121.233168 L 90.051405 121.898733 L 90.168921 122.564298 L 90.284611 123.229862 L 90.399001 123.895427 L 90.512751 124.560992 L 90.626649 125.226556 L 90.741602 125.892121 L 90.85864 126.557686 L 90.978895 127.223251 L 91.103598 127.888815 L 91.234059 128.55438 L 91.371653 129.219945 L 91.517799 129.88551 L 91.673937 130.551074 L 91.841507 131.216639 L 92.021914 131.882204 L 92.216508 132.547769 L 92.426547 133.213333 L 92.653168 133.878898 L 92.897355 134.544463 L 93.159903 135.210028 L 93.441393 135.875592 L 93.742157 136.541157 L 94.062252 137.206722 L 94.401441 137.872287 L 94.759168 138.537851 L 95.134546 139.203416 L 95.526351 139.868981 L 95.933021 140.534545 L 96.352658 141.20011 L 96.783046 141.865675 L 97.22167 142.53124 L 97.665746 143.196804 L 98.112253 143.862369 L 98.557981 144.527934 L 98.999573 145.193499 L 99.433584 145.859063 L 99.856529 146.524628 L 100.264949 147.190193 L 100.655461 147.855758 L 101.024821 148.521322 L 101.369978 149.186887 L 101.68812 149.852452 L 101.976723 150.518017 L 102.233586 151.183581 L 102.456864 151.849146 L 102.645089 152.514711 L 102.797182 153.180275 L 102.912461 153.84584 L 102.990634 154.511405 L 103.031786 155.17697 L 103.036364 155.842534 L 103.005144 156.508099 L 102.939206 157.173664 L 102.839895 157.839229 L 102.708779 158.504793 L 102.547617 159.170358 L 102.358312 159.835923 L 102.142872 160.501488 L 101.903376 161.167052 L 101.641937 161.832617 L 101.36067 162.498182 L 101.061667 163.163747 L 100.746972 163.829311 L 100.418566 164.494876 L 100.078349 165.160441 L 99.728132 165.826006 L 99.369628 166.49157 L 99.004453 167.157135 L 98.63412 167.8227 L 98.260043 168.488264 L 97.883537 169.153829 L 97.505823 169.819394 L 97.12803 170.484959 L 96.751201 171.150523 L 96.376295 171.816088 L 96.004187 172.481653 L 95.635676 173.147218 L 95.271484 173.812782 L 94.91226 174.478347 L 94.558578 175.143912 L 94.210942 175.809477 L 93.869787 176.475041 L 93.535481 177.140606 L 93.208328 177.806171 L 92.888571 178.471736 L 92.576396 179.1373 L 92.271938 179.802865 L 91.975285 180.46843 L 91.686487 181.133994 L 91.405559 181.799559 L 91.132492 182.465124 L 90.867255 183.130689 L 90.609808 183.796253 L 90.360103 184.461818 z" clip-path="url(#p5e65d0b185)" style="fill:#1f77b4;fill-opacity:.3"/></g><g id="PolyCollection_2"><path d="M 166.159604 233.88 L 141.367668 233.88 L 141.009626 232.881653 L 140.663157 231.883306 L 140.329499 230.884959 L 140.009832 229.886612 L 139.705266 228.888264 L 139.416835 227.889917 L 139.145484 226.89157 L 138.892063 225.893223 L 138.65732 224.894876 L 138.441894 223.896529 L 138.246307 222.898182 L 138.070961 221.899835 L 137.916131 220.901488 L 137.781964 219.90314 L 137.668473 218.904793 L 137.57554 217.906446 L 137.502909 216.908099 L 137.450194 215.909752 L 137.416872 214.911405 L 137.402292 213.913058 L 137.405675 212.914711 L 137.426122 211.916364 L 137.462613 210.918017 L 137.514021 209.919669 L 137.579118 208.921322 L 137.656579 207.922975 L 137.744998 206.924628 L 137.842896 205.926281 L 137.948732 204.927934 L 138.060918 203.929587 L 138.177828 202.93124 L 138.297817 201.932893 L 138.41923 200.934545 L 138.540422 199.936198 L 138.659769 198.937851 L 138.775685 197.939504 L 138.886637 196.941157 L 138.99116 195.94281 L 139.08787 194.944463 L 139.175481 193.946116 L 139.252817 192.947769 L 139.318821 191.949421 L 139.372574 190.951074 L 139.413298 189.952727 L 139.440369 188.95438 L 139.453323 187.956033 L 139.451861 186.957686 L 139.435856 185.959339 L 139.405352 184.960992 L 139.360565 183.962645 L 139.301884 182.964298 L 139.229866 181.96595 L 139.14523 180.967603 L 139.04885 179.969256 L 138.941751 178.970909 L 138.825091 177.972562 L 138.700155 176.974215 L 138.568342 175.975868 L 138.431146 174.977521 L 138.290147 173.979174 L 138.146988 172.980826 L 138.003366 171.982479 L 137.861009 170.984132 L 137.721663 169.985785 L 137.587073 168.987438 L 137.458964 167.989091 L 137.339032 166.990744 L 137.22892 165.992397 L 137.130209 164.99405 L 137.044401 163.995702 L 136.972907 162.997355 L 136.917038 161.999008 L 136.877992 161.000661 L 136.856845 160.002314 L 136.854545 159.003967 L 136.871908 158.00562 L 136.909608 157.007273 L 136.968178 156.008926 L 137.048009 155.010579 L 137.149348 154.012231 L 137.272297 153.013884 L 137.41682 152.015537 L 137.582743 151.01719 L 137.769758 150.018843 L 137.977433 149.020496 L 138.20521 148.022149 L 138.45242 147.023802 L 138.718288 146.025455 L 139.001936 145.027107 L 139.302402 144.02876 L 139.618638 143.030413 L 139.949529 142.032066 L 140.293893 141.033719 L 140.6505 140.035372 L 141.018074 139.037025 L 141.395307 138.038678 L 141.780867 137.040331 L 142.173408 136.041983 L 142.571577 135.043636 L 164.955695 135.043636 L 164.955695 135.043636 L 165.353865 136.041983 L 165.746406 137.040331 L 166.131966 138.038678 L 166.509199 139.037025 L 166.876773 140.035372 L 167.23338 141.033719 L 167.577744 142.032066 L 167.908634 143.030413 L 168.224871 144.02876 L 168.525336 145.027107 L 168.808985 146.025455 L 169.074852 147.023802 L 169.322063 148.022149 L 169.54984 149.020496 L 169.757514 150.018843 L 169.94453 151.01719 L 170.110453 152.015537 L 170.254976 153.013884 L 170.377925 154.012231 L 170.479264 155.010579 L 170.559095 156.008926 L 170.617665 157.007273 L 170.655365 158.00562 L 170.672727 159.003967 L 170.670428 160.002314 L 170.649281 161.000661 L 170.610235 161.999008 L 170.554366 162.997355 L 170.482872 163.995702 L 170.397064 164.99405 L 170.298352 165.992397 L 170.18824 166.990744 L 170.068308 167.989091 L 169.9402 168.987438 L 169.80561 169.985785 L 169.666264 170.984132 L 169.523907 171.982479 L 169.380285 172.980826 L 169.237126 173.979174 L 169.096126 174.977521 L 168.958931 175.975868 L 168.827117 176.974215 L 168.702182 177.972562 L 168.585522 178.970909 L 168.478422 179.969256 L 168.382043 180.967603 L 168.297407 181.96595 L 168.225388 182.964298 L 168.166708 183.962645 L 168.121921 184.960992 L 168.091417 185.959339 L 168.075412 186.957686 L 168.07395 187.956033 L 168.086904 188.95438 L 168.113975 189.952727 L 168.154699 190.951074 L 168.208452 191.949421 L 168.274456 192.947769 L 168.351791 193.946116 L 168.439403 194.944463 L 168.536113 195.94281 L 168.640636 196.941157 L 168.751588 197.939504 L 168.867504 198.937851 L 168.986851 199.936198 L 169.108043 200.934545 L 169.229456 201.932893 L 169.349445 202.93124 L 169.466355 203.929587 L 169.578541 204.927934 L 169.684377 205.926281 L 169.782275 206.924628 L 169.870694 207.922975 L 169.948155 208.921322 L 170.013252 209.919669 L 170.06466 210.918017 L 170.101151 211.916364 L 170.121597 212.914711 L 170.124981 213.913058 L 170.110401 214.911405 L 170.077079 215.909752 L 170.024363 216.908099 L 169.951733 217.906446 L 169.858799 218.904793 L 169.745309 219.90314 L 169.611141 220.901488 L 169.456312 221.899835 L 169.280965 222.898182 L 169.085379 223.896529 L 168.869953 224.894876 L 168.63521 225.893223 L 168.381789 226.89157 L 168.110438 227.889917 L 167.822006 228.888264 L 167.517441 229.886612 L 167.197774 230.884959 L 166.864116 231.883306 L 166.517647 232.881653 L 166.159604 233.88 z" clip-path="url(#p5e65d0b185)" style="fill:#1f77b4;fill-opacity:.3"/></g><g id="PolyCollection_3"><path d="M 227.012696 192.698182 L 215.787304 192.698182 L 215.601776 191.200661 L 215.421191 189.70314 L 215.245691 188.20562 L 215.075286 186.708099 L 214.909843 185.210579 L 214.749089 183.713058 L 214.592607 182.215537 L 214.439842 180.718017 L 214.290106 179.220496 L 214.142589 177.722975 L 213.996368 176.225455 L 213.850427 174.727934 L 213.703674 173.230413 L 213.554958 171.732893 L 213.4031 170.235372 L 213.246909 168.737851 L 213.085214 167.240331 L 212.916889 165.74281 L 212.740879 164.245289 L 212.556227 162.747769 L 212.362099 161.250248 L 212.157808 159.752727 L 211.942838 158.255207 L 211.716856 156.757686 L 211.479735 155.260165 L 211.231558 153.762645 L 210.972631 152.265124 L 210.703483 150.767603 L 210.424864 149.270083 L 210.137738 147.772562 L 209.843273 146.275041 L 209.542822 144.777521 L 209.237903 143.28 L 208.930177 141.782479 L 208.621416 140.284959 L 208.313475 138.787438 L 208.008256 137.289917 L 207.707674 135.792397 L 207.413623 134.294876 L 207.127938 132.797355 L 206.852362 131.299835 L 206.588512 129.802314 L 206.337853 128.304793 L 206.101665 126.807273 L 205.881027 125.309752 L 205.676796 123.812231 L 205.489595 122.314711 L 205.319808 120.81719 L 205.167575 119.319669 L 205.032803 117.822149 L 204.915169 116.324628 L 204.814141 114.827107 L 204.729 113.329587 L 204.658861 111.832066 L 204.602706 110.334545 L 204.559414 108.837025 L 204.5278 107.339504 L 204.506645 105.841983 L 204.494738 104.344463 L 204.490909 102.846942 L 204.494065 101.349421 L 204.503221 99.851901 L 204.517527 98.35438 L 204.536296 96.85686 L 204.559023 95.359339 L 204.585398 93.861818 L 204.615318 92.364298 L 204.648887 90.866777 L 204.686421 89.369256 L 204.728432 87.871736 L 204.775621 86.374215 L 204.828856 84.876694 L 204.889156 83.379174 L 204.957655 81.881653 L 205.035581 80.384132 L 205.124221 78.886612 L 205.224888 77.389091 L 205.338887 75.89157 L 205.467482 74.39405 L 205.611861 72.896529 L 205.77311 71.399008 L 205.952178 69.901488 L 206.149859 68.403967 L 206.366761 66.906446 L 206.603299 65.408926 L 206.859672 63.911405 L 207.135861 62.413884 L 207.431619 60.916364 L 207.746476 59.418843 L 208.079741 57.921322 L 208.430513 56.423802 L 208.79769 54.926281 L 209.179987 53.42876 L 209.575958 51.93124 L 209.98401 50.433719 L 210.402435 48.936198 L 210.829427 47.438678 L 211.263113 45.941157 L 211.701577 44.443636 L 231.098423 44.443636 L 231.098423 44.443636 L 231.536887 45.941157 L 231.970573 47.438678 L 232.397565 48.936198 L 232.81599 50.433719 L 233.224042 51.93124 L 233.620013 53.42876 L 234.00231 54.926281 L 234.369487 56.423802 L 234.720259 57.921322 L 235.053524 59.418843 L 235.368381 60.916364 L 235.664139 62.413884 L 235.940328 63.911405 L 236.196701 65.408926 L 236.433239 66.906446 L 236.650141 68.403967 L 236.847822 69.901488 L 237.02689 71.399008 L 237.188139 72.896529 L 237.332518 74.39405 L 237.461113 75.89157 L 237.575112 77.389091 L 237.675779 78.886612 L 237.764419 80.384132 L 237.842345 81.881653 L 237.910844 83.379174 L 237.971144 84.876694 L 238.024379 86.374215 L 238.071568 87.871736 L 238.113579 89.369256 L 238.151113 90.866777 L 238.184682 92.364298 L 238.214602 93.861818 L 238.240977 95.359339 L 238.263704 96.85686 L 238.282473 98.35438 L 238.296779 99.851901 L 238.305935 101.349421 L 238.309091 102.846942 L 238.305262 104.344463 L 238.293355 105.841983 L 238.2722 107.339504 L 238.240586 108.837025 L 238.197294 110.334545 L 238.141139 111.832066 L 238.071 113.329587 L 237.985859 114.827107 L 237.884831 116.324628 L 237.767197 117.822149 L 237.632425 119.319669 L 237.480192 120.81719 L 237.310405 122.314711 L 237.123204 123.812231 L 236.918973 125.309752 L 236.698335 126.807273 L 236.462147 128.304793 L 236.211488 129.802314 L 235.947638 131.299835 L 235.672062 132.797355 L 235.386377 134.294876 L 235.092326 135.792397 L 234.791744 137.289917 L 234.486525 138.787438 L 234.178584 140.284959 L 233.869823 141.782479 L 233.562097 143.28 L 233.257178 144.777521 L 232.956727 146.275041 L 232.662262 147.772562 L 232.375136 149.270083 L 232.096517 150.767603 L 231.827369 152.265124 L 231.568442 153.762645 L 231.320265 155.260165 L 231.083144 156.757686 L 230.857162 158.255207 L 230.642192 159.752727 L 230.437901 161.250248 L 230.243773 162.747769 L 230.059121 164.245289 L 229.883111 165.74281 L 229.714786 167.240331 L 229.553091 168.737851 L 229.3969 170.235372 L 229.245042 171.732893 L 229.096326 173.230413 L 228.949573 174.727934 L 228.803632 176.225455 L 228.657411 177.722975 L 228.509894 179.220496 L 228.360158 180.718017 L 228.207393 182.215537 L 228.050911 183.713058 L 227.890157 185.210579 L 227.724714 186.708099 L 227.554309 188.20562 L 227.378809 189.70314 L 227.198224 191.200661 L 227.012696 192.698182 z" clip-path="url(#p5e65d0b185)" style="fill:#1f77b4;fill-opacity:.3"/></g><g id="PolyCollection_4"><path d="M 290.783391 217.407273 L 287.289336 217.407273 L 287.267806 216.575317 L 287.249138 215.743361 L 287.232785 214.911405 L 287.218094 214.079449 L 287.20432 213.247493 L 287.190631 212.415537 L 287.176122 211.583581 L 287.159825 210.751625 L 287.140728 209.919669 L 287.11779 209.087713 L 287.089959 208.255758 L 287.056188 207.423802 L 287.015456 206.591846 L 286.966786 205.75989 L 286.909261 204.927934 L 286.842043 204.095978 L 286.764386 203.264022 L 286.675653 202.432066 L 286.575322 201.60011 L 286.463003 200.768154 L 286.338437 199.936198 L 286.201506 199.104242 L 286.05223 198.272287 L 285.890768 197.440331 L 285.717412 196.608375 L 285.53258 195.776419 L 285.336806 194.944463 L 285.130729 194.112507 L 284.915078 193.280551 L 284.690655 192.448595 L 284.45832 191.616639 L 284.218972 190.784683 L 283.973529 189.952727 L 283.722912 189.120771 L 283.468025 188.288815 L 283.209741 187.45686 L 282.948881 186.624904 L 282.686203 185.792948 L 282.422392 184.960992 L 282.158044 184.129036 L 281.893664 183.29708 L 281.629657 182.465124 L 281.366328 181.633168 L 281.10388 180.801212 L 280.84242 179.969256 L 280.581959 179.1373 L 280.322424 178.305344 L 280.063666 177.473388 L 279.805468 176.641433 L 279.547562 175.809477 L 279.289643 174.977521 L 279.031379 174.145565 L 278.772432 173.313609 L 278.51247 172.481653 L 278.251185 171.649697 L 277.98831 170.817741 L 277.723632 169.985785 L 277.457007 169.153829 L 277.188375 168.321873 L 276.917776 167.489917 L 276.645354 166.657961 L 276.371377 165.826006 L 276.096238 164.99405 L 275.820468 164.162094 L 275.54474 163.330138 L 275.269869 162.498182 L 274.996821 161.666226 L 274.726704 160.83427 L 274.460773 160.002314 L 274.200418 159.170358 L 273.947161 158.338402 L 273.702642 157.506446 L 273.468608 156.67449 L 273.246899 155.842534 L 273.039423 155.010579 L 272.848145 154.178623 L 272.675057 153.346667 L 272.522157 152.514711 L 272.39142 151.682755 L 272.284771 150.850799 L 272.20406 150.018843 L 272.151026 149.186887 L 272.127273 148.354931 L 272.13424 147.522975 L 272.173175 146.691019 L 272.245105 145.859063 L 272.350818 145.027107 L 272.490839 144.195152 L 272.665417 143.363196 L 272.874504 142.53124 L 273.117756 141.699284 L 273.394521 140.867328 L 273.703842 140.035372 L 274.044462 139.203416 L 274.414835 138.37146 L 274.813139 137.539504 L 275.237297 136.707548 L 275.685001 135.875592 L 276.153736 135.043636 L 301.918991 135.043636 L 301.918991 135.043636 L 302.387727 135.875592 L 302.83543 136.707548 L 303.259588 137.539504 L 303.657892 138.37146 L 304.028265 139.203416 L 304.368885 140.035372 L 304.678206 140.867328 L 304.954971 141.699284 L 305.198223 142.53124 L 305.407311 143.363196 L 305.581888 144.195152 L 305.72191 145.027107 L 305.827623 145.859063 L 305.899553 146.691019 L 305.938487 147.522975 L 305.945455 148.354931 L 305.921702 149.186887 L 305.868668 150.018843 L 305.787956 150.850799 L 305.681308 151.682755 L 305.55057 152.514711 L 305.39767 153.346667 L 305.224582 154.178623 L 305.033304 155.010579 L 304.825829 155.842534 L 304.604119 156.67449 L 304.370085 157.506446 L 304.125566 158.338402 L 303.872309 159.170358 L 303.611954 160.002314 L 303.346023 160.83427 L 303.075907 161.666226 L 302.802858 162.498182 L 302.527988 163.330138 L 302.252259 164.162094 L 301.976489 164.99405 L 301.701351 165.826006 L 301.427373 166.657961 L 301.154952 167.489917 L 300.884352 168.321873 L 300.61572 169.153829 L 300.349095 169.985785 L 300.084417 170.817741 L 299.821542 171.649697 L 299.560258 172.481653 L 299.300296 173.313609 L 299.041348 174.145565 L 298.783084 174.977521 L 298.525165 175.809477 L 298.26726 176.641433 L 298.009062 177.473388 L 297.750303 178.305344 L 297.490768 179.1373 L 297.230307 179.969256 L 296.968847 180.801212 L 296.706399 181.633168 L 296.44307 182.465124 L 296.179063 183.29708 L 295.914683 184.129036 L 295.650335 184.960992 L 295.386524 185.792948 L 295.123847 186.624904 L 294.862986 187.45686 L 294.604702 188.288815 L 294.349815 189.120771 L 294.099198 189.952727 L 293.853755 190.784683 L 293.614407 191.616639 L 293.382072 192.448595 L 293.157649 193.280551 L 292.941998 194.112507 L 292.735921 194.944463 L 292.540148 195.776419 L 292.355315 196.608375 L 292.181959 197.440331 L 292.020497 198.272287 L 291.871221 199.104242 L 291.73429 199.936198 L 291.609724 200.768154 L 291.497405 201.60011 L 291.397075 202.432066 L 291.308341 203.264022 L 291.230684 204.095978 L 291.163466 204.927934 L 291.105941 205.75989 L 291.057271 206.591846 L 291.016539 207.423802 L 290.982768 208.255758 L 290.954937 209.087713 L 290.931999 209.919669 L 290.912903 210.751625 L 290.896605 211.583581 L 290.882096 212.415537 L 290.868407 213.247493 L 290.854633 214.079449 L 290.839943 214.911405 L 290.823589 215.743361 L 290.804921 216.575317 L 290.783391 217.407273 z" clip-path="url(#p5e65d0b185)" style="fill:#1f77b4;fill-opacity:.3"/></g><g id="PolyCollection_5"><path d="M 361.838604 242.116364 L 351.506851 242.116364 L 351.312976 241.700386 L 351.113948 241.284408 L 350.909051 240.86843 L 350.697531 240.452452 L 350.478615 240.036474 L 350.251523 239.620496 L 350.015496 239.204518 L 349.769809 238.78854 L 349.513795 238.372562 L 349.24687 237.956584 L 348.968549 237.540606 L 348.678475 237.124628 L 348.376434 236.70865 L 348.062375 236.292672 L 347.73643 235.876694 L 347.398924 235.460716 L 347.050391 235.044738 L 346.691581 234.62876 L 346.323464 234.212782 L 345.94723 233.796804 L 345.564287 233.380826 L 345.176255 232.964848 L 344.78495 232.548871 L 344.392372 232.132893 L 344.000683 231.716915 L 343.612185 231.300937 L 343.229288 230.884959 L 342.854489 230.468981 L 342.490333 230.053003 L 342.139381 229.637025 L 341.804176 229.221047 L 341.487205 228.805069 L 341.190868 228.389091 L 340.91744 227.973113 L 340.669041 227.557135 L 340.447603 227.141157 L 340.254844 226.725179 L 340.092244 226.309201 L 339.961023 225.893223 L 339.862126 225.477245 L 339.79621 225.061267 L 339.763636 224.645289 L 339.764468 224.229311 L 339.79847 223.813333 L 339.865117 223.397355 L 339.963604 222.981377 L 340.092855 222.565399 L 340.251546 222.149421 L 340.438123 221.733444 L 340.650824 221.317466 L 340.887707 220.901488 L 341.146673 220.48551 L 341.425495 220.069532 L 341.721847 219.653554 L 342.033332 219.237576 L 342.357508 218.821598 L 342.691919 218.40562 L 343.034118 217.989642 L 343.381691 217.573664 L 343.732287 217.157686 L 344.083629 216.741708 L 344.433542 216.32573 L 344.77997 215.909752 L 345.120985 215.493774 L 345.454808 215.077796 L 345.779817 214.661818 L 346.094556 214.24584 L 346.397745 213.829862 L 346.688284 213.413884 L 346.965257 212.997906 L 347.227936 212.581928 L 347.475778 212.16595 L 347.708428 211.749972 L 347.925714 211.333994 L 348.127644 210.918017 L 348.3144 210.502039 L 348.48633 210.086061 L 348.643942 209.670083 L 348.787891 209.254105 L 348.918973 208.838127 L 349.038106 208.422149 L 349.146322 208.006171 L 349.244749 207.590193 L 349.334599 207.174215 L 349.417146 206.758237 L 349.493713 206.342259 L 349.565657 205.926281 L 349.634341 205.510303 L 349.701127 205.094325 L 349.767351 204.678347 L 349.834309 204.262369 L 349.903237 203.846391 L 349.975299 203.430413 L 350.051567 203.014435 L 350.133013 202.598457 L 350.220494 202.182479 L 350.314741 201.766501 L 350.416354 201.350523 L 350.525796 200.934545 L 362.819658 200.934545 L 362.819658 200.934545 L 362.9291 201.350523 L 363.030714 201.766501 L 363.124961 202.182479 L 363.212441 202.598457 L 363.293887 203.014435 L 363.370155 203.430413 L 363.442217 203.846391 L 363.511145 204.262369 L 363.578103 204.678347 L 363.644328 205.094325 L 363.711114 205.510303 L 363.779798 205.926281 L 363.851741 206.342259 L 363.928309 206.758237 L 364.010856 207.174215 L 364.100705 207.590193 L 364.199133 208.006171 L 364.307348 208.422149 L 364.426481 208.838127 L 364.557563 209.254105 L 364.701513 209.670083 L 364.859125 210.086061 L 365.031055 210.502039 L 365.21781 210.918017 L 365.419741 211.333994 L 365.637027 211.749972 L 365.869677 212.16595 L 366.117519 212.581928 L 366.380198 212.997906 L 366.657171 213.413884 L 366.94771 213.829862 L 367.250899 214.24584 L 367.565638 214.661818 L 367.890647 215.077796 L 368.22447 215.493774 L 368.565485 215.909752 L 368.911912 216.32573 L 369.261826 216.741708 L 369.613168 217.157686 L 369.963763 217.573664 L 370.311337 217.989642 L 370.653535 218.40562 L 370.987946 218.821598 L 371.312122 219.237576 L 371.623607 219.653554 L 371.919959 220.069532 L 372.198781 220.48551 L 372.457747 220.901488 L 372.69463 221.317466 L 372.907332 221.733444 L 373.093909 222.149421 L 373.2526 222.565399 L 373.381851 222.981377 L 373.480337 223.397355 L 373.546985 223.813333 L 373.580987 224.229311 L 373.581818 224.645289 L 373.549244 225.061267 L 373.483328 225.477245 L 373.384431 225.893223 L 373.253211 226.309201 L 373.090611 226.725179 L 372.897852 227.141157 L 372.676414 227.557135 L 372.428014 227.973113 L 372.154587 228.389091 L 371.85825 228.805069 L 371.541279 229.221047 L 371.206073 229.637025 L 370.855121 230.053003 L 370.490965 230.468981 L 370.116166 230.884959 L 369.73327 231.300937 L 369.344771 231.716915 L 368.953082 232.132893 L 368.560505 232.548871 L 368.1692 232.964848 L 367.781168 233.380826 L 367.398225 233.796804 L 367.021991 234.212782 L 366.653873 234.62876 L 366.295063 235.044738 L 365.946531 235.460716 L 365.609025 235.876694 L 365.283079 236.292672 L 364.96902 236.70865 L 364.666979 237.124628 L 364.376905 237.540606 L 364.098585 237.956584 L 363.831659 238.372562 L 363.575646 238.78854 L 363.329958 239.204518 L 363.093931 239.620496 L 362.86684 240.036474 L 362.647923 240.452452 L 362.436404 240.86843 L 362.231507 241.284408 L 362.032479 241.700386 L 361.838604 242.116364 z" clip-path="url(#p5e65d0b185)" style="fill:#1f77b4;fill-opacity:.3"/></g><g id="matplotlib.axis_1"><g id="xtick_1"><g id="line2d_1"><defs><path id="mf1586aab29" d="M 0 0 L 0 3.5" style="stroke:#000;stroke-width:.8"/></defs><g><use style="stroke:#000;stroke-width:.8" x="86.127" y="252" xlink:href="#mf1586aab29"/></g></g><g id="text_1"><defs><path id="DejaVuSans-49" d="M 12.40625 8.296875 L 28.515625 8.296875 L 28.515625 63.921875 L 10.984375 60.40625 L 10.984375 69.390625 L 28.421875 72.90625 L 38.28125 72.90625 L 38.28125 8.296875 L 54.390625 8.296875 L 54.390625 0 L 12.40625 0 z"/></defs><g transform="translate(82.946023 266.598437)scale(0.1 -0.1)"><use xlink:href="#DejaVuSans-49"/></g></g></g><g id="xtick_2"><g id="line2d_2"><g><use style="stroke:#000;stroke-width:.8" x="153.764" y="252" xlink:href="#mf1586aab29"/></g></g><g id="text_2"><defs><path id="DejaVuSans-50" d="M 19.1875 8.296875 L 53.609375 8.296875 L 53.609375 0 L 7.328125 0 L 7.328125 8.296875 Q 12.9375 14.109375 22.625 23.890625 Q 32.328125 33.6875 34.8125 36.53125 Q 39.546875 41.84375 41.421875 45.53125 Q 43.3125 49.21875 43.3125 52.78125 Q 43.3125 58.59375 39.234375 62.25 Q 35.15625 65.921875 28.609375 65.921875 Q 23.96875 65.921875 18.8125 64.3125 Q 13.671875 62.703125 7.8125 59.421875 L 7.8125 69.390625 Q 13.765625 71.78125 18.9375 73 Q 24.125 74.21875 28.421875 74.21875 Q 39.75 74.21875 46.484375 68.546875 Q 53.21875 62.890625 53.21875 53.421875 Q 53.21875 48.921875 51.53125 44.890625 Q 49.859375 40.875 45.40625 35.40625 Q 44.1875 33.984375 37.640625 27.21875 Q 31.109375 20.453125 19.1875 8.296875 z"/></defs><g transform="translate(150.582386 266.598437)scale(0.1 -0.1)"><use xlink:href="#DejaVuSans-50"/></g></g></g><g id="xtick_3"><g id="line2d_3"><g><use style="stroke:#000;stroke-width:.8" x="221.4" y="252" xlink:href="#mf1586aab29"/></g></g><g id="text_3"><defs><path id="DejaVuSans-51" d="M 40.578125 39.3125 Q 47.65625 37.796875 51.625 33 Q 55.609375 28.21875 55.609375 21.1875 Q 55.609375 10.40625 48.1875 4.484375 Q 40.765625 -1.421875 27.09375 -1.421875 Q 22.515625 -1.421875 17.65625 -0.515625 Q 12.796875 0.390625 7.625 2.203125 L 7.625 11.71875 Q 11.71875 9.328125 16.59375 8.109375 Q 21.484375 6.890625 26.8125 6.890625 Q 36.078125 6.890625 40.9375 10.546875 Q 45.796875 14.203125 45.796875 21.1875 Q 45.796875 27.640625 41.28125 31.265625 Q 36.765625 34.90625 28.71875 34.90625 L 20.21875 34.90625 L 20.21875 43.015625 L 29.109375 43.015625 Q 36.375 43.015625 40.234375 45.921875 Q 44.09375 48.828125 44.09375 54.296875 Q 44.09375 59.90625 40.109375 62.90625 Q 36.140625 65.921875 28.71875 65.921875 Q 24.65625 65.921875 20.015625 65.03125 Q 15.375 64.15625 9.8125 62.3125 L 9.8125 71.09375 Q 15.4375 72.65625 20.34375 73.4375 Q 25.25 74.21875 29.59375 74.21875 Q 40.828125 74.21875 47.359375 69.109375 Q 53.90625 64.015625 53.90625 55.328125 Q 53.90625 49.265625 50.4375 45.09375 Q 46.96875 40.921875 40.578125 39.3125 z"/></defs><g transform="translate(218.21875 266.598437)scale(0.1 -0.1)"><use xlink:href="#DejaVuSans-51"/></g></g></g><g id="xtick_4"><g id="line2d_4"><g><use style="stroke:#000;stroke-width:.8" x="289.036" y="252" xlink:href="#mf1586aab29"/></g></g><g id="text_4"><defs><path id="DejaVuSans-52" d="M 37.796875 64.3125 L 12.890625 25.390625 L 37.796875 25.390625 z M 35.203125 72.90625 L 47.609375 72.90625 L 47.609375 25.390625 L 58.015625 25.390625 L 58.015625 17.1875 L 47.609375 17.1875 L 47.609375 0 L 37.796875 0 L 37.796875 17.1875 L 4.890625 17.1875 L 4.890625 26.703125 z"/></defs><g transform="translate(285.855114 266.598437)scale(0.1 -0.1)"><use xlink:href="#DejaVuSans-52"/></g></g></g><g id="xtick_5"><g id="line2d_5"><g><use style="stroke:#000;stroke-width:.8" x="356.673" y="252" xlink:href="#mf1586aab29"/></g></g><g id="text_5"><defs><path id="DejaVuSans-53" d="M 10.796875 72.90625 L 49.515625 72.90625 L 49.515625 64.59375 L 19.828125 64.59375 L 19.828125 46.734375 Q 21.96875 47.46875 24.109375 47.828125 Q 26.265625 48.1875 28.421875 48.1875 Q 40.625 48.1875 47.75 41.5 Q 54.890625 34.8125 54.890625 23.390625 Q 54.890625 11.625 47.5625 5.09375 Q 40.234375 -1.421875 26.90625 -1.421875 Q 22.3125 -1.421875 17.546875 -0.640625 Q 12.796875 0.140625 7.71875 1.703125 L 7.71875 11.625 Q 12.109375 9.234375 16.796875 8.0625 Q 21.484375 6.890625 26.703125 6.890625 Q 35.15625 6.890625 40.078125 11.328125 Q 45.015625 15.765625 45.015625 23.390625 Q 45.015625 31 40.078125 35.4375 Q 35.15625 39.890625 26.703125 39.890625 Q 22.75 39.890625 18.8125 39.015625 Q 14.890625 38.140625 10.796875 36.28125 z"/></defs><g transform="translate(353.491477 266.598437)scale(0.1 -0.1)"><use xlink:href="#DejaVuSans-53"/></g></g></g></g><g id="matplotlib.axis_2"><g id="ytick_1"><g id="line2d_6"><defs><path id="mc07a736a2d" d="M 0 0 L -3.5 0" style="stroke:#000;stroke-width:.8"/></defs><g><use style="stroke:#000;stroke-width:.8" x="54" y="242.116" xlink:href="#mc07a736a2d"/></g></g><g id="text_6"><g transform="translate(40.6375 245.915582)scale(0.1 -0.1)"><use xlink:href="#DejaVuSans-53"/></g></g></g><g id="ytick_2"><g id="line2d_7"><g><use style="stroke:#000;stroke-width:.8" x="54" y="200.935" xlink:href="#mc07a736a2d"/></g></g><g id="text_7"><defs><path id="DejaVuSans-48" d="M 31.78125 66.40625 Q 24.171875 66.40625 20.328125 58.90625 Q 16.5 51.421875 16.5 36.375 Q 16.5 21.390625 20.328125 13.890625 Q 24.171875 6.390625 31.78125 6.390625 Q 39.453125 6.390625 43.28125 13.890625 Q 47.125 21.390625 47.125 36.375 Q 47.125 51.421875 43.28125 58.90625 Q 39.453125 66.40625 31.78125 66.40625 z M 31.78125 74.21875 Q 44.046875 74.21875 50.515625 64.515625 Q 56.984375 54.828125 56.984375 36.375 Q 56.984375 17.96875 50.515625 8.265625 Q 44.046875 -1.421875 31.78125 -1.421875 Q 19.53125 -1.421875 13.0625 8.265625 Q 6.59375 17.96875 6.59375 36.375 Q 6.59375 54.828125 13.0625 64.515625 Q 19.53125 74.21875 31.78125 74.21875 z"/></defs><g transform="translate(34.275 204.733764)scale(0.1 -0.1)"><use xlink:href="#DejaVuSans-49"/><use x="63.623" xlink:href="#DejaVuSans-48"/></g></g></g><g id="ytick_3"><g id="line2d_8"><g><use style="stroke:#000;stroke-width:.8" x="54" y="159.753" xlink:href="#mc07a736a2d"/></g></g><g id="text_8"><g transform="translate(34.275 163.551946)scale(0.1 -0.1)"><use xlink:href="#DejaVuSans-49"/><use x="63.623" xlink:href="#DejaVuSans-53"/></g></g></g><g id="ytick_4"><g id="line2d_9"><g><use style="stroke:#000;stroke-width:.8" x="54" y="118.571" xlink:href="#mc07a736a2d"/></g></g><g id="text_9"><g transform="translate(34.275 122.370128)scale(0.1 -0.1)"><use xlink:href="#DejaVuSans-50"/><use x="63.623" xlink:href="#DejaVuSans-48"/></g></g></g><g id="ytick_5"><g id="line2d_10"><g><use style="stroke:#000;stroke-width:.8" x="54" y="77.389" xlink:href="#mc07a736a2d"/></g></g><g id="text_10"><g transform="translate(34.275 81.18831)scale(0.1 -0.1)"><use xlink:href="#DejaVuSans-50"/><use x="63.623" xlink:href="#DejaVuSans-53"/></g></g></g><g id="ytick_6"><g id="line2d_11"><g><use style="stroke:#000;stroke-width:.8" x="54" y="36.207" xlink:href="#mc07a736a2d"/></g></g><g id="text_11"><g transform="translate(34.275 40.006491)scale(0.1 -0.1)"><use xlink:href="#DejaVuSans-51"/><use x="63.623" xlink:href="#DejaVuSans-48"/></g></g></g><g id="text_12"><defs><path id="DejaVuSans-68" d="M 19.671875 64.796875 L 19.671875 8.109375 L 31.59375 8.109375 Q 46.6875 8.109375 53.6875 14.9375 Q 60.6875 21.78125 60.6875 36.53125 Q 60.6875 51.171875 53.6875 57.984375 Q 46.6875 64.796875 31.59375 64.796875 z M 9.8125 72.90625 L 30.078125 72.90625 Q 51.265625 72.90625 61.171875 64.09375 Q 71.09375 55.28125 71.09375 36.53125 Q 71.09375 17.671875 61.125 8.828125 Q 51.171875 0 30.078125 0 L 9.8125 0 z"/><path id="DejaVuSans-105" d="M 9.421875 54.6875 L 18.40625 54.6875 L 18.40625 0 L 9.421875 0 z M 9.421875 75.984375 L 18.40625 75.984375 L 18.40625 64.59375 L 9.421875 64.59375 z"/><path id="DejaVuSans-97" d="M 34.28125 27.484375 Q 23.390625 27.484375 19.1875 25 Q 14.984375 22.515625 14.984375 16.5 Q 14.984375 11.71875 18.140625 8.90625 Q 21.296875 6.109375 26.703125 6.109375 Q 34.1875 6.109375 38.703125 11.40625 Q 43.21875 16.703125 43.21875 25.484375 L 43.21875 27.484375 z M 52.203125 31.203125 L 52.203125 0 L 43.21875 0 L 43.21875 8.296875 Q 40.140625 3.328125 35.546875 0.953125 Q 30.953125 -1.421875 24.3125 -1.421875 Q 15.921875 -1.421875 10.953125 3.296875 Q 6 8.015625 6 15.921875 Q 6 25.140625 12.171875 29.828125 Q 18.359375 34.515625 30.609375 34.515625 L 43.21875 34.515625 L 43.21875 35.40625 Q 43.21875 41.609375 39.140625 45 Q 35.0625 48.390625 27.6875 48.390625 Q 23 48.390625 18.546875 47.265625 Q 14.109375 46.140625 10.015625 43.890625 L 10.015625 52.203125 Q 14.9375 54.109375 19.578125 55.046875 Q 24.21875 56 28.609375 56 Q 40.484375 56 46.34375 49.84375 Q 52.203125 43.703125 52.203125 31.203125 z"/><path id="DejaVuSans-109" d="M 52 44.1875 Q 55.375 50.25 60.0625 53.125 Q 64.75 56 71.09375 56 Q 79.640625 56 84.28125 50.015625 Q 88.921875 44.046875 88.921875 33.015625 L 88.921875 0 L 79.890625 0 L 79.890625 32.71875 Q 79.890625 40.578125 77.09375 44.375 Q 74.3125 48.1875 68.609375 48.1875 Q 61.625 48.1875 57.5625 43.546875 Q 53.515625 38.921875 53.515625 30.90625 L 53.515625 0 L 44.484375 0 L 44.484375 32.71875 Q 44.484375 40.625 41.703125 44.40625 Q 38.921875 48.1875 33.109375 48.1875 Q 26.21875 48.1875 22.15625 43.53125 Q 18.109375 38.875 18.109375 30.90625 L 18.109375 0 L 9.078125 0 L 9.078125 54.6875 L 18.109375 54.6875 L 18.109375 46.1875 Q 21.1875 51.21875 25.484375 53.609375 Q 29.78125 56 35.6875 56 Q 41.65625 56 45.828125 52.96875 Q 50 49.953125 52 44.1875 z"/><path id="DejaVuSans-101" d="M 56.203125 29.59375 L 56.203125 25.203125 L 14.890625 25.203125 Q 15.484375 15.921875 20.484375 11.0625 Q 25.484375 6.203125 34.421875 6.203125 Q 39.59375 6.203125 44.453125 7.46875 Q 49.3125 8.734375 54.109375 11.28125 L 54.109375 2.78125 Q 49.265625 0.734375 44.1875 -0.34375 Q 39.109375 -1.421875 33.890625 -1.421875 Q 20.796875 -1.421875 13.15625 6.1875 Q 5.515625 13.8125 5.515625 26.8125 Q 5.515625 40.234375 12.765625 48.109375 Q 20.015625 56 32.328125 56 Q 43.359375 56 49.78125 48.890625 Q 56.203125 41.796875 56.203125 29.59375 z M 47.21875 32.234375 Q 47.125 39.59375 43.09375 43.984375 Q 39.0625 48.390625 32.421875 48.390625 Q 24.90625 48.390625 20.390625 44.140625 Q 15.875 39.890625 15.1875 32.171875 z"/><path id="DejaVuSans-116" d="M 18.3125 70.21875 L 18.3125 54.6875 L 36.8125 54.6875 L 36.8125 47.703125 L 18.3125 47.703125 L 18.3125 18.015625 Q 18.3125 11.328125 20.140625 9.421875 Q 21.96875 7.515625 27.59375 7.515625 L 36.8125 7.515625 L 36.8125 0 L 27.59375 0 Q 17.1875 0 13.234375 3.875 Q 9.28125 7.765625 9.28125 18.015625 L 9.28125 47.703125 L 2.6875 47.703125 L 2.6875 54.6875 L 9.28125 54.6875 L 9.28125 70.21875 z"/><path id="DejaVuSans-114" d="M 41.109375 46.296875 Q 39.59375 47.171875 37.8125 47.578125 Q 36.03125 48 33.890625 48 Q 26.265625 48 22.1875 43.046875 Q 18.109375 38.09375 18.109375 28.8125 L 18.109375 0 L 9.078125 0 L 9.078125 54.6875 L 18.109375 54.6875 L 18.109375 46.1875 Q 20.953125 51.171875 25.484375 53.578125 Q 30.03125 56 36.53125 56 Q 37.453125 56 38.578125 55.875 Q 39.703125 55.765625 41.0625 55.515625 z"/><path id="DejaVuSans-32"/><path id="DejaVuSans-40" d="M 31 75.875 Q 24.46875 64.65625 21.28125 53.65625 Q 18.109375 42.671875 18.109375 31.390625 Q 18.109375 20.125 21.3125 9.0625 Q 24.515625 -2 31 -13.1875 L 23.1875 -13.1875 Q 15.875 -1.703125 12.234375 9.375 Q 8.59375 20.453125 8.59375 31.390625 Q 8.59375 42.28125 12.203125 53.3125 Q 15.828125 64.359375 23.1875 75.875 z"/><path id="DejaVuSans-Oblique-956" d="M -1.3125 -20.796875 L 13.375 54.6875 L 22.40625 54.6875 L 15.765625 20.65625 Q 15.578125 19.625 15.421875 18.359375 Q 15.28125 17.09375 15.28125 15.828125 Q 15.28125 11.28125 18.140625 8.828125 Q 21 6.390625 26.3125 6.390625 Q 33.546875 6.390625 37.984375 10.484375 Q 42.4375 14.59375 44 22.796875 L 50.203125 54.6875 L 59.1875 54.6875 L 51.03125 12.640625 Q 50.828125 11.71875 50.75 11.03125 Q 50.6875 10.359375 50.6875 9.8125 Q 50.6875 8.296875 51.296875 7.59375 Q 51.90625 6.890625 53.21875 6.890625 Q 53.71875 6.890625 54.5625 7.125 Q 55.421875 7.375 56.984375 8.015625 L 55.609375 0.78125 Q 53.46875 -0.296875 51.515625 -0.859375 Q 49.5625 -1.421875 47.703125 -1.421875 Q 44.484375 -1.421875 42.65625 0.625 Q 40.828125 2.6875 40.828125 6.296875 Q 38.09375 2.390625 34.296875 0.484375 Q 30.515625 -1.421875 25.390625 -1.421875 Q 20.84375 -1.421875 17.453125 0.671875 Q 14.0625 2.78125 12.984375 6.203125 L 7.71875 -20.796875 z"/><path id="DejaVuSans-Oblique-109" d="M 89.796875 33.015625 L 83.40625 0 L 74.421875 0 L 80.71875 32.71875 Q 81.109375 34.8125 81.296875 36.328125 Q 81.5 37.84375 81.5 38.921875 Q 81.5 43.3125 79.046875 45.75 Q 76.609375 48.1875 72.21875 48.1875 Q 65.671875 48.1875 60.546875 43.28125 Q 55.421875 38.375 53.90625 30.515625 L 47.90625 0 L 38.921875 0 L 45.3125 32.71875 Q 45.703125 34.515625 45.890625 36.046875 Q 46.09375 37.59375 46.09375 38.8125 Q 46.09375 43.265625 43.65625 45.71875 Q 41.21875 48.1875 36.921875 48.1875 Q 30.28125 48.1875 25.140625 43.28125 Q 20.015625 38.375 18.5 30.515625 L 12.5 0 L 3.515625 0 L 14.203125 54.6875 L 23.1875 54.6875 L 21.484375 46.1875 Q 25.140625 50.984375 30.046875 53.484375 Q 34.96875 56 40.578125 56 Q 46.53125 56 50.359375 52.875 Q 54.203125 49.75 54.984375 44.1875 Q 59.078125 49.953125 64.46875 52.96875 Q 69.875 56 75.875 56 Q 82.90625 56 86.734375 51.953125 Q 90.578125 47.90625 90.578125 40.484375 Q 90.578125 38.875 90.375 36.9375 Q 90.1875 35.015625 89.796875 33.015625 z"/><path id="DejaVuSans-41" d="M 8.015625 75.875 L 15.828125 75.875 Q 23.140625 64.359375 26.78125 53.3125 Q 30.421875 42.28125 30.421875 31.390625 Q 30.421875 20.453125 26.78125 9.375 Q 23.140625 -1.703125 15.828125 -13.1875 L 8.015625 -13.1875 Q 14.5 -2 17.703125 9.0625 Q 20.90625 20.125 20.90625 31.390625 Q 20.90625 42.671875 17.703125 53.65625 Q 14.5 64.65625 8.015625 75.875 z"/></defs><g transform="translate(28.175 180.18)rotate(-90)scale(0.1 -0.1)"><use transform="translate(0 0.015625)" xlink:href="#DejaVuSans-68"/><use transform="translate(77.001953 0.015625)" xlink:href="#DejaVuSans-105"/><use transform="translate(104.785156 0.015625)" xlink:href="#DejaVuSans-97"/><use transform="translate(166.064453 0.015625)" xlink:href="#DejaVuSans-109"/><use transform="translate(263.476562 0.015625)" xlink:href="#DejaVuSans-101"/><use transform="translate(325 0.015625)" xlink:href="#DejaVuSans-116"/><use transform="translate(364.208984 0.015625)" xlink:href="#DejaVuSans-101"/><use transform="translate(425.732422 0.015625)" xlink:href="#DejaVuSans-114"/><use transform="translate(466.845703 0.015625)" xlink:href="#DejaVuSans-32"/><use transform="translate(498.632812 0.015625)" xlink:href="#DejaVuSans-40"/><use transform="translate(537.646484 0.015625)" xlink:href="#DejaVuSans-Oblique-956"/><use transform="translate(601.269531 0.015625)" xlink:href="#DejaVuSans-Oblique-109"/><use transform="translate(698.681641 0.015625)" xlink:href="#DejaVuSans-41"/></g></g></g><g id="LineCollection_1"><path d="M 77.672727 154.261818 L 94.581818 154.261818" clip-path="url(#p5e65d0b185)" style="fill:none;stroke:green;stroke-width:1.5"/><path d="M 145.309091 185.834545 L 162.218182 185.834545" clip-path="url(#p5e65d0b185)" style="fill:none;stroke:green;stroke-width:1.5"/><path d="M 212.945455 108.961818 L 229.854545 108.961818" clip-path="url(#p5e65d0b185)" style="fill:none;stroke:green;stroke-width:1.5"/><path d="M 280.581818 158.38 L 297.490909 158.38" clip-path="url(#p5e65d0b185)" style="fill:none;stroke:green;stroke-width:1.5"/><path d="M 348.218182 221.525455 L 365.127273 221.525455" clip-path="url(#p5e65d0b185)" style="fill:none;stroke:green;stroke-width:1.5"/></g><g id="LineCollection_2"><path d="M 77.672727 118.570909 L 94.581818 118.570909" clip-path="url(#p5e65d0b185)" style="fill:none;stroke:#1f77b4;stroke-width:1.5"/><path d="M 145.309091 135.043636 L 162.218182 135.043636" clip-path="url(#p5e65d0b185)" style="fill:none;stroke:#1f77b4;stroke-width:1.5"/><path d="M 212.945455 44.443636 L 229.854545 44.443636" clip-path="url(#p5e65d0b185)" style="fill:none;stroke:#1f77b4;stroke-width:1.5"/><path d="M 280.581818 135.043636 L 297.490909 135.043636" clip-path="url(#p5e65d0b185)" style="fill:none;stroke:#1f77b4;stroke-width:1.5"/><path d="M 348.218182 200.934545 L 365.127273 200.934545" clip-path="url(#p5e65d0b185)" style="fill:none;stroke:#1f77b4;stroke-width:1.5"/></g><g id="LineCollection_3"><path d="M 77.672727 184.461818 L 94.581818 184.461818" clip-path="url(#p5e65d0b185)" style="fill:none;stroke:#1f77b4;stroke-width:1.5"/><path d="M 145.309091 233.88 L 162.218182 233.88" clip-path="url(#p5e65d0b185)" style="fill:none;stroke:#1f77b4;stroke-width:1.5"/><path d="M 212.945455 192.698182 L 229.854545 192.698182" clip-path="url(#p5e65d0b185)" style="fill:none;stroke:#1f77b4;stroke-width:1.5"/><path d="M 280.581818 217.407273 L 297.490909 217.407273" clip-path="url(#p5e65d0b185)" style="fill:none;stroke:#1f77b4;stroke-width:1.5"/><path d="M 348.218182 242.116364 L 365.127273 242.116364" clip-path="url(#p5e65d0b185)" style="fill:none;stroke:#1f77b4;stroke-width:1.5"/></g><g id="LineCollection_4"><path d="M 86.127273 184.461818 L 86.127273 118.570909" clip-path="url(#p5e65d0b185)" style="fill:none;stroke:#1f77b4;stroke-width:1.5"/><path d="M 153.763636 233.88 L 153.763636 135.043636" clip-path="url(#p5e65d0b185)" style="fill:none;stroke:#1f77b4;stroke-width:1.5"/><path d="M 221.4 192.698182 L 221.4 44.443636" clip-path="url(#p5e65d0b185)" style="fill:none;stroke:#1f77b4;stroke-width:1.5"/><path d="M 289.036364 217.407273 L 289.036364 135.043636" clip-path="url(#p5e65d0b185)" style="fill:none;stroke:#1f77b4;stroke-width:1.5"/><path d="M 356.672727 242.116364 L 356.672727 200.934545" clip-path="url(#p5e65d0b185)" style="fill:none;stroke:#1f77b4;stroke-width:1.5"/></g><g id="LineCollection_5"><path d="M 77.672727 151.516364 L 94.581818 151.516364" clip-path="url(#p5e65d0b185)" style="fill:none;stroke:red;stroke-width:1.5"/><path d="M 145.309091 184.461818 L 162.218182 184.461818" clip-path="url(#p5e65d0b185)" style="fill:none;stroke:red;stroke-width:1.5"/><path d="M 212.945455 118.570909 L 229.854545 118.570909" clip-path="url(#p5e65d0b185)" style="fill:none;stroke:red;stroke-width:1.5"/><path d="M 280.581818 151.516364 L 297.490909 151.516364" clip-path="url(#p5e65d0b185)" style="fill:none;stroke:red;stroke-width:1.5"/><path d="M 348.218182 225.643636 L 365.127273 225.643636" clip-path="url(#p5e65d0b185)" style="fill:none;stroke:red;stroke-width:1.5"/></g><g id="patch_3"><path d="M 54 252 L 54 34.56" style="fill:none;stroke:#000;stroke-linecap:square;stroke-linejoin:miter;stroke-width:.8"/></g><g id="patch_4"><path d="M 388.8 252 L 388.8 34.56" style="fill:none;stroke:#000;stroke-linecap:square;stroke-linejoin:miter;stroke-width:.8"/></g><g id="patch_5"><path d="M 54 252 L 388.8 252" style="fill:none;stroke:#000;stroke-linecap:square;stroke-linejoin:miter;stroke-width:.8"/></g><g id="patch_6"><path d="M 54 34.56 L 388.8 34.56" style="fill:none;stroke:#000;stroke-linecap:square;stroke-linejoin:miter;stroke-width:.8"/></g></g></g><defs><clipPath id="p5e65d0b185"><rect width="334.8" height="217.44" x="54" y="34.56"/></clipPath></defs></svg>