<svg xmlns="http://www.w3.org/2000/svg" xmlns:xlink="http://www.w3.org/1999/xlink" width="576" height="384" version="1.1" viewBox="0 0 432 288"><defs><style type="text/css">*{stroke-linecap:butt;stroke-linejoin:round}</style></defs><g id="figure_1"><g id="patch_1"><path d="M 0 288 L 432 288 L 432 0 L 0 0 z" style="fill:#fff"/></g><g id="axes_1"><g id="patch_2"><path d="M 54 252 L 388.8 252 L 388.8 34.56 L 54 34.56 z" style="fill:#fff"/></g><g id="PolyCollection_1"><path d="M 87.795524 196.49958 L 84.459021 196.49958 L 84.45332 195.731621 L 84.454541 194.963662 L 84.461987 194.195702 L 84.474745 193.427743 L 84.491692 192.659784 L 84.511504 191.891825 L 84.532675 191.123865 L 84.553535 190.355906 L 84.572274 189.587947 L 84.586965 188.819987 L 84.595598 188.052028 L 84.596103 187.284069 L 84.586385 186.516109 L 84.564354 185.74815 L 84.527955 184.980191 L 84.475202 184.212231 L 84.404207 183.444272 L 84.313208 182.676313 L 84.200596 181.908353 L 84.064944 181.140394 L 83.905026 180.372435 L 83.719844 179.604476 L 83.508641 178.836516 L 83.270922 178.068557 L 83.006462 177.300598 L 82.715322 176.532638 L 82.397846 175.764679 L 82.054672 174.99672 L 81.686723 174.22876 L 81.295207 173.460801 L 80.881602 172.692842 L 80.447645 171.924882 L 79.995313 171.156923 L 79.526798 170.388964 L 79.04449 169.621004 L 78.550936 168.853045 L 78.048822 168.085086 L 77.540926 167.317127 L 77.030092 166.549167 L 76.51919 165.781208 L 76.011076 165.013249 L 75.508558 164.245289 L 75.014357 163.47733 L 74.531073 162.709371 L 74.06115 161.941411 L 73.606846 161.173452 L 73.170207 160.405493 L 72.753043 159.637533 L 72.356911 158.869574 L 71.983102 158.101615 L 71.632636 157.333655 L 71.306261 156.565696 L 71.004463 155.797737 L 70.727478 155.029777 L 70.475312 154.261818 L 70.247772 153.493859 L 70.044501 152.7259 L 69.865009 151.95794 L 69.708721 151.189981 L 69.575022 150.422022 L 69.463298 149.654062 L 69.372982 148.886103 L 69.303593 148.118144 L 69.254774 147.350184 L 69.226316 146.582225 L 69.218182 145.814266 L 69.230515 145.046306 L 69.263638 144.278347 L 69.318043 143.510388 L 69.394369 142.742428 L 69.493369 141.974469 L 69.61587 141.20651 L 69.762722 140.438551 L 69.934749 139.670591 L 70.132688 138.902632 L 70.357135 138.134673 L 70.608491 137.366713 L 70.886913 136.598754 L 71.192274 135.830795 L 71.52413 135.062835 L 71.881698 134.294876 L 72.263851 133.526917 L 72.669116 132.758957 L 73.095696 131.990998 L 73.541492 131.223039 L 74.004142 130.455079 L 74.481067 129.68712 L 74.969521 128.919161 L 75.466647 128.151202 L 75.969535 127.383242 L 76.47528 126.615283 L 76.981029 125.847324 L 77.484042 125.079364 L 77.981723 124.311405 L 78.471665 123.543446 L 78.951673 122.775486 L 79.419787 122.007527 L 79.874294 121.239568 L 80.31373 120.471608 L 91.940816 120.471608 L 91.940816 120.471608 L 92.380251 121.239568 L 92.834758 122.007527 L 93.302872 122.775486 L 93.782881 123.543446 L 94.272822 124.311405 L 94.770504 125.079364 L 95.273516 125.847324 L 95.779266 126.615283 L 96.28501 127.383242 L 96.787899 128.151202 L 97.285025 128.919161 L 97.773478 129.68712 L 98.250403 130.455079 L 98.713054 131.223039 L 99.15885 131.990998 L 99.58543 132.758957 L 99.990695 133.526917 L 100.372847 134.294876 L 100.730415 135.062835 L 101.062271 135.830795 L 101.367632 136.598754 L 101.646055 137.366713 L 101.897411 138.134673 L 102.121858 138.902632 L 102.319796 139.670591 L 102.491823 140.438551 L 102.638676 141.20651 L 102.761176 141.974469 L 102.860177 142.742428 L 102.936503 143.510388 L 102.990908 144.278347 L 103.024031 145.046306 L 103.036364 145.814266 L 103.02823 146.582225 L 102.999772 147.350184 L 102.950952 148.118144 L 102.881563 148.886103 L 102.791247 149.654062 L 102.679523 150.422022 L 102.545824 151.189981 L 102.389537 151.95794 L 102.210045 152.7259 L 102.006773 153.493859 L 101.779234 154.261818 L 101.527068 155.029777 L 101.250082 155.797737 L 100.948284 156.565696 L 100.621909 157.333655 L 100.271443 158.101615 L 99.897634 158.869574 L 99.501502 159.637533 L 99.084338 160.405493 L 98.647699 161.173452 L 98.193395 161.941411 L 97.723472 162.709371 L 97.240188 163.47733 L 96.745987 164.245289 L 96.243469 165.013249 L 95.735356 165.781208 L 95.224453 166.549167 L 94.71362 167.317127 L 94.205724 168.085086 L 93.703609 168.853045 L 93.210056 169.621004 L 92.727747 170.388964 L 92.259233 171.156923 L 91.8069 171.924882 L 91.372943 172.692842 L 90.959338 173.460801 L 90.567822 174.22876 L 90.199874 174.99672 L 89.856699 175.764679 L 89.539224 176.532638 L 89.248083 177.300598 L 88.983624 178.068557 L 88.745905 178.836516 L 88.534702 179.604476 L 88.349519 180.372435 L 88.189602 181.140394 L 88.053949 181.908353 L 87.941337 182.676313 L 87.850338 183.444272 L 87.779343 184.212231 L 87.726591 184.980191 L 87.690192 185.74815 L 87.66816 186.516109 L 87.658442 187.284069 L 87.658947 188.052028 L 87.66758 188.819987 L 87.682272 189.587947 L 87.701011 190.355906 L 87.721871 191.123865 L 87.743042 191.891825 L 87.762854 192.659784 L 87.7798 193.427743 L 87.792559 194.195702 L 87.800005 194.963662 L 87.801225 195.731621 L 87.795524 196.49958 z" clip-path="url(#p61c18482b9)" style="fill:#1f77b4;fill-opacity:.3"/></g><g id="PolyCollection_2"><path d="M 159.043261 173.691189 L 148.484012 173.691189 L 148.236432 173.153617 L 147.987823 172.616046 L 147.738722 172.078474 L 147.489642 171.540903 L 147.241064 171.003331 L 146.993433 170.46576 L 146.747157 169.928188 L 146.502596 169.390617 L 146.260066 168.853045 L 146.019834 168.315474 L 145.782115 167.777902 L 145.547074 167.240331 L 145.314825 166.702759 L 145.085435 166.165188 L 144.858921 165.627616 L 144.635257 165.090045 L 144.414376 164.552473 L 144.196174 164.014901 L 143.980514 163.47733 L 143.767232 162.939758 L 143.556141 162.402187 L 143.347038 161.864615 L 143.139707 161.327044 L 142.933928 160.789472 L 142.729478 160.251901 L 142.52614 159.714329 L 142.323704 159.176758 L 142.121976 158.639186 L 141.920781 158.101615 L 141.719963 157.564043 L 141.519395 157.026472 L 141.31898 156.4889 L 141.118653 155.951329 L 140.918387 155.413757 L 140.718193 154.876186 L 140.518125 154.338614 L 140.318285 153.801043 L 140.118821 153.263471 L 139.919933 152.7259 L 139.721878 152.188328 L 139.524968 151.650757 L 139.329576 151.113185 L 139.136138 150.575613 L 138.945156 150.038042 L 138.757196 149.50047 L 138.572895 148.962899 L 138.392955 148.425327 L 138.218146 147.887756 L 138.049304 147.350184 L 137.887326 146.812613 L 137.733166 146.275041 L 137.587829 145.73747 L 137.452363 145.199898 L 137.327848 144.662327 L 137.215386 144.124755 L 137.116087 143.587184 L 137.031054 143.049612 L 136.961369 142.512041 L 136.908077 141.974469 L 136.872164 141.436898 L 136.854545 140.899326 L 136.856044 140.361755 L 136.877374 139.824183 L 136.91913 139.286612 L 136.981766 138.74904 L 137.065587 138.211469 L 137.170738 137.673897 L 137.297199 137.136325 L 137.444776 136.598754 L 137.613108 136.061182 L 137.801659 135.523611 L 138.009735 134.986039 L 138.236483 134.448468 L 138.480911 133.910896 L 138.741899 133.373325 L 139.018217 132.835753 L 139.308546 132.298182 L 139.611498 131.76061 L 139.925638 131.223039 L 140.249508 130.685467 L 140.581646 130.147896 L 140.920612 129.610324 L 141.265007 129.072753 L 141.613487 128.535181 L 141.964787 127.99761 L 142.317725 127.460038 L 142.671222 126.922467 L 143.024302 126.384895 L 143.376101 125.847324 L 143.725864 125.309752 L 144.072949 124.772181 L 144.416814 124.234609 L 144.757019 123.697038 L 145.093208 123.159466 L 145.425107 122.621894 L 145.752502 122.084323 L 146.075235 121.546751 L 146.393186 121.00918 L 146.706262 120.471608 L 160.821011 120.471608 L 160.821011 120.471608 L 161.134086 121.00918 L 161.452038 121.546751 L 161.774771 122.084323 L 162.102166 122.621894 L 162.434064 123.159466 L 162.770254 123.697038 L 163.110459 124.234609 L 163.454324 124.772181 L 163.801408 125.309752 L 164.151172 125.847324 L 164.502971 126.384895 L 164.856051 126.922467 L 165.209548 127.460038 L 165.562486 127.99761 L 165.913785 128.535181 L 166.262266 129.072753 L 166.60666 129.610324 L 166.945627 130.147896 L 167.277765 130.685467 L 167.601634 131.223039 L 167.915774 131.76061 L 168.218726 132.298182 L 168.509055 132.835753 L 168.785374 133.373325 L 169.046362 133.910896 L 169.29079 134.448468 L 169.517538 134.986039 L 169.725614 135.523611 L 169.914165 136.061182 L 170.082496 136.598754 L 170.230074 137.136325 L 170.356535 137.673897 L 170.461686 138.211469 L 170.545507 138.74904 L 170.608143 139.286612 L 170.649898 139.824183 L 170.671229 140.361755 L 170.672727 140.899326 L 170.655108 141.436898 L 170.619196 141.974469 L 170.565903 142.512041 L 170.496219 143.049612 L 170.411186 143.587184 L 170.311887 144.124755 L 170.199424 144.662327 L 170.074909 145.199898 L 169.939444 145.73747 L 169.794107 146.275041 L 169.639947 146.812613 L 169.477969 147.350184 L 169.309127 147.887756 L 169.134318 148.425327 L 168.954378 148.962899 L 168.770076 149.50047 L 168.582117 150.038042 L 168.391134 150.575613 L 168.197697 151.113185 L 168.002305 151.650757 L 167.805395 152.188328 L 167.607339 152.7259 L 167.408452 153.263471 L 167.208988 153.801043 L 167.009147 154.338614 L 166.80908 154.876186 L 166.608886 155.413757 L 166.40862 155.951329 L 166.208293 156.4889 L 166.007878 157.026472 L 165.80731 157.564043 L 165.606492 158.101615 L 165.405296 158.639186 L 165.203569 159.176758 L 165.001133 159.714329 L 164.797794 160.251901 L 164.593345 160.789472 L 164.387565 161.327044 L 164.180235 161.864615 L 163.971132 162.402187 L 163.760041 162.939758 L 163.546759 163.47733 L 163.331099 164.014901 L 163.112896 164.552473 L 162.892015 165.090045 L 162.668352 165.627616 L 162.441838 166.165188 L 162.212447 166.702759 L 161.980199 167.240331 L 161.745158 167.777902 L 161.507439 168.315474 L 161.267207 168.853045 L 161.024677 169.390617 L 160.780116 169.928188 L 160.53384 170.46576 L 160.286209 171.003331 L 160.037631 171.540903 L 159.78855 172.078474 L 159.53945 172.616046 L 159.290841 173.153617 L 159.043261 173.691189 z" clip-path="url(#p61c18482b9)" style="fill:#1f77b4;fill-opacity:.3"/></g><g id="PolyCollection_3"><path d="M 223.646598 196.49958 L 219.153402 196.49958 L 219.084945 194.963662 L 219.016854 193.427743 L 218.948546 191.891825 L 218.87935 190.355906 L 218.808516 188.819987 L 218.735224 187.284069 L 218.658598 185.74815 L 218.577722 184.212231 L 218.491654 182.676313 L 218.39944 181.140394 L 218.300131 179.604476 L 218.192798 178.068557 L 218.076549 176.532638 L 217.950539 174.99672 L 217.813987 173.460801 L 217.666185 171.924882 L 217.506511 170.388964 L 217.334437 168.853045 L 217.149535 167.317127 L 216.951485 165.781208 L 216.74008 164.245289 L 216.51523 162.709371 L 216.276961 161.173452 L 216.02542 159.637533 L 215.760873 158.101615 L 215.483702 156.565696 L 215.194408 155.029777 L 214.893604 153.493859 L 214.582011 151.95794 L 214.260454 150.422022 L 213.929858 148.886103 L 213.591234 147.350184 L 213.245679 145.814266 L 212.894361 144.278347 L 212.538509 142.742428 L 212.179403 141.20651 L 211.818359 139.670591 L 211.456717 138.134673 L 211.095825 136.598754 L 210.737022 135.062835 L 210.381625 133.526917 L 210.030912 131.990998 L 209.686107 130.455079 L 209.34836 128.919161 L 209.018742 127.383242 L 208.698223 125.847324 L 208.387669 124.311405 L 208.087826 122.775486 L 207.799321 121.239568 L 207.522654 119.703649 L 207.258201 118.16773 L 207.006215 116.631812 L 206.766834 115.095893 L 206.540091 113.559975 L 206.325925 112.024056 L 206.1242 110.488137 L 205.93472 108.952219 L 205.75725 107.4163 L 205.591542 105.880381 L 205.437349 104.344463 L 205.294456 102.808544 L 205.162698 101.272626 L 205.041981 99.736707 L 204.932302 98.200788 L 204.833763 96.66487 L 204.746587 95.128951 L 204.671122 93.593032 L 204.607853 92.057114 L 204.557395 90.521195 L 204.520492 88.985277 L 204.498007 87.449358 L 204.490909 85.913439 L 204.500254 84.377521 L 204.527161 82.841602 L 204.572792 81.305683 L 204.638315 79.769765 L 204.724883 78.233846 L 204.833594 76.697928 L 204.965464 75.162009 L 205.121394 73.62609 L 205.302139 72.090172 L 205.50828 70.554253 L 205.740197 69.018334 L 205.99805 67.482416 L 206.281759 65.946497 L 206.590994 64.410579 L 206.925161 62.87466 L 207.283407 61.338741 L 207.664618 59.802823 L 208.067426 58.266904 L 208.490225 56.730985 L 208.931191 55.195067 L 209.388297 53.659148 L 209.859347 52.123229 L 210.342001 50.587311 L 210.833809 49.051392 L 211.332243 47.515474 L 211.834734 45.979555 L 212.338705 44.443636 L 230.461295 44.443636 L 230.461295 44.443636 L 230.965266 45.979555 L 231.467757 47.515474 L 231.966191 49.051392 L 232.457999 50.587311 L 232.940653 52.123229 L 233.411703 53.659148 L 233.868809 55.195067 L 234.309775 56.730985 L 234.732574 58.266904 L 235.135382 59.802823 L 235.516593 61.338741 L 235.874839 62.87466 L 236.209006 64.410579 L 236.518241 65.946497 L 236.80195 67.482416 L 237.059803 69.018334 L 237.29172 70.554253 L 237.497861 72.090172 L 237.678606 73.62609 L 237.834536 75.162009 L 237.966406 76.697928 L 238.075117 78.233846 L 238.161685 79.769765 L 238.227208 81.305683 L 238.272839 82.841602 L 238.299746 84.377521 L 238.309091 85.913439 L 238.301993 87.449358 L 238.279508 88.985277 L 238.242605 90.521195 L 238.192147 92.057114 L 238.128878 93.593032 L 238.053413 95.128951 L 237.966237 96.66487 L 237.867698 98.200788 L 237.758019 99.736707 L 237.637302 101.272626 L 237.505544 102.808544 L 237.362651 104.344463 L 237.208458 105.880381 L 237.04275 107.4163 L 236.86528 108.952219 L 236.6758 110.488137 L 236.474075 112.024056 L 236.259909 113.559975 L 236.033166 115.095893 L 235.793785 116.631812 L 235.541799 118.16773 L 235.277346 119.703649 L 235.000679 121.239568 L 234.712174 122.775486 L 234.412331 124.311405 L 234.101777 125.847324 L 233.781258 127.383242 L 233.45164 128.919161 L 233.113893 130.455079 L 232.769088 131.990998 L 232.418375 133.526917 L 232.062978 135.062835 L 231.704175 136.598754 L 231.343283 138.134673 L 230.981641 139.670591 L 230.620597 141.20651 L 230.261491 142.742428 L 229.905639 144.278347 L 229.554321 145.814266 L 229.208766 147.350184 L 228.870142 148.886103 L 228.539546 150.422022 L 228.217989 151.95794 L 227.906396 153.493859 L 227.605592 155.029777 L 227.316298 156.565696 L 227.039127 158.101615 L 226.77458 159.637533 L 226.523039 161.173452 L 226.28477 162.709371 L 226.05992 164.245289 L 225.848515 165.781208 L 225.650465 167.317127 L 225.465563 168.853045 L 225.293489 170.388964 L 225.133815 171.924882 L 224.986013 173.460801 L 224.849461 174.99672 L 224.723451 176.532638 L 224.607202 178.068557 L 224.499869 179.604476 L 224.40056 181.140394 L 224.308346 182.676313 L 224.222278 184.212231 L 224.141402 185.74815 L 224.064776 187.284069 L 223.991484 188.819987 L 223.92065 190.355906 L 223.851454 191.891825 L 223.783146 193.427743 L 223.715055 194.963662 L 223.646598 196.49958 z" clip-path="url(#p61c18482b9)" style="fill:#1f77b4;fill-opacity:.3"/></g><g id="PolyCollection_4"><path d="M 301.921509 158.485594 L 276.151218 158.485594 L 275.796906 158.101615 L 275.455358 157.717635 L 275.127567 157.333655 L 274.81444 156.949676 L 274.516793 156.565696 L 274.235347 156.181716 L 273.970726 155.797737 L 273.723447 155.413757 L 273.493926 155.029777 L 273.282471 154.645798 L 273.089285 154.261818 L 272.914463 153.877839 L 272.757998 153.493859 L 272.619778 153.109879 L 272.499594 152.7259 L 272.397144 152.34192 L 272.312032 151.95794 L 272.24378 151.573961 L 272.191834 151.189981 L 272.155569 150.806001 L 272.134295 150.422022 L 272.127273 150.038042 L 272.133715 149.654062 L 272.152801 149.270083 L 272.183683 148.886103 L 272.225501 148.502123 L 272.277388 148.118144 L 272.338481 147.734164 L 272.407935 147.350184 L 272.484927 146.966205 L 272.56867 146.582225 L 272.658419 146.198245 L 272.75348 145.814266 L 272.853217 145.430286 L 272.957057 145.046306 L 273.064496 144.662327 L 273.175103 144.278347 L 273.288523 143.894367 L 273.404475 143.510388 L 273.522756 143.126408 L 273.643235 142.742428 L 273.765854 142.358449 L 273.890621 141.974469 L 274.017606 141.59049 L 274.146932 141.20651 L 274.278771 140.82253 L 274.41333 140.438551 L 274.550847 140.054571 L 274.691577 139.670591 L 274.835785 139.286612 L 274.983733 138.902632 L 275.135671 138.518652 L 275.291829 138.134673 L 275.452404 137.750693 L 275.617553 137.366713 L 275.787389 136.982734 L 275.961967 136.598754 L 276.141287 136.214774 L 276.325284 135.830795 L 276.513831 135.446815 L 276.706732 135.062835 L 276.903728 134.678856 L 277.104498 134.294876 L 277.308662 133.910896 L 277.515786 133.526917 L 277.725389 133.142937 L 277.936951 132.758957 L 278.149923 132.374978 L 278.363731 131.990998 L 278.577794 131.607018 L 278.791526 131.223039 L 279.004353 130.839059 L 279.21572 130.455079 L 279.425101 130.0711 L 279.632008 129.68712 L 279.836002 129.30314 L 280.036698 128.919161 L 280.23377 128.535181 L 280.426961 128.151202 L 280.616083 127.767222 L 280.801019 127.383242 L 280.981725 126.999263 L 281.15823 126.615283 L 281.33063 126.231303 L 281.49909 125.847324 L 281.663833 125.463344 L 281.825138 125.079364 L 281.983331 124.695385 L 282.138778 124.311405 L 282.291873 123.927425 L 282.443034 123.543446 L 282.592688 123.159466 L 282.741265 122.775486 L 282.889188 122.391507 L 283.03686 122.007527 L 283.184662 121.623547 L 283.332939 121.239568 L 283.481996 120.855588 L 283.632092 120.471608 L 294.440636 120.471608 L 294.440636 120.471608 L 294.590731 120.855588 L 294.739788 121.239568 L 294.888065 121.623547 L 295.035867 122.007527 L 295.18354 122.391507 L 295.331462 122.775486 L 295.480039 123.159466 L 295.629693 123.543446 L 295.780854 123.927425 L 295.93395 124.311405 L 296.089396 124.695385 L 296.247589 125.079364 L 296.408895 125.463344 L 296.573638 125.847324 L 296.742097 126.231303 L 296.914497 126.615283 L 297.091002 126.999263 L 297.271708 127.383242 L 297.456644 127.767222 L 297.645766 128.151202 L 297.838957 128.535181 L 298.03603 128.919161 L 298.236725 129.30314 L 298.440719 129.68712 L 298.647626 130.0711 L 298.857007 130.455079 L 299.068374 130.839059 L 299.281201 131.223039 L 299.494934 131.607018 L 299.708996 131.990998 L 299.922805 132.374978 L 300.135776 132.758957 L 300.347339 133.142937 L 300.556942 133.526917 L 300.764065 133.910896 L 300.968229 134.294876 L 301.168999 134.678856 L 301.365996 135.062835 L 301.558896 135.446815 L 301.747443 135.830795 L 301.93144 136.214774 L 302.11076 136.598754 L 302.285339 136.982734 L 302.455174 137.366713 L 302.620323 137.750693 L 302.780898 138.134673 L 302.937056 138.518652 L 303.088994 138.902632 L 303.236942 139.286612 L 303.38115 139.670591 L 303.52188 140.054571 L 303.659397 140.438551 L 303.793956 140.82253 L 303.925795 141.20651 L 304.055121 141.59049 L 304.182106 141.974469 L 304.306873 142.358449 L 304.429492 142.742428 L 304.549971 143.126408 L 304.668252 143.510388 L 304.784204 143.894367 L 304.897624 144.278347 L 305.008231 144.662327 L 305.115671 145.046306 L 305.219511 145.430286 L 305.319247 145.814266 L 305.414308 146.198245 L 305.504058 146.582225 L 305.587801 146.966205 L 305.664793 147.350184 L 305.734246 147.734164 L 305.795339 148.118144 L 305.847226 148.502123 L 305.889044 148.886103 L 305.919927 149.270083 L 305.939012 149.654062 L 305.945455 150.038042 L 305.938432 150.422022 L 305.917159 150.806001 L 305.880893 151.189981 L 305.828947 151.573961 L 305.760696 151.95794 L 305.675584 152.34192 L 305.573133 152.7259 L 305.452949 153.109879 L 305.31473 153.493859 L 305.158264 153.877839 L 304.983442 154.261818 L 304.790256 154.645798 L 304.578801 155.029777 L 304.34928 155.413757 L 304.102001 155.797737 L 303.83738 156.181716 L 303.555935 156.565696 L 303.258288 156.949676 L 302.94516 157.333655 L 302.617369 157.717635 L 302.275822 158.101615 L 301.921509 158.485594 z" clip-path="url(#p61c18482b9)" style="fill:#1f77b4;fill-opacity:.3"/></g><g id="PolyCollection_5"><path d="M 364.274824 242.116364 L 349.070631 242.116364 L 348.69968 241.655588 L 348.329116 241.194812 L 347.960404 240.734037 L 347.595007 240.273261 L 347.234369 239.812486 L 346.879897 239.35171 L 346.532939 238.890935 L 346.194766 238.430159 L 345.866556 237.969383 L 345.549373 237.508608 L 345.244154 237.047832 L 344.951695 236.587057 L 344.67264 236.126281 L 344.407471 235.665505 L 344.156504 235.20473 L 343.919886 234.743954 L 343.697597 234.283179 L 343.489449 233.822403 L 343.2951 233.361627 L 343.114058 232.900852 L 342.945698 232.440076 L 342.789277 231.979301 L 342.643951 231.518525 L 342.508793 231.05775 L 342.382818 230.596974 L 342.265002 230.136198 L 342.154305 229.675423 L 342.04969 229.214647 L 341.950151 228.753872 L 341.854725 228.293096 L 341.762513 227.83232 L 341.672698 227.371545 L 341.584556 226.910769 L 341.497465 226.449994 L 341.410916 225.989218 L 341.324519 225.528442 L 341.237997 225.067667 L 341.151195 224.606891 L 341.064069 224.146116 L 340.97668 223.68534 L 340.889191 223.224565 L 340.80185 222.763789 L 340.714983 222.303013 L 340.62898 221.842238 L 340.544282 221.381462 L 340.461367 220.920687 L 340.38074 220.459911 L 340.302921 219.999135 L 340.22843 219.53836 L 340.157786 219.077584 L 340.091493 218.616809 L 340.030036 218.156033 L 339.97388 217.695257 L 339.923466 217.234482 L 339.879212 216.773706 L 339.841512 216.312931 L 339.810745 215.852155 L 339.787274 215.39138 L 339.771454 214.930604 L 339.763636 214.469828 L 339.764177 214.009053 L 339.773438 213.548277 L 339.791797 213.087502 L 339.819649 212.626726 L 339.85741 212.16595 L 339.905519 211.705175 L 339.964436 211.244399 L 340.034643 210.783624 L 340.116641 210.322848 L 340.210938 209.862072 L 340.318051 209.401297 L 340.43849 208.940521 L 340.572752 208.479746 L 340.721308 208.01897 L 340.884592 207.558195 L 341.062986 207.097419 L 341.256811 206.636643 L 341.466313 206.175868 L 341.691647 205.715092 L 341.932874 205.254317 L 342.189947 204.793541 L 342.462701 204.332765 L 342.750852 203.87199 L 343.053989 203.411214 L 343.371576 202.950439 L 343.702947 202.489663 L 344.047315 202.028887 L 344.403773 201.568112 L 344.771304 201.107336 L 345.148786 200.646561 L 345.535008 200.185785 L 345.928682 199.72501 L 346.328452 199.264234 L 346.732915 198.803458 L 347.140634 198.342683 L 347.550152 197.881907 L 347.960012 197.421132 L 348.36877 196.960356 L 348.775009 196.49958 L 364.570445 196.49958 L 364.570445 196.49958 L 364.976685 196.960356 L 365.385442 197.421132 L 365.795303 197.881907 L 366.204821 198.342683 L 366.61254 198.803458 L 367.017003 199.264234 L 367.416773 199.72501 L 367.810446 200.185785 L 368.196669 200.646561 L 368.574151 201.107336 L 368.941681 201.568112 L 369.298139 202.028887 L 369.642508 202.489663 L 369.973879 202.950439 L 370.291465 203.411214 L 370.594603 203.87199 L 370.882754 204.332765 L 371.155508 204.793541 L 371.41258 205.254317 L 371.653808 205.715092 L 371.879142 206.175868 L 372.088643 206.636643 L 372.282468 207.097419 L 372.460863 207.558195 L 372.624147 208.01897 L 372.772703 208.479746 L 372.906965 208.940521 L 373.027404 209.401297 L 373.134517 209.862072 L 373.228814 210.322848 L 373.310811 210.783624 L 373.381019 211.244399 L 373.439936 211.705175 L 373.488045 212.16595 L 373.525806 212.626726 L 373.553658 213.087502 L 373.572017 213.548277 L 373.581278 214.009053 L 373.581818 214.469828 L 373.574001 214.930604 L 373.558181 215.39138 L 373.53471 215.852155 L 373.503943 216.312931 L 373.466243 216.773706 L 373.421988 217.234482 L 373.371574 217.695257 L 373.315418 218.156033 L 373.253962 218.616809 L 373.187668 219.077584 L 373.117024 219.53836 L 373.042534 219.999135 L 372.964714 220.459911 L 372.884088 220.920687 L 372.801173 221.381462 L 372.716474 221.842238 L 372.630471 222.303013 L 372.543605 222.763789 L 372.456264 223.224565 L 372.368774 223.68534 L 372.281386 224.146116 L 372.194259 224.606891 L 372.107457 225.067667 L 372.020936 225.528442 L 371.934538 225.989218 L 371.84799 226.449994 L 371.760899 226.910769 L 371.672756 227.371545 L 371.582941 227.83232 L 371.49073 228.293096 L 371.395303 228.753872 L 371.295764 229.214647 L 371.19115 229.675423 L 371.080452 230.136198 L 370.962636 230.596974 L 370.836661 231.05775 L 370.701504 231.518525 L 370.556177 231.979301 L 370.399756 232.440076 L 370.231397 232.900852 L 370.050355 233.361627 L 369.856005 233.822403 L 369.647858 234.283179 L 369.425568 234.743954 L 369.188951 235.20473 L 368.937984 235.665505 L 368.672815 236.126281 L 368.393759 236.587057 L 368.1013 237.047832 L 367.796081 237.508608 L 367.478898 237.969383 L 367.150688 238.430159 L 366.812516 238.890935 L 366.465558 239.35171 L 366.111085 239.812486 L 365.750448 240.273261 L 365.38505 240.734037 L 365.016338 241.194812 L 364.645775 241.655588 L 364.274824 242.116364 z" clip-path="url(#p61c18482b9)" style="fill:#1f77b4;fill-opacity:.3"/></g><g id="matplotlib.axis_1"><g id="xtick_1"><g id="line2d_1"><defs><path id="mc16b027d7d" d="M 0 0 L 0 3.5" style="stroke:#000;stroke-width:.8"/></defs><g><use style="stroke:#000;stroke-width:.8" x="86.127" y="252" xlink:href="#mc16b027d7d"/></g></g><g id="text_1"><defs><path id="DejaVuSans-49" d="M 12.40625 8.296875 L 28.515625 8.296875 L 28.515625 63.921875 L 10.984375 60.40625 L 10.984375 69.390625 L 28.421875 72.90625 L 38.28125 72.90625 L 38.28125 8.296875 L 54.390625 8.296875 L 54.390625 0 L 12.40625 0 z"/></defs><g transform="translate(82.946023 266.598437)scale(0.1 -0.1)"><use xlink:href="#DejaVuSans-49"/></g></g></g><g id="xtick_2"><g id="line2d_2"><g><use style="stroke:#000;stroke-width:.8" x="153.764" y="252" xlink:href="#mc16b027d7d"/></g></g><g id="text_2"><defs><path id="DejaVuSans-50" d="M 19.1875 8.296875 L 53.609375 8.296875 L 53.609375 0 L 7.328125 0 L 7.328125 8.296875 Q 12.9375 14.109375 22.625 23.890625 Q 32.328125 33.6875 34.8125 36.53125 Q 39.546875 41.84375 41.421875 45.53125 Q 43.3125 49.21875 43.3125 52.78125 Q 43.3125 58.59375 39.234375 62.25 Q 35.15625 65.921875 28.609375 65.921875 Q 23.96875 65.921875 18.8125 64.3125 Q 13.671875 62.703125 7.8125 59.421875 L 7.8125 69.390625 Q 13.765625 71.78125 18.9375 73 Q 24.125 74.21875 28.421875 74.21875 Q 39.75 74.21875 46.484375 68.546875 Q 53.21875 62.890625 53.21875 53.421875 Q 53.21875 48.921875 51.53125 44.890625 Q 49.859375 40.875 45.40625 35.40625 Q 44.1875 33.984375 37.640625 27.21875 Q 31.109375 20.453125 19.1875 8.296875 z"/></defs><g transform="translate(150.582386 266.598437)scale(0.1 -0.1)"><use xlink:href="#DejaVuSans-50"/></g></g></g><g id="xtick_3"><g id="line2d_3"><g><use style="stroke:#000;stroke-width:.8" x="221.4" y="252" xlink:href="#mc16b027d7d"/></g></g><g id="text_3"><defs><path id="DejaVuSans-51" d="M 40.578125 39.3125 Q 47.65625 37.796875 51.625 33 Q 55.609375 28.21875 55.609375 21.1875 Q 55.609375 10.40625 48.1875 4.484375 Q 40.765625 -1.421875 27.09375 -1.421875 Q 22.515625 -1.421875 17.65625 -0.515625 Q 12.796875 0.390625 7.625 2.203125 L 7.625 11.71875 Q 11.71875 9.328125 16.59375 8.109375 Q 21.484375 6.890625 26.8125 6.890625 Q 36.078125 6.890625 40.9375 10.546875 Q 45.796875 14.203125 45.796875 21.1875 Q 45.796875 27.640625 41.28125 31.265625 Q 36.765625 34.90625 28.71875 34.90625 L 20.21875 34.90625 L 20.21875 43.015625 L 29.109375 43.015625 Q 36.375 43.015625 40.234375 45.921875 Q 44.09375 48.828125 44.09375 54.296875 Q 44.09375 59.90625 40.109375 62.90625 Q 36.140625 65.921875 28.71875 65.921875 Q 24.65625 65.921875 20.015625 65.03125 Q 15.375 64.15625 9.8125 62.3125 L 9.8125 71.09375 Q 15.4375 72.65625 20.34375 73.4375 Q 25.25 74.21875 29.59375 74.21875 Q 40.828125 74.21875 47.359375 69.109375 Q 53.90625 64.015625 53.90625 55.328125 Q 53.90625 49.265625 50.4375 45.09375 Q 46.96875 40.921875 40.578125 39.3125 z"/></defs><g transform="translate(218.21875 266.598437)scale(0.1 -0.1)"><use xlink:href="#DejaVuSans-51"/></g></g></g><g id="xtick_4"><g id="line2d_4"><g><use style="stroke:#000;stroke-width:.8" x="289.036" y="252" xlink:href="#mc16b027d7d"/></g></g><g id="text_4"><defs><path id="DejaVuSans-52" d="M 37.796875 64.3125 L 12.890625 25.390625 L 37.796875 25.390625 z M 35.203125 72.90625 L 47.609375 72.90625 L 47.609375 25.390625 L 58.015625 25.390625 L 58.015625 17.1875 L 47.609375 17.1875 L 47.609375 0 L 37.796875 0 L 37.796875 17.1875 L 4.890625 17.1875 L 4.890625 26.703125 z"/></defs><g transform="translate(285.855114 266.598437)scale(0.1 -0.1)"><use xlink:href="#DejaVuSans-52"/></g></g></g><g id="xtick_5"><g id="line2d_5"><g><use style="stroke:#000;stroke-width:.8" x="356.673" y="252" xlink:href="#mc16b027d7d"/></g></g><g id="text_5"><defs><path id="DejaVuSans-53" d="M 10.796875 72.90625 L 49.515625 72.90625 L 49.515625 64.59375 L 19.828125 64.59375 L 19.828125 46.734375 Q 21.96875 47.46875 24.109375 47.828125 Q 26.265625 48.1875 28.421875 48.1875 Q 40.625 48.1875 47.75 41.5 Q 54.890625 34.8125 54.890625 23.390625 Q 54.890625 11.625 47.5625 5.09375 Q 40.234375 -1.421875 26.90625 -1.421875 Q 22.3125 -1.421875 17.546875 -0.640625 Q 12.796875 0.140625 7.71875 1.703125 L 7.71875 11.625 Q 12.109375 9.234375 16.796875 8.0625 Q 21.484375 6.890625 26.703125 6.890625 Q 35.15625 6.890625 40.078125 11.328125 Q 45.015625 15.765625 45.015625 23.390625 Q 45.015625 31 40.078125 35.4375 Q 35.15625 39.890625 26.703125 39.890625 Q 22.75 39.890625 18.8125 39.015625 Q 14.890625 38.140625 10.796875 36.28125 z"/></defs><g transform="translate(353.491477 266.598437)scale(0.1 -0.1)"><use xlink:href="#DejaVuSans-53"/></g></g></g></g><g id="matplotlib.axis_2"><g id="ytick_1"><g id="line2d_6"><defs><path id="m51706de5d6" d="M 0 0 L -3.5 0" style="stroke:#000;stroke-width:.8"/></defs><g><use style="stroke:#000;stroke-width:.8" x="54" y="234.514" xlink:href="#m51706de5d6"/></g></g><g id="text_6"><g transform="translate(40.6375 238.312785)scale(0.1 -0.1)"><use xlink:href="#DejaVuSans-53"/></g></g></g><g id="ytick_2"><g id="line2d_7"><g><use style="stroke:#000;stroke-width:.8" x="54" y="196.5" xlink:href="#m51706de5d6"/></g></g><g id="text_7"><defs><path id="DejaVuSans-48" d="M 31.78125 66.40625 Q 24.171875 66.40625 20.328125 58.90625 Q 16.5 51.421875 16.5 36.375 Q 16.5 21.390625 20.328125 13.890625 Q 24.171875 6.390625 31.78125 6.390625 Q 39.453125 6.390625 43.28125 13.890625 Q 47.125 21.390625 47.125 36.375 Q 47.125 51.421875 43.28125 58.90625 Q 39.453125 66.40625 31.78125 66.40625 z M 31.78125 74.21875 Q 44.046875 74.21875 50.515625 64.515625 Q 56.984375 54.828125 56.984375 36.375 Q 56.984375 17.96875 50.515625 8.265625 Q 44.046875 -1.421875 31.78125 -1.421875 Q 19.53125 -1.421875 13.0625 8.265625 Q 6.59375 17.96875 6.59375 36.375 Q 6.59375 54.828125 13.0625 64.515625 Q 19.53125 74.21875 31.78125 74.21875 z"/></defs><g transform="translate(34.275 200.298799)scale(0.1 -0.1)"><use xlink:href="#DejaVuSans-49"/><use x="63.623" xlink:href="#DejaVuSans-48"/></g></g></g><g id="ytick_3"><g id="line2d_8"><g><use style="stroke:#000;stroke-width:.8" x="54" y="158.486" xlink:href="#m51706de5d6"/></g></g><g id="text_8"><g transform="translate(34.275 162.284813)scale(0.1 -0.1)"><use xlink:href="#DejaVuSans-49"/><use x="63.623" xlink:href="#DejaVuSans-53"/></g></g></g><g id="ytick_4"><g id="line2d_9"><g><use style="stroke:#000;stroke-width:.8" x="54" y="120.472" xlink:href="#m51706de5d6"/></g></g><g id="text_9"><g transform="translate(34.275 124.270827)scale(0.1 -0.1)"><use xlink:href="#DejaVuSans-50"/><use x="63.623" xlink:href="#DejaVuSans-48"/></g></g></g><g id="ytick_5"><g id="line2d_10"><g><use style="stroke:#000;stroke-width:.8" x="54" y="82.458" xlink:href="#m51706de5d6"/></g></g><g id="text_10"><g transform="translate(34.275 86.256841)scale(0.1 -0.1)"><use xlink:href="#DejaVuSans-50"/><use x="63.623" xlink:href="#DejaVuSans-53"/></g></g></g><g id="ytick_6"><g id="line2d_11"><g><use style="stroke:#000;stroke-width:.8" x="54" y="44.444" xlink:href="#m51706de5d6"/></g></g><g id="text_11"><g transform="translate(34.275 48.242855)scale(0.1 -0.1)"><use xlink:href="#DejaVuSans-51"/><use x="63.623" xlink:href="#DejaVuSans-48"/></g></g></g><g id="text_12"><defs><path id="DejaVuSans-68" d="M 19.671875 64.796875 L 19.671875 8.109375 L 31.59375 8.109375 Q 46.6875 8.109375 53.6875 14.9375 Q 60.6875 21.78125 60.6875 36.53125 Q 60.6875 51.171875 53.6875 57.984375 Q 46.6875 64.796875 31.59375 64.796875 z M 9.8125 72.90625 L 30.078125 72.90625 Q 51.265625 72.90625 61.171875 64.09375 Q 71.09375 55.28125 71.09375 36.53125 Q 71.09375 17.671875 61.125 8.828125 Q 51.171875 0 30.078125 0 L 9.8125 0 z"/><path id="DejaVuSans-105" d="M 9.421875 54.6875 L 18.40625 54.6875 L 18.40625 0 L 9.421875 0 z M 9.421875 75.984375 L 18.40625 75.984375 L 18.40625 64.59375 L 9.421875 64.59375 z"/><path id="DejaVuSans-97" d="M 34.28125 27.484375 Q 23.390625 27.484375 19.1875 25 Q 14.984375 22.515625 14.984375 16.5 Q 14.984375 11.71875 18.140625 8.90625 Q 21.296875 6.109375 26.703125 6.109375 Q 34.1875 6.109375 38.703125 11.40625 Q 43.21875 16.703125 43.21875 25.484375 L 43.21875 27.484375 z M 52.203125 31.203125 L 52.203125 0 L 43.21875 0 L 43.21875 8.296875 Q 40.140625 3.328125 35.546875 0.953125 Q 30.953125 -1.421875 24.3125 -1.421875 Q 15.921875 -1.421875 10.953125 3.296875 Q 6 8.015625 6 15.921875 Q 6 25.140625 12.171875 29.828125 Q 18.359375 34.515625 30.609375 34.515625 L 43.21875 34.515625 L 43.21875 35.40625 Q 43.21875 41.609375 39.140625 45 Q 35.0625 48.390625 27.6875 48.390625 Q 23 48.390625 18.546875 47.265625 Q 14.109375 46.140625 10.015625 43.890625 L 10.015625 52.203125 Q 14.9375 54.109375 19.578125 55.046875 Q 24.21875 56 28.609375 56 Q 40.484375 56 46.34375 49.84375 Q 52.203125 43.703125 52.203125 31.203125 z"/><path id="DejaVuSans-109" d="M 52 44.1875 Q 55.375 50.25 60.0625 53.125 Q 64.75 56 71.09375 56 Q 79.640625 56 84.28125 50.015625 Q 88.921875 44.046875 88.921875 33.015625 L 88.921875 0 L 79.890625 0 L 79.890625 32.71875 Q 79.890625 40.578125 77.09375 44.375 Q 74.3125 48.1875 68.609375 48.1875 Q 61.625 48.1875 57.5625 43.546875 Q 53.515625 38.921875 53.515625 30.90625 L 53.515625 0 L 44.484375 0 L 44.484375 32.71875 Q 44.484375 40.625 41.703125 44.40625 Q 38.921875 48.1875 33.109375 48.1875 Q 26.21875 48.1875 22.15625 43.53125 Q 18.109375 38.875 18.109375 30.90625 L 18.109375 0 L 9.078125 0 L 9.078125 54.6875 L 18.109375 54.6875 L 18.109375 46.1875 Q 21.1875 51.21875 25.484375 53.609375 Q 29.78125 56 35.6875 56 Q 41.65625 56 45.828125 52.96875 Q 50 49.953125 52 44.1875 z"/><path id="DejaVuSans-101" d="M 56.203125 29.59375 L 56.203125 25.203125 L 14.890625 25.203125 Q 15.484375 15.921875 20.484375 11.0625 Q 25.484375 6.203125 34.421875 6.203125 Q 39.59375 6.203125 44.453125 7.46875 Q 49.3125 8.734375 54.109375 11.28125 L 54.109375 2.78125 Q 49.265625 0.734375 44.1875 -0.34375 Q 39.109375 -1.421875 33.890625 -1.421875 Q 20.796875 -1.421875 13.15625 6.1875 Q 5.515625 13.8125 5.515625 26.8125 Q 5.515625 40.234375 12.765625 48.109375 Q 20.015625 56 32.328125 56 Q 43.359375 56 49.78125 48.890625 Q 56.203125 41.796875 56.203125 29.59375 z M 47.21875 32.234375 Q 47.125 39.59375 43.09375 43.984375 Q 39.0625 48.390625 32.421875 48.390625 Q 24.90625 48.390625 20.390625 44.140625 Q 15.875 39.890625 15.1875 32.171875 z"/><path id="DejaVuSans-116" d="M 18.3125 70.21875 L 18.3125 54.6875 L 36.8125 54.6875 L 36.8125 47.703125 L 18.3125 47.703125 L 18.3125 18.015625 Q 18.3125 11.328125 20.140625 9.421875 Q 21.96875 7.515625 27.59375 7.515625 L 36.8125 7.515625 L 36.8125 0 L 27.59375 0 Q 17.1875 0 13.234375 3.875 Q 9.28125 7.765625 9.28125 18.015625 L 9.28125 47.703125 L 2.6875 47.703125 L 2.6875 54.6875 L 9.28125 54.6875 L 9.28125 70.21875 z"/><path id="DejaVuSans-114" d="M 41.109375 46.296875 Q 39.59375 47.171875 37.8125 47.578125 Q 36.03125 48 33.890625 48 Q 26.265625 48 22.1875 43.046875 Q 18.109375 38.09375 18.109375 28.8125 L 18.109375 0 L 9.078125 0 L 9.078125 54.6875 L 18.109375 54.6875 L 18.109375 46.1875 Q 20.953125 51.171875 25.484375 53.578125 Q 30.03125 56 36.53125 56 Q 37.453125 56 38.578125 55.875 Q 39.703125 55.765625 41.0625 55.515625 z"/><path id="DejaVuSans-32"/><path id="DejaVuSans-40" d="M 31 75.875 Q 24.46875 64.65625 21.28125 53.65625 Q 18.109375 42.671875 18.109375 31.390625 Q 18.109375 20.125 21.3125 9.0625 Q 24.515625 -2 31 -13.1875 L 23.1875 -13.1875 Q 15.875 -1.703125 12.234375 9.375 Q 8.59375 20.453125 8.59375 31.390625 Q 8.59375 42.28125 12.203125 53.3125 Q 15.828125 64.359375 23.1875 75.875 z"/><path id="DejaVuSans-Oblique-956" d="M -1.3125 -20.796875 L 13.375 54.6875 L 22.40625 54.6875 L 15.765625 20.65625 Q 15.578125 19.625 15.421875 18.359375 Q 15.28125 17.09375 15.28125 15.828125 Q 15.28125 11.28125 18.140625 8.828125 Q 21 6.390625 26.3125 6.390625 Q 33.546875 6.390625 37.984375 10.484375 Q 42.4375 14.59375 44 22.796875 L 50.203125 54.6875 L 59.1875 54.6875 L 51.03125 12.640625 Q 50.828125 11.71875 50.75 11.03125 Q 50.6875 10.359375 50.6875 9.8125 Q 50.6875 8.296875 51.296875 7.59375 Q 51.90625 6.890625 53.21875 6.890625 Q 53.71875 6.890625 54.5625 7.125 Q 55.421875 7.375 56.984375 8.015625 L 55.609375 0.78125 Q 53.46875 -0.296875 51.515625 -0.859375 Q 49.5625 -1.421875 47.703125 -1.421875 Q 44.484375 -1.421875 42.65625 0.625 Q 40.828125 2.6875 40.828125 6.296875 Q 38.09375 2.390625 34.296875 0.484375 Q 30.515625 -1.421875 25.390625 -1.421875 Q 20.84375 -1.421875 17.453125 0.671875 Q 14.0625 2.78125 12.984375 6.203125 L 7.71875 -20.796875 z"/><path id="DejaVuSans-Oblique-109" d="M 89.796875 33.015625 L 83.40625 0 L 74.421875 0 L 80.71875 32.71875 Q 81.109375 34.8125 81.296875 36.328125 Q 81.5 37.84375 81.5 38.921875 Q 81.5 43.3125 79.046875 45.75 Q 76.609375 48.1875 72.21875 48.1875 Q 65.671875 48.1875 60.546875 43.28125 Q 55.421875 38.375 53.90625 30.515625 L 47.90625 0 L 38.921875 0 L 45.3125 32.71875 Q 45.703125 34.515625 45.890625 36.046875 Q 46.09375 37.59375 46.09375 38.8125 Q 46.09375 43.265625 43.65625 45.71875 Q 41.21875 48.1875 36.921875 48.1875 Q 30.28125 48.1875 25.140625 43.28125 Q 20.015625 38.375 18.5 30.515625 L 12.5 0 L 3.515625 0 L 14.203125 54.6875 L 23.1875 54.6875 L 21.484375 46.1875 Q 25.140625 50.984375 30.046875 53.484375 Q 34.96875 56 40.578125 56 Q 46.53125 56 50.359375 52.875 Q 54.203125 49.75 54.984375 44.1875 Q 59.078125 49.953125 64.46875 52.96875 Q 69.875 56 75.875 56 Q 82.90625 56 86.734375 51.953125 Q 90.578125 47.90625 90.578125 40.484375 Q 90.578125 38.875 90.375 36.9375 Q 90.1875 35.015625 89.796875 33.015625 z"/><path id="DejaVuSans-41" d="M 8.015625 75.875 L 15.828125 75.875 Q 23.140625 64.359375 26.78125 53.3125 Q 30.421875 42.28125 30.421875 31.390625 Q 30.421875 20.453125 26.78125 9.375 Q 23.140625 -1.703125 15.828125 -13.1875 L 8.015625 -13.1875 Q 14.5 -2 17.703125 9.0625 Q 20.90625 20.125 20.90625 31.390625 Q 20.90625 42.671875 17.703125 53.65625 Q 14.5 64.65625 8.015625 75.875 z"/></defs><g transform="translate(28.175 180.18)rotate(-90)scale(0.1 -0.1)"><use transform="translate(0 0.015625)" xlink:href="#DejaVuSans-68"/><use transform="translate(77.001953 0.015625)" xlink:href="#DejaVuSans-105"/><use transform="translate(104.785156 0.015625)" xlink:href="#DejaVuSans-97"/><use transform="translate(166.064453 0.015625)" xlink:href="#DejaVuSans-109"/><use transform="translate(263.476562 0.015625)" xlink:href="#DejaVuSans-101"/><use transform="translate(325 0.015625)" xlink:href="#DejaVuSans-116"/><use transform="translate(364.208984 0.015625)" xlink:href="#DejaVuSans-101"/><use transform="translate(425.732422 0.015625)" xlink:href="#DejaVuSans-114"/><use transform="translate(466.845703 0.015625)" xlink:href="#DejaVuSans-32"/><use transform="translate(498.632812 0.015625)" xlink:href="#DejaVuSans-40"/><use transform="translate(537.646484 0.015625)" xlink:href="#DejaVuSans-Oblique-956"/><use transform="translate(601.269531 0.015625)" xlink:href="#DejaVuSans-Oblique-109"/><use transform="translate(698.681641 0.015625)" xlink:href="#DejaVuSans-41"/></g></g></g><g id="LineCollection_1"><path d="M 77.672727 148.481914 L 94.581818 148.481914" clip-path="url(#p61c18482b9)" style="fill:none;stroke:green;stroke-width:1.5"/><path d="M 145.309091 144.880589 L 162.218182 144.880589" clip-path="url(#p61c18482b9)" style="fill:none;stroke:green;stroke-width:1.5"/><path d="M 212.945455 100.0641 L 229.854545 100.0641" clip-path="url(#p61c18482b9)" style="fill:none;stroke:green;stroke-width:1.5"/><path d="M 280.581818 143.680147 L 297.490909 143.680147" clip-path="url(#p61c18482b9)" style="fill:none;stroke:green;stroke-width:1.5"/><path d="M 348.218182 218.907825 L 365.127273 218.907825" clip-path="url(#p61c18482b9)" style="fill:none;stroke:green;stroke-width:1.5"/></g><g id="LineCollection_2"><path d="M 77.672727 120.471608 L 94.581818 120.471608" clip-path="url(#p61c18482b9)" style="fill:none;stroke:#1f77b4;stroke-width:1.5"/><path d="M 145.309091 120.471608 L 162.218182 120.471608" clip-path="url(#p61c18482b9)" style="fill:none;stroke:#1f77b4;stroke-width:1.5"/><path d="M 212.945455 44.443636 L 229.854545 44.443636" clip-path="url(#p61c18482b9)" style="fill:none;stroke:#1f77b4;stroke-width:1.5"/><path d="M 280.581818 120.471608 L 297.490909 120.471608" clip-path="url(#p61c18482b9)" style="fill:none;stroke:#1f77b4;stroke-width:1.5"/><path d="M 348.218182 196.49958 L 365.127273 196.49958" clip-path="url(#p61c18482b9)" style="fill:none;stroke:#1f77b4;stroke-width:1.5"/></g><g id="LineCollection_3"><path d="M 77.672727 196.49958 L 94.581818 196.49958" clip-path="url(#p61c18482b9)" style="fill:none;stroke:#1f77b4;stroke-width:1.5"/><path d="M 145.309091 173.691189 L 162.218182 173.691189" clip-path="url(#p61c18482b9)" style="fill:none;stroke:#1f77b4;stroke-width:1.5"/><path d="M 212.945455 196.49958 L 229.854545 196.49958" clip-path="url(#p61c18482b9)" style="fill:none;stroke:#1f77b4;stroke-width:1.5"/><path d="M 280.581818 158.485594 L 297.490909 158.485594" clip-path="url(#p61c18482b9)" style="fill:none;stroke:#1f77b4;stroke-width:1.5"/><path d="M 348.218182 242.116364 L 365.127273 242.116364" clip-path="url(#p61c18482b9)" style="fill:none;stroke:#1f77b4;stroke-width:1.5"/></g><g id="LineCollection_4"><path d="M 86.127273 196.49958 L 86.127273 120.471608" clip-path="url(#p61c18482b9)" style="fill:none;stroke:#1f77b4;stroke-width:1.5"/><path d="M 153.763636 173.691189 L 153.763636 120.471608" clip-path="url(#p61c18482b9)" style="fill:none;stroke:#1f77b4;stroke-width:1.5"/><path d="M 221.4 196.49958 L 221.4 44.443636" clip-path="url(#p61c18482b9)" style="fill:none;stroke:#1f77b4;stroke-width:1.5"/><path d="M 289.036364 158.485594 L 289.036364 120.471608" clip-path="url(#p61c18482b9)" style="fill:none;stroke:#1f77b4;stroke-width:1.5"/><path d="M 356.672727 242.116364 L 356.672727 196.49958" clip-path="url(#p61c18482b9)" style="fill:none;stroke:#1f77b4;stroke-width:1.5"/></g><g id="LineCollection_5"><path d="M 77.672727 150.882797 L 94.581818 150.882797" clip-path="url(#p61c18482b9)" style="fill:none;stroke:red;stroke-width:1.5"/><path d="M 145.309091 143.28 L 162.218182 143.28" clip-path="url(#p61c18482b9)" style="fill:none;stroke:red;stroke-width:1.5"/><path d="M 212.945455 97.663217 L 229.854545 97.663217" clip-path="url(#p61c18482b9)" style="fill:none;stroke:red;stroke-width:1.5"/><path d="M 280.581818 143.28 L 297.490909 143.28" clip-path="url(#p61c18482b9)" style="fill:none;stroke:red;stroke-width:1.5"/><path d="M 348.218182 219.307972 L 365.127273 219.307972" clip-path="url(#p61c18482b9)" style="fill:none;stroke:red;stroke-width:1.5"/></g><g id="patch_3"><path d="M 54 252 L 54 34.56" style="fill:none;stroke:#000;stroke-linecap:square;stroke-linejoin:miter;stroke-width:.8"/></g><g id="patch_4"><path d="M 388.8 252 L 388.8 34.56" style="fill:none;stroke:#000;stroke-linecap:square;stroke-linejoin:miter;stroke-width:.8"/></g><g id="patch_5"><path d="M 54 252 L 388.8 252" style="fill:none;stroke:#000;stroke-linecap:square;stroke-linejoin:miter;stroke-width:.8"/></g><g id="patch_6"><path d="M 54 34.56 L 388.8 34.56" style="fill:none;stroke:#000;stroke-linecap:square;stroke-linejoin:miter;stroke-width:.8"/></g></g></g><defs><clipPath id="p61c18482b9"><rect width="334.8" height="217.44" x="54" y="34.56"/></clipPath></defs></svg>