<svg xmlns="http://www.w3.org/2000/svg" xmlns:xlink="http://www.w3.org/1999/xlink" width="96" height="96" version="1.1" viewBox="0 0 72 72"><defs><style type="text/css">*{stroke-linecap:butt;stroke-linejoin:round}</style></defs><g id="figure_1"><g id="patch_1"><path d="M 0 72 L 72 72 L 72 0 L 0 0 z" style="fill:#fff"/></g><g id="axes_1"><g id="patch_2"><path d="M 9 63 L 64.8 63 L 64.8 8.64 L 9 8.64 z" style="fill:#fff"/></g><g id="PolyCollection_1"><path d="M 46.230715 60.529091 L 27.569285 60.529091 L 27.245623 60.029917 L 26.924158 59.530744 L 26.604989 59.03157 L 26.28815 58.532397 L 25.973613 58.033223 L 25.661299 57.53405 L 25.351088 57.034876 L 25.042829 56.535702 L 24.736352 56.036529 L 24.431478 55.537355 L 24.128034 55.038182 L 23.825858 54.539008 L 23.524813 54.039835 L 23.224795 53.540661 L 22.925738 53.041488 L 22.627622 52.542314 L 22.330474 52.04314 L 22.034372 51.543967 L 21.739441 51.044793 L 21.445854 50.54562 L 21.153827 50.046446 L 20.86361 49.547273 L 20.57548 49.048099 L 20.289737 48.548926 L 20.006684 48.049752 L 19.726626 47.550579 L 19.449851 47.051405 L 19.176624 46.552231 L 18.907173 46.053058 L 18.641681 45.553884 L 18.380276 45.054711 L 18.123028 44.555537 L 17.869937 44.056364 L 17.620938 43.55719 L 17.375895 43.058017 L 17.134608 42.558843 L 16.896813 42.059669 L 16.662198 41.560496 L 16.430405 41.061322 L 16.20105 40.562149 L 15.973733 40.062975 L 15.74806 39.563802 L 15.523662 39.064628 L 15.300212 38.565455 L 15.077446 38.066281 L 14.855188 37.567107 L 14.633366 37.067934 L 14.412033 36.56876 L 14.191385 36.069587 L 13.971772 35.570413 L 13.753717 35.07124 L 13.537918 34.572066 L 13.32526 34.072893 L 13.116808 33.573719 L 12.913811 33.074545 L 12.71769 32.575372 L 12.530031 32.076198 L 12.352563 31.577025 L 12.18714 31.077851 L 12.035719 30.578678 L 11.900332 30.079504 L 11.783057 29.580331 L 11.685982 29.081157 L 11.611179 28.581983 L 11.560663 28.08281 L 11.536364 27.583636 L 11.54009 27.084463 L 11.573498 26.585289 L 11.638063 26.086116 L 11.735054 25.586942 L 11.865508 25.087769 L 12.030211 24.588595 L 12.229686 24.089421 L 12.46418 23.590248 L 12.733658 23.091074 L 13.037802 22.591901 L 13.376015 22.092727 L 13.747429 21.593554 L 14.150913 21.09438 L 14.585094 20.595207 L 15.048373 20.096033 L 15.538944 19.59686 L 16.054824 19.097686 L 16.593874 18.598512 L 17.153827 18.099339 L 17.732316 17.600165 L 18.326903 17.100992 L 18.935102 16.601818 L 19.554409 16.102645 L 20.182326 15.603471 L 20.816384 15.104298 L 21.454163 14.605124 L 22.093317 14.10595 L 22.731582 13.606777 L 23.366798 13.107603 L 23.996921 12.60843 L 24.620027 12.109256 L 25.234326 11.610083 L 25.838165 11.110909 L 47.961835 11.110909 L 47.961835 11.110909 L 48.565674 11.610083 L 49.179973 12.109256 L 49.803079 12.60843 L 50.433202 13.107603 L 51.068418 13.606777 L 51.706683 14.10595 L 52.345837 14.605124 L 52.983616 15.104298 L 53.617674 15.603471 L 54.245591 16.102645 L 54.864898 16.601818 L 55.473097 17.100992 L 56.067684 17.600165 L 56.646173 18.099339 L 57.206126 18.598512 L 57.745176 19.097686 L 58.261056 19.59686 L 58.751627 20.096033 L 59.214906 20.595207 L 59.649087 21.09438 L 60.052571 21.593554 L 60.423985 22.092727 L 60.762198 22.591901 L 61.066342 23.091074 L 61.33582 23.590248 L 61.570314 24.089421 L 61.769789 24.588595 L 61.934492 25.087769 L 62.064946 25.586942 L 62.161937 26.086116 L 62.226502 26.585289 L 62.25991 27.084463 L 62.263636 27.583636 L 62.239337 28.08281 L 62.188821 28.581983 L 62.114018 29.081157 L 62.016943 29.580331 L 61.899668 30.079504 L 61.764281 30.578678 L 61.61286 31.077851 L 61.447437 31.577025 L 61.269969 32.076198 L 61.08231 32.575372 L 60.886189 33.074545 L 60.683192 33.573719 L 60.47474 34.072893 L 60.262082 34.572066 L 60.046283 35.07124 L 59.828228 35.570413 L 59.608615 36.069587 L 59.387967 36.56876 L 59.166634 37.067934 L 58.944812 37.567107 L 58.722554 38.066281 L 58.499788 38.565455 L 58.276338 39.064628 L 58.05194 39.563802 L 57.826267 40.062975 L 57.59895 40.562149 L 57.369595 41.061322 L 57.137802 41.560496 L 56.903187 42.059669 L 56.665392 42.558843 L 56.424105 43.058017 L 56.179062 43.55719 L 55.930063 44.056364 L 55.676972 44.555537 L 55.419724 45.054711 L 55.158319 45.553884 L 54.892827 46.053058 L 54.623376 46.552231 L 54.350149 47.051405 L 54.073374 47.550579 L 53.793316 48.049752 L 53.510263 48.548926 L 53.22452 49.048099 L 52.93639 49.547273 L 52.646173 50.046446 L 52.354146 50.54562 L 52.060559 51.044793 L 51.765628 51.543967 L 51.469526 52.04314 L 51.172378 52.542314 L 50.874262 53.041488 L 50.575205 53.540661 L 50.275187 54.039835 L 49.974142 54.539008 L 49.671966 55.038182 L 49.368522 55.537355 L 49.063648 56.036529 L 48.757171 56.535702 L 48.448912 57.034876 L 48.138701 57.53405 L 47.826387 58.033223 L 47.51185 58.532397 L 47.195011 59.03157 L 46.875842 59.530744 L 46.554377 60.029917 L 46.230715 60.529091 z" clip-path="url(#p997dbeb066)" style="fill:#1f77b4;fill-opacity:.3"/></g><g id="matplotlib.axis_1"><g id="xtick_1"><g id="line2d_1"><defs><path id="m25eca7183c" d="M 0 0 L 0 3.5" style="stroke:#000;stroke-width:.8"/></defs><g><use style="stroke:#000;stroke-width:.8" x="36.9" y="63" xlink:href="#m25eca7183c"/></g></g><g id="text_1"><defs><path id="DejaVuSans-49" d="M 12.40625 8.296875 L 28.515625 8.296875 L 28.515625 63.921875 L 10.984375 60.40625 L 10.984375 69.390625 L 28.421875 72.90625 L 38.28125 72.90625 L 38.28125 8.296875 L 54.390625 8.296875 L 54.390625 0 L 12.40625 0 z"/></defs><g transform="translate(33.71875 77.598438)scale(0.1 -0.1)"><use xlink:href="#DejaVuSans-49"/></g></g></g></g><g id="matplotlib.axis_2"><g id="ytick_1"><g id="line2d_2"><defs><path id="m66f4c90ad0" d="M 0 0 L -3.5 0" style="stroke:#000;stroke-width:.8"/></defs><g><use style="stroke:#000;stroke-width:.8" x="9" y="50.645" xlink:href="#m66f4c90ad0"/></g></g><g id="text_2"><defs><path id="DejaVuSans-55" d="M 8.203125 72.90625 L 55.078125 72.90625 L 55.078125 68.703125 L 28.609375 0 L 18.3125 0 L 43.21875 64.59375 L 8.203125 64.59375 z"/><path id="DejaVuSans-48" d="M 31.78125 66.40625 Q 24.171875 66.40625 20.328125 58.90625 Q 16.5 51.421875 16.5 36.375 Q 16.5 21.390625 20.328125 13.890625 Q 24.171875 6.390625 31.78125 6.390625 Q 39.453125 6.390625 43.28125 13.890625 Q 47.125 21.390625 47.125 36.375 Q 47.125 51.421875 43.28125 58.90625 Q 39.453125 66.40625 31.78125 66.40625 z M 31.78125 74.21875 Q 44.046875 74.21875 50.515625 64.515625 Q 56.984375 54.828125 56.984375 36.375 Q 56.984375 17.96875 50.515625 8.265625 Q 44.046875 -1.421875 31.78125 -1.421875 Q 19.53125 -1.421875 13.0625 8.265625 Q 6.59375 17.96875 6.59375 36.375 Q 6.59375 54.828125 13.0625 64.515625 Q 19.53125 74.21875 31.78125 74.21875 z"/></defs><g transform="translate(-10.725 54.444673)scale(0.1 -0.1)"><use xlink:href="#DejaVuSans-55"/><use x="63.623" xlink:href="#DejaVuSans-48"/></g></g></g><g id="ytick_2"><g id="line2d_3"><g><use style="stroke:#000;stroke-width:.8" x="9" y="34.173" xlink:href="#m66f4c90ad0"/></g></g><g id="text_3"><defs><path id="DejaVuSans-56" d="M 31.78125 34.625 Q 24.75 34.625 20.71875 30.859375 Q 16.703125 27.09375 16.703125 20.515625 Q 16.703125 13.921875 20.71875 10.15625 Q 24.75 6.390625 31.78125 6.390625 Q 38.8125 6.390625 42.859375 10.171875 Q 46.921875 13.96875 46.921875 20.515625 Q 46.921875 27.09375 42.890625 30.859375 Q 38.875 34.625 31.78125 34.625 z M 21.921875 38.8125 Q 15.578125 40.375 12.03125 44.71875 Q 8.5 49.078125 8.5 55.328125 Q 8.5 64.0625 14.71875 69.140625 Q 20.953125 74.21875 31.78125 74.21875 Q 42.671875 74.21875 48.875 69.140625 Q 55.078125 64.0625 55.078125 55.328125 Q 55.078125 49.078125 51.53125 44.71875 Q 48 40.375 41.703125 38.8125 Q 48.828125 37.15625 52.796875 32.3125 Q 56.78125 27.484375 56.78125 20.515625 Q 56.78125 9.90625 50.3125 4.234375 Q 43.84375 -1.421875 31.78125 -1.421875 Q 19.734375 -1.421875 13.25 4.234375 Q 6.78125 9.90625 6.78125 20.515625 Q 6.78125 27.484375 10.78125 32.3125 Q 14.796875 37.15625 21.921875 38.8125 z M 18.3125 54.390625 Q 18.3125 48.734375 21.84375 45.5625 Q 25.390625 42.390625 31.78125 42.390625 Q 38.140625 42.390625 41.71875 45.5625 Q 45.3125 48.734375 45.3125 54.390625 Q 45.3125 60.0625 41.71875 63.234375 Q 38.140625 66.40625 31.78125 66.40625 Q 25.390625 66.40625 21.84375 63.234375 Q 18.3125 60.0625 18.3125 54.390625 z"/></defs><g transform="translate(-10.725 37.971946)scale(0.1 -0.1)"><use xlink:href="#DejaVuSans-56"/><use x="63.623" xlink:href="#DejaVuSans-48"/></g></g></g><g id="ytick_3"><g id="line2d_4"><g><use style="stroke:#000;stroke-width:.8" x="9" y="17.7" xlink:href="#m66f4c90ad0"/></g></g><g id="text_4"><defs><path id="DejaVuSans-57" d="M 10.984375 1.515625 L 10.984375 10.5 Q 14.703125 8.734375 18.5 7.8125 Q 22.3125 6.890625 25.984375 6.890625 Q 35.75 6.890625 40.890625 13.453125 Q 46.046875 20.015625 46.78125 33.40625 Q 43.953125 29.203125 39.59375 26.953125 Q 35.25 24.703125 29.984375 24.703125 Q 19.046875 24.703125 12.671875 31.3125 Q 6.296875 37.9375 6.296875 49.421875 Q 6.296875 60.640625 12.9375 67.421875 Q 19.578125 74.21875 30.609375 74.21875 Q 43.265625 74.21875 49.921875 64.515625 Q 56.59375 54.828125 56.59375 36.375 Q 56.59375 19.140625 48.40625 8.859375 Q 40.234375 -1.421875 26.421875 -1.421875 Q 22.703125 -1.421875 18.890625 -0.6875 Q 15.09375 0.046875 10.984375 1.515625 z M 30.609375 32.421875 Q 37.25 32.421875 41.125 36.953125 Q 45.015625 41.5 45.015625 49.421875 Q 45.015625 57.28125 41.125 61.84375 Q 37.25 66.40625 30.609375 66.40625 Q 23.96875 66.40625 20.09375 61.84375 Q 16.21875 57.28125 16.21875 49.421875 Q 16.21875 41.5 20.09375 36.953125 Q 23.96875 32.421875 30.609375 32.421875 z"/></defs><g transform="translate(-10.725 21.499219)scale(0.1 -0.1)"><use xlink:href="#DejaVuSans-57"/><use x="63.623" xlink:href="#DejaVuSans-48"/></g></g></g></g><g id="LineCollection_1"><path d="M 24.218182 34.519522 L 49.581818 34.519522" clip-path="url(#p997dbeb066)" style="fill:none;stroke:green;stroke-width:1.5"/></g><g id="LineCollection_2"><path d="M 24.218182 11.110909 L 49.581818 11.110909" clip-path="url(#p997dbeb066)" style="fill:none;stroke:#1f77b4;stroke-width:1.5"/></g><g id="LineCollection_3"><path d="M 24.218182 60.529091 L 49.581818 60.529091" clip-path="url(#p997dbeb066)" style="fill:none;stroke:#1f77b4;stroke-width:1.5"/></g><g id="LineCollection_4"><path d="M 36.9 60.529091 L 36.9 11.110909" clip-path="url(#p997dbeb066)" style="fill:none;stroke:#1f77b4;stroke-width:1.5"/></g><g id="LineCollection_5"><path d="M 24.218182 30.878182 L 49.581818 30.878182" clip-path="url(#p997dbeb066)" style="fill:none;stroke:red;stroke-width:1.5"/></g><g id="patch_3"><path d="M 9 63 L 9 8.64" style="fill:none;stroke:#000;stroke-linecap:square;stroke-linejoin:miter;stroke-width:.8"/></g><g id="patch_4"><path d="M 64.8 63 L 64.8 8.64" style="fill:none;stroke:#000;stroke-linecap:square;stroke-linejoin:miter;stroke-width:.8"/></g><g id="patch_5"><path d="M 9 63 L 64.8 63" style="fill:none;stroke:#000;stroke-linecap:square;stroke-linejoin:miter;stroke-width:.8"/></g><g id="patch_6"><path d="M 9 8.64 L 64.8 8.64" style="fill:none;stroke:#000;stroke-linecap:square;stroke-linejoin:miter;stroke-width:.8"/></g></g></g><defs><clipPath id="p997dbeb066"><rect width="55.8" height="54.36" x="9" y="8.64"/></clipPath></defs></svg>