<svg xmlns="http://www.w3.org/2000/svg" xmlns:xlink="http://www.w3.org/1999/xlink" width="576" height="384" version="1.1" viewBox="0 0 432 288"><defs><style type="text/css">*{stroke-linecap:butt;stroke-linejoin:round}</style></defs><g id="figure_1"><g id="patch_1"><path d="M 0 288 L 432 288 L 432 0 L 0 0 z" style="fill:#fff"/></g><g id="axes_1"><g id="patch_2"><path d="M 54 252 L 388.8 252 L 388.8 34.56 L 54 34.56 z" style="fill:#fff"/></g><g id="PolyCollection_1"><path d="M 87.987617 206.175868 L 84.266929 206.175868 L 84.217206 205.268279 L 84.17206 204.360691 L 84.1316 203.453103 L 84.095878 202.545515 L 84.064892 201.637926 L 84.038591 200.730338 L 84.016876 199.82275 L 83.999598 198.915162 L 83.986563 198.007573 L 83.977527 197.099985 L 83.972193 196.192397 L 83.970205 195.284808 L 83.971141 194.37722 L 83.974502 193.469632 L 83.979699 192.562044 L 83.986047 191.654455 L 83.992744 190.746867 L 83.998865 189.839279 L 84.003349 188.93169 L 84.004986 188.024102 L 84.002414 187.116514 L 83.994118 186.208926 L 83.978423 185.301337 L 83.953508 184.393749 L 83.917414 183.486161 L 83.868063 182.578573 L 83.80328 181.670984 L 83.720823 180.763396 L 83.618421 179.855808 L 83.493814 178.948219 L 83.344797 178.040631 L 83.169277 177.133043 L 82.965319 176.225455 L 82.73121 175.317866 L 82.465509 174.410278 L 82.167106 173.50269 L 81.835275 172.595101 L 81.46972 171.687513 L 81.070625 170.779925 L 80.63868 169.872337 L 80.175115 168.964748 L 79.681711 168.05716 L 79.160802 167.149572 L 78.615272 166.241983 L 78.048524 165.334395 L 77.464447 164.426807 L 76.867364 163.519219 L 76.261971 162.61163 L 75.653259 161.704042 L 75.046428 160.796454 L 74.446798 159.888866 L 73.859706 158.981277 L 73.290411 158.073689 L 72.743983 157.166101 L 72.225215 156.258512 L 71.738528 155.350924 L 71.287888 154.443336 L 70.876736 153.535748 L 70.507935 152.628159 L 70.183727 151.720571 L 69.905709 150.812983 L 69.674832 149.905394 L 69.491408 148.997806 L 69.35514 148.090218 L 69.265166 147.18263 L 69.220117 146.275041 L 69.218182 145.367453 L 69.257186 144.459865 L 69.33467 143.552276 L 69.447977 142.644688 L 69.594329 141.7371 L 69.770911 140.829512 L 69.974942 139.921923 L 70.203734 139.014335 L 70.454752 138.106747 L 70.725653 137.199159 L 71.014312 136.29157 L 71.318847 135.383982 L 71.637616 134.476394 L 71.969217 133.568805 L 72.312469 132.661217 L 72.666387 131.753629 L 73.030154 130.846041 L 73.403081 129.938452 L 73.784574 129.030864 L 74.174088 128.123276 L 74.571095 127.215687 L 74.975045 126.308099 L 75.385335 125.400511 L 75.801284 124.492923 L 76.222112 123.585334 L 76.646927 122.677746 L 77.074721 121.770158 L 77.504365 120.862569 L 77.93462 119.954981 L 78.364147 119.047393 L 78.791524 118.139805 L 79.215272 117.232216 L 79.633873 116.324628 L 92.620672 116.324628 L 92.620672 116.324628 L 93.039273 117.232216 L 93.463021 118.139805 L 93.890399 119.047393 L 94.319925 119.954981 L 94.75018 120.862569 L 95.179824 121.770158 L 95.607618 122.677746 L 96.032434 123.585334 L 96.453262 124.492923 L 96.869211 125.400511 L 97.2795 126.308099 L 97.68345 127.215687 L 98.080457 128.123276 L 98.469972 129.030864 L 98.851464 129.938452 L 99.224392 130.846041 L 99.588158 131.753629 L 99.942077 132.661217 L 100.285328 133.568805 L 100.616929 134.476394 L 100.935698 135.383982 L 101.240233 136.29157 L 101.528893 137.199159 L 101.799793 138.106747 L 102.050812 139.014335 L 102.279604 139.921923 L 102.483634 140.829512 L 102.660217 141.7371 L 102.806569 142.644688 L 102.919875 143.552276 L 102.99736 144.459865 L 103.036364 145.367453 L 103.034429 146.275041 L 102.989379 147.18263 L 102.899406 148.090218 L 102.763138 148.997806 L 102.579714 149.905394 L 102.348836 150.812983 L 102.070819 151.720571 L 101.74661 152.628159 L 101.377809 153.535748 L 100.966657 154.443336 L 100.516017 155.350924 L 100.02933 156.258512 L 99.510563 157.166101 L 98.964135 158.073689 L 98.394839 158.981277 L 97.807748 159.888866 L 97.208118 160.796454 L 96.601287 161.704042 L 95.992574 162.61163 L 95.387181 163.519219 L 94.790099 164.426807 L 94.206022 165.334395 L 93.639273 166.241983 L 93.093743 167.149572 L 92.572835 168.05716 L 92.07943 168.964748 L 91.615865 169.872337 L 91.18392 170.779925 L 90.784825 171.687513 L 90.419271 172.595101 L 90.087439 173.50269 L 89.789036 174.410278 L 89.523335 175.317866 L 89.289226 176.225455 L 89.085269 177.133043 L 88.909748 178.040631 L 88.760732 178.948219 L 88.636124 179.855808 L 88.533722 180.763396 L 88.451265 181.670984 L 88.386482 182.578573 L 88.337131 183.486161 L 88.301037 184.393749 L 88.276123 185.301337 L 88.260428 186.208926 L 88.252131 187.116514 L 88.24956 188.024102 L 88.251197 188.93169 L 88.25568 189.839279 L 88.261802 190.746867 L 88.268499 191.654455 L 88.274846 192.562044 L 88.280044 193.469632 L 88.283404 194.37722 L 88.28434 195.284808 L 88.282352 196.192397 L 88.277019 197.099985 L 88.267983 198.007573 L 88.254948 198.915162 L 88.23767 199.82275 L 88.215954 200.730338 L 88.189653 201.637926 L 88.158668 202.545515 L 88.122946 203.453103 L 88.082485 204.360691 L 88.03734 205.268279 L 87.987617 206.175868 z" clip-path="url(#pbd7c5268ab)" style="fill:#1f77b4;fill-opacity:.3"/></g><g id="PolyCollection_2"><path d="M 155.488885 206.175868 L 152.038388 206.175868 L 152.013916 205.268279 L 151.99191 204.360691 L 151.971629 203.453103 L 151.952198 202.545515 L 151.932616 201.637926 L 151.911772 200.730338 L 151.888457 199.82275 L 151.861385 198.915162 L 151.829214 198.007573 L 151.790567 197.099985 L 151.744059 196.192397 L 151.688322 195.284808 L 151.622034 194.37722 L 151.543943 193.469632 L 151.452892 192.562044 L 151.34785 191.654455 L 151.227926 190.746867 L 151.092399 189.839279 L 150.940725 188.93169 L 150.772562 188.024102 L 150.587769 187.116514 L 150.386419 186.208926 L 150.168799 185.301337 L 149.935402 184.393749 L 149.686924 183.486161 L 149.424248 182.578573 L 149.14843 181.670984 L 148.860675 180.763396 L 148.562316 179.855808 L 148.254786 178.948219 L 147.939588 178.040631 L 147.618269 177.133043 L 147.292386 176.225455 L 146.963476 175.317866 L 146.633032 174.410278 L 146.30247 173.50269 L 145.973108 172.595101 L 145.646145 171.687513 L 145.322644 170.779925 L 145.003517 169.872337 L 144.689519 168.964748 L 144.381243 168.05716 L 144.079117 167.149572 L 143.783414 166.241983 L 143.494255 165.334395 L 143.211626 164.426807 L 142.935389 163.519219 L 142.6653 162.61163 L 142.40103 161.704042 L 142.142187 160.796454 L 141.888334 159.888866 L 141.639011 158.981277 L 141.393761 158.073689 L 141.152146 157.166101 L 140.913767 156.258512 L 140.678286 155.350924 L 140.445437 154.443336 L 140.215043 153.535748 L 139.987029 152.628159 L 139.761432 151.720571 L 139.538405 150.812983 L 139.318231 149.905394 L 139.101317 148.997806 L 138.888204 148.090218 L 138.679562 147.18263 L 138.476187 146.275041 L 138.278999 145.367453 L 138.089034 144.459865 L 137.907435 143.552276 L 137.735444 142.644688 L 137.574386 141.7371 L 137.425659 140.829512 L 137.290716 139.921923 L 137.171052 139.014335 L 137.06818 138.106747 L 136.983617 137.199159 L 136.91886 136.29157 L 136.87537 135.383982 L 136.854545 134.476394 L 136.857705 133.568805 L 136.886065 132.661217 L 136.940718 131.753629 L 137.022616 130.846041 L 137.132548 129.938452 L 137.271125 129.030864 L 137.438766 128.123276 L 137.635679 127.215687 L 137.861857 126.308099 L 138.117063 125.400511 L 138.40083 124.492923 L 138.712451 123.585334 L 139.050987 122.677746 L 139.415261 121.770158 L 139.803876 120.862569 L 140.215214 119.954981 L 140.647456 119.047393 L 141.098596 118.139805 L 141.566463 117.232216 L 142.048738 116.324628 L 165.478535 116.324628 L 165.478535 116.324628 L 165.96081 117.232216 L 166.428677 118.139805 L 166.879817 119.047393 L 167.312059 119.954981 L 167.723397 120.862569 L 168.112011 121.770158 L 168.476286 122.677746 L 168.814821 123.585334 L 169.126443 124.492923 L 169.410209 125.400511 L 169.665416 126.308099 L 169.891594 127.215687 L 170.088507 128.123276 L 170.256147 129.030864 L 170.394725 129.938452 L 170.504657 130.846041 L 170.586555 131.753629 L 170.641208 132.661217 L 170.669568 133.568805 L 170.672727 134.476394 L 170.651903 135.383982 L 170.608412 136.29157 L 170.543656 137.199159 L 170.459092 138.106747 L 170.356221 139.014335 L 170.236556 139.921923 L 170.101614 140.829512 L 169.952887 141.7371 L 169.791829 142.644688 L 169.619838 143.552276 L 169.438239 144.459865 L 169.248274 145.367453 L 169.051086 146.275041 L 168.847711 147.18263 L 168.639068 148.090218 L 168.425956 148.997806 L 168.209042 149.905394 L 167.988867 150.812983 L 167.765841 151.720571 L 167.540243 152.628159 L 167.31223 153.535748 L 167.081836 154.443336 L 166.848987 155.350924 L 166.613506 156.258512 L 166.375127 157.166101 L 166.133512 158.073689 L 165.888262 158.981277 L 165.638939 159.888866 L 165.385085 160.796454 L 165.126242 161.704042 L 164.861973 162.61163 L 164.591884 163.519219 L 164.315646 164.426807 L 164.033017 165.334395 L 163.743859 166.241983 L 163.448156 167.149572 L 163.14603 168.05716 L 162.837753 168.964748 L 162.523756 169.872337 L 162.204629 170.779925 L 161.881128 171.687513 L 161.554165 172.595101 L 161.224803 173.50269 L 160.894241 174.410278 L 160.563796 175.317866 L 160.234887 176.225455 L 159.909004 177.133043 L 159.587685 178.040631 L 159.272487 178.948219 L 158.964957 179.855808 L 158.666598 180.763396 L 158.378843 181.670984 L 158.103025 182.578573 L 157.840349 183.486161 L 157.591871 184.393749 L 157.358474 185.301337 L 157.140854 186.208926 L 156.939504 187.116514 L 156.754711 188.024102 L 156.586547 188.93169 L 156.434874 189.839279 L 156.299346 190.746867 L 156.179423 191.654455 L 156.07438 192.562044 L 155.98333 193.469632 L 155.905238 194.37722 L 155.83895 195.284808 L 155.783214 196.192397 L 155.736706 197.099985 L 155.698059 198.007573 L 155.665888 198.915162 L 155.638816 199.82275 L 155.615501 200.730338 L 155.594657 201.637926 L 155.575075 202.545515 L 155.555643 203.453103 L 155.535362 204.360691 L 155.513357 205.268279 L 155.488885 206.175868 z" clip-path="url(#pbd7c5268ab)" style="fill:#1f77b4;fill-opacity:.3"/></g><g id="PolyCollection_3"><path d="M 223.974402 161.250248 L 218.825598 161.250248 L 218.735349 160.070383 L 218.647803 158.890518 L 218.562671 157.710654 L 218.479501 156.530789 L 218.397668 155.350924 L 218.316373 154.171059 L 218.234641 152.991195 L 218.151321 151.81133 L 218.065096 150.631465 L 217.974492 149.4516 L 217.877891 148.271736 L 217.773552 147.091871 L 217.659634 145.912006 L 217.534227 144.732141 L 217.395377 143.552276 L 217.241132 142.372412 L 217.069573 141.192547 L 216.878865 140.012682 L 216.667296 138.832817 L 216.433329 137.652953 L 216.175645 136.473088 L 215.89319 135.293223 L 215.58522 134.113358 L 215.25134 132.933494 L 214.891542 131.753629 L 214.506231 130.573764 L 214.096249 129.393899 L 213.66289 128.214035 L 213.2079 127.03417 L 212.733475 125.854305 L 212.242242 124.67444 L 211.737234 123.494576 L 211.22185 122.314711 L 210.699808 121.134846 L 210.175088 119.954981 L 209.651868 118.775116 L 209.134451 117.595252 L 208.627189 116.415387 L 208.134402 115.235522 L 207.660299 114.055657 L 207.208899 112.875793 L 206.783951 111.695928 L 206.388866 110.516063 L 206.026651 109.336198 L 205.699855 108.156334 L 205.410522 106.976469 L 205.160161 105.796604 L 204.949723 104.616739 L 204.779598 103.436875 L 204.649612 102.25701 L 204.559057 101.077145 L 204.506717 99.89728 L 204.490909 98.717415 L 204.509544 97.537551 L 204.560184 96.357686 L 204.640112 95.177821 L 204.746409 93.997956 L 204.876029 92.818092 L 205.025878 91.638227 L 205.192892 90.458362 L 205.374106 89.278497 L 205.566728 88.098633 L 205.76819 86.918768 L 205.976209 85.738903 L 206.188821 84.559038 L 206.404413 83.379174 L 206.621741 82.199309 L 206.839938 81.019444 L 207.058505 79.839579 L 207.277296 78.659715 L 207.496491 77.47985 L 207.716563 76.299985 L 207.938226 75.12012 L 208.162394 73.940255 L 208.390122 72.760391 L 208.622551 71.580526 L 208.860852 70.400661 L 209.10617 69.220796 L 209.359575 68.040932 L 209.62201 66.861067 L 209.894257 65.681202 L 210.176897 64.501337 L 210.470293 63.321473 L 210.774564 62.141608 L 211.089583 60.961743 L 211.414977 59.781878 L 211.750131 58.602014 L 212.094208 57.422149 L 212.446166 56.242284 L 212.804788 55.062419 L 213.16871 53.882554 L 213.536452 52.70269 L 213.906456 51.522825 L 214.277118 50.34296 L 214.646821 49.163095 L 215.013963 47.983231 L 215.376992 46.803366 L 215.734425 45.623501 L 216.084872 44.443636 L 226.715128 44.443636 L 226.715128 44.443636 L 227.065575 45.623501 L 227.423008 46.803366 L 227.786037 47.983231 L 228.153179 49.163095 L 228.522882 50.34296 L 228.893544 51.522825 L 229.263548 52.70269 L 229.63129 53.882554 L 229.995212 55.062419 L 230.353834 56.242284 L 230.705792 57.422149 L 231.049869 58.602014 L 231.385023 59.781878 L 231.710417 60.961743 L 232.025436 62.141608 L 232.329707 63.321473 L 232.623103 64.501337 L 232.905743 65.681202 L 233.17799 66.861067 L 233.440425 68.040932 L 233.69383 69.220796 L 233.939148 70.400661 L 234.177449 71.580526 L 234.409878 72.760391 L 234.637606 73.940255 L 234.861774 75.12012 L 235.083437 76.299985 L 235.303509 77.47985 L 235.522704 78.659715 L 235.741495 79.839579 L 235.960062 81.019444 L 236.178259 82.199309 L 236.395587 83.379174 L 236.611179 84.559038 L 236.823791 85.738903 L 237.03181 86.918768 L 237.233272 88.098633 L 237.425894 89.278497 L 237.607108 90.458362 L 237.774122 91.638227 L 237.923971 92.818092 L 238.053591 93.997956 L 238.159888 95.177821 L 238.239816 96.357686 L 238.290456 97.537551 L 238.309091 98.717415 L 238.293283 99.89728 L 238.240943 101.077145 L 238.150388 102.25701 L 238.020402 103.436875 L 237.850277 104.616739 L 237.639839 105.796604 L 237.389478 106.976469 L 237.100145 108.156334 L 236.773349 109.336198 L 236.411134 110.516063 L 236.016049 111.695928 L 235.591101 112.875793 L 235.139701 114.055657 L 234.665598 115.235522 L 234.172811 116.415387 L 233.665549 117.595252 L 233.148132 118.775116 L 232.624912 119.954981 L 232.100192 121.134846 L 231.57815 122.314711 L 231.062766 123.494576 L 230.557758 124.67444 L 230.066525 125.854305 L 229.5921 127.03417 L 229.13711 128.214035 L 228.703751 129.393899 L 228.293769 130.573764 L 227.908458 131.753629 L 227.54866 132.933494 L 227.21478 134.113358 L 226.90681 135.293223 L 226.624355 136.473088 L 226.366671 137.652953 L 226.132704 138.832817 L 225.921135 140.012682 L 225.730427 141.192547 L 225.558868 142.372412 L 225.404623 143.552276 L 225.265773 144.732141 L 225.140366 145.912006 L 225.026448 147.091871 L 224.922109 148.271736 L 224.825508 149.4516 L 224.734904 150.631465 L 224.648679 151.81133 L 224.565359 152.991195 L 224.483627 154.171059 L 224.402332 155.350924 L 224.320499 156.530789 L 224.237329 157.710654 L 224.152197 158.890518 L 224.064651 160.070383 L 223.974402 161.250248 z" clip-path="url(#pbd7c5268ab)" style="fill:#1f77b4;fill-opacity:.3"/></g><g id="PolyCollection_4"><path d="M 292.173291 206.175868 L 285.899436 206.175868 L 285.719992 205.359038 L 285.535398 204.542209 L 285.345848 203.725379 L 285.151598 202.90855 L 284.952983 202.091721 L 284.750417 201.274891 L 284.544397 200.458062 L 284.335506 199.641232 L 284.124406 198.824403 L 283.911833 198.007573 L 283.698588 197.190744 L 283.485523 196.373914 L 283.273522 195.557085 L 283.063488 194.740255 L 282.856312 193.923426 L 282.652856 193.106597 L 282.453929 192.289767 L 282.260256 191.472938 L 282.072462 190.656108 L 281.891044 189.839279 L 281.716354 189.022449 L 281.548579 188.20562 L 281.387733 187.38879 L 281.233642 186.571961 L 281.085944 185.755131 L 280.944087 184.938302 L 280.807337 184.121473 L 280.674784 183.304643 L 280.54536 182.487814 L 280.417857 181.670984 L 280.290949 180.854155 L 280.163215 180.037325 L 280.033173 179.220496 L 279.899304 178.403666 L 279.760086 177.586837 L 279.614026 176.770008 L 279.45969 175.953178 L 279.295736 175.136349 L 279.120944 174.319519 L 278.934247 173.50269 L 278.734755 172.68586 L 278.521781 171.869031 L 278.294869 171.052201 L 278.053809 170.235372 L 277.798656 169.418542 L 277.529748 168.601713 L 277.247714 167.784884 L 276.953482 166.968054 L 276.648285 166.151225 L 276.333658 165.334395 L 276.011436 164.517566 L 275.683742 163.700736 L 275.352974 162.883907 L 275.021784 162.067077 L 274.693052 161.250248 L 274.369859 160.433418 L 274.055449 159.616589 L 273.753186 158.79976 L 273.466514 157.98293 L 273.198904 157.166101 L 272.953803 156.349271 L 272.734579 155.532442 L 272.544465 154.715612 L 272.386502 153.898783 L 272.263486 153.081953 L 272.17791 152.265124 L 272.131921 151.448295 L 272.127273 150.631465 L 272.165286 149.814636 L 272.246822 148.997806 L 272.372254 148.180977 L 272.54146 147.364147 L 272.753815 146.547318 L 273.008199 145.730488 L 273.303011 144.913659 L 273.636196 144.096829 L 274.00528 143.28 L 274.407413 142.463171 L 274.839417 141.646341 L 275.297846 140.829512 L 275.779043 140.012682 L 276.279209 139.195853 L 276.794462 138.379023 L 277.320907 137.562194 L 277.854696 136.745364 L 278.392088 135.928535 L 278.929507 135.111705 L 279.463583 134.294876 L 279.991203 133.478047 L 280.509536 132.661217 L 281.016065 131.844388 L 281.5086 131.027558 L 281.985289 130.210729 L 282.444615 129.393899 L 282.885396 128.57707 L 283.306764 127.76024 L 283.708149 126.943411 L 284.089256 126.126582 L 284.450034 125.309752 L 293.622693 125.309752 L 293.622693 125.309752 L 293.983472 126.126582 L 294.364578 126.943411 L 294.765963 127.76024 L 295.187331 128.57707 L 295.628112 129.393899 L 296.087439 130.210729 L 296.564127 131.027558 L 297.056662 131.844388 L 297.563191 132.661217 L 298.081525 133.478047 L 298.609144 134.294876 L 299.143221 135.111705 L 299.680639 135.928535 L 300.218031 136.745364 L 300.75182 137.562194 L 301.278265 138.379023 L 301.793518 139.195853 L 302.293684 140.012682 L 302.774882 140.829512 L 303.23331 141.646341 L 303.665314 142.463171 L 304.067447 143.28 L 304.436531 144.096829 L 304.769717 144.913659 L 305.064528 145.730488 L 305.318912 146.547318 L 305.531267 147.364147 L 305.700474 148.180977 L 305.825906 148.997806 L 305.907441 149.814636 L 305.945455 150.631465 L 305.940806 151.448295 L 305.894818 152.265124 L 305.809242 153.081953 L 305.686225 153.898783 L 305.528262 154.715612 L 305.338148 155.532442 L 305.118924 156.349271 L 304.873823 157.166101 L 304.606213 157.98293 L 304.319541 158.79976 L 304.017279 159.616589 L 303.702868 160.433418 L 303.379675 161.250248 L 303.050944 162.067077 L 302.719753 162.883907 L 302.388985 163.700736 L 302.061291 164.517566 L 301.739069 165.334395 L 301.424443 166.151225 L 301.119245 166.968054 L 300.825013 167.784884 L 300.542979 168.601713 L 300.274071 169.418542 L 300.018919 170.235372 L 299.777858 171.052201 L 299.550946 171.869031 L 299.337973 172.68586 L 299.13848 173.50269 L 298.951783 174.319519 L 298.776991 175.136349 L 298.613038 175.953178 L 298.458701 176.770008 L 298.312641 177.586837 L 298.173423 178.403666 L 298.039554 179.220496 L 297.909512 180.037325 L 297.781778 180.854155 L 297.65487 181.670984 L 297.527367 182.487814 L 297.397943 183.304643 L 297.265391 184.121473 L 297.12864 184.938302 L 296.986784 185.755131 L 296.839086 186.571961 L 296.684995 187.38879 L 296.524148 188.20562 L 296.356374 189.022449 L 296.181683 189.839279 L 296.000265 190.656108 L 295.812471 191.472938 L 295.618799 192.289767 L 295.419871 193.106597 L 295.216416 193.923426 L 295.009239 194.740255 L 294.799205 195.557085 L 294.587205 196.373914 L 294.374139 197.190744 L 294.160894 198.007573 L 293.948321 198.824403 L 293.737221 199.641232 L 293.52833 200.458062 L 293.322311 201.274891 L 293.119744 202.091721 L 292.921129 202.90855 L 292.72688 203.725379 L 292.537329 204.542209 L 292.352736 205.359038 L 292.173291 206.175868 z" clip-path="url(#pbd7c5268ab)" style="fill:#1f77b4;fill-opacity:.3"/></g><g id="PolyCollection_5"><path d="M 363.860808 242.116364 L 349.484646 242.116364 L 349.11954 241.753328 L 348.746772 241.390293 L 348.367003 241.027258 L 347.981004 240.664222 L 347.589659 240.301187 L 347.19397 239.938152 L 346.795051 239.575116 L 346.394132 239.212081 L 345.992546 238.849046 L 345.591721 238.486011 L 345.19317 238.122975 L 344.798468 237.75994 L 344.409241 237.396905 L 344.027141 237.033869 L 343.653822 236.670834 L 343.29092 236.307799 L 342.940024 235.944763 L 342.602657 235.581728 L 342.28025 235.218693 L 341.974118 234.855657 L 341.685449 234.492622 L 341.415282 234.129587 L 341.164494 233.766551 L 340.933796 233.403516 L 340.723726 233.040481 L 340.53465 232.677446 L 340.366764 232.31441 L 340.220104 231.951375 L 340.094559 231.58834 L 339.989879 231.225304 L 339.905701 230.862269 L 339.841559 230.499234 L 339.796911 230.136198 L 339.771151 229.773163 L 339.763636 229.410128 L 339.773699 229.047092 L 339.800665 228.684057 L 339.843867 228.321022 L 339.902655 227.957986 L 339.976406 227.594951 L 340.064525 227.231916 L 340.166449 226.868881 L 340.281647 226.505845 L 340.409612 226.14281 L 340.549858 225.779775 L 340.701911 225.416739 L 340.865302 225.053704 L 341.039552 224.690669 L 341.224172 224.327633 L 341.418644 223.964598 L 341.622422 223.601563 L 341.834922 223.238527 L 342.055517 222.875492 L 342.283539 222.512457 L 342.518276 222.149421 L 342.758978 221.786386 L 343.004856 221.423351 L 343.255098 221.060316 L 343.508867 220.69728 L 343.765319 220.334245 L 344.023609 219.97121 L 344.282901 219.608174 L 344.542384 219.245139 L 344.801278 218.882104 L 345.058844 218.519068 L 345.314394 218.156033 L 345.567299 217.792998 L 345.816995 217.429962 L 346.062984 217.066927 L 346.304841 216.703892 L 346.542212 216.340856 L 346.774819 215.977821 L 347.002451 215.614786 L 347.22497 215.251751 L 347.442301 214.888715 L 347.654434 214.52568 L 347.861414 214.162645 L 348.063342 213.799609 L 348.260366 213.436574 L 348.45268 213.073539 L 348.640518 212.710503 L 348.824147 212.347468 L 349.00387 211.984433 L 349.180012 211.621397 L 349.352925 211.258362 L 349.522978 210.895327 L 349.690556 210.532292 L 349.856051 210.169256 L 350.019864 209.806221 L 350.182392 209.443186 L 350.344029 209.08015 L 350.505156 208.717115 L 350.666138 208.35408 L 350.827315 207.991044 L 350.988995 207.628009 L 351.151453 207.264974 L 351.314919 206.901938 L 351.479576 206.538903 L 351.645552 206.175868 L 361.699903 206.175868 L 361.699903 206.175868 L 361.865879 206.538903 L 362.030535 206.901938 L 362.194001 207.264974 L 362.356459 207.628009 L 362.51814 207.991044 L 362.679316 208.35408 L 362.840298 208.717115 L 363.001426 209.08015 L 363.163063 209.443186 L 363.325591 209.806221 L 363.489403 210.169256 L 363.654899 210.532292 L 363.822476 210.895327 L 363.992529 211.258362 L 364.165442 211.621397 L 364.341585 211.984433 L 364.521307 212.347468 L 364.704937 212.710503 L 364.892774 213.073539 L 365.085089 213.436574 L 365.282113 213.799609 L 365.484041 214.162645 L 365.691021 214.52568 L 365.903153 214.888715 L 366.120485 215.251751 L 366.343004 215.614786 L 366.570636 215.977821 L 366.803242 216.340856 L 367.040614 216.703892 L 367.28247 217.066927 L 367.528459 217.429962 L 367.778155 217.792998 L 368.031061 218.156033 L 368.286611 218.519068 L 368.544177 218.882104 L 368.80307 219.245139 L 369.062553 219.608174 L 369.321846 219.97121 L 369.580135 220.334245 L 369.836587 220.69728 L 370.090357 221.060316 L 370.340598 221.423351 L 370.586477 221.786386 L 370.827178 222.149421 L 371.061916 222.512457 L 371.289937 222.875492 L 371.510533 223.238527 L 371.723032 223.601563 L 371.92681 223.964598 L 372.121283 224.327633 L 372.305902 224.690669 L 372.480153 225.053704 L 372.643543 225.416739 L 372.795597 225.779775 L 372.935843 226.14281 L 373.063808 226.505845 L 373.179005 226.868881 L 373.28093 227.231916 L 373.369049 227.594951 L 373.4428 227.957986 L 373.501588 228.321022 L 373.54479 228.684057 L 373.571756 229.047092 L 373.581818 229.410128 L 373.574303 229.773163 L 373.548544 230.136198 L 373.503895 230.499234 L 373.439754 230.862269 L 373.355575 231.225304 L 373.250896 231.58834 L 373.12535 231.951375 L 372.978691 232.31441 L 372.810805 232.677446 L 372.621729 233.040481 L 372.411659 233.403516 L 372.180961 233.766551 L 371.930173 234.129587 L 371.660005 234.492622 L 371.371336 234.855657 L 371.065205 235.218693 L 370.742797 235.581728 L 370.40543 235.944763 L 370.054534 236.307799 L 369.691632 236.670834 L 369.318313 237.033869 L 368.936213 237.396905 L 368.546987 237.75994 L 368.152285 238.122975 L 367.753733 238.486011 L 367.352909 238.849046 L 366.951322 239.212081 L 366.550403 239.575116 L 366.151485 239.938152 L 365.755795 240.301187 L 365.364451 240.664222 L 364.978452 241.027258 L 364.598683 241.390293 L 364.225915 241.753328 L 363.860808 242.116364 z" clip-path="url(#pbd7c5268ab)" style="fill:#1f77b4;fill-opacity:.3"/></g><g id="matplotlib.axis_1"><g id="xtick_1"><g id="line2d_1"><defs><path id="mb36f0cc0f0" d="M 0 0 L 0 3.5" style="stroke:#000;stroke-width:.8"/></defs><g><use style="stroke:#000;stroke-width:.8" x="86.127" y="252" xlink:href="#mb36f0cc0f0"/></g></g><g id="text_1"><defs><path id="DejaVuSans-49" d="M 12.40625 8.296875 L 28.515625 8.296875 L 28.515625 63.921875 L 10.984375 60.40625 L 10.984375 69.390625 L 28.421875 72.90625 L 38.28125 72.90625 L 38.28125 8.296875 L 54.390625 8.296875 L 54.390625 0 L 12.40625 0 z"/></defs><g transform="translate(82.946023 266.598437)scale(0.1 -0.1)"><use xlink:href="#DejaVuSans-49"/></g></g></g><g id="xtick_2"><g id="line2d_2"><g><use style="stroke:#000;stroke-width:.8" x="153.764" y="252" xlink:href="#mb36f0cc0f0"/></g></g><g id="text_2"><defs><path id="DejaVuSans-50" d="M 19.1875 8.296875 L 53.609375 8.296875 L 53.609375 0 L 7.328125 0 L 7.328125 8.296875 Q 12.9375 14.109375 22.625 23.890625 Q 32.328125 33.6875 34.8125 36.53125 Q 39.546875 41.84375 41.421875 45.53125 Q 43.3125 49.21875 43.3125 52.78125 Q 43.3125 58.59375 39.234375 62.25 Q 35.15625 65.921875 28.609375 65.921875 Q 23.96875 65.921875 18.8125 64.3125 Q 13.671875 62.703125 7.8125 59.421875 L 7.8125 69.390625 Q 13.765625 71.78125 18.9375 73 Q 24.125 74.21875 28.421875 74.21875 Q 39.75 74.21875 46.484375 68.546875 Q 53.21875 62.890625 53.21875 53.421875 Q 53.21875 48.921875 51.53125 44.890625 Q 49.859375 40.875 45.40625 35.40625 Q 44.1875 33.984375 37.640625 27.21875 Q 31.109375 20.453125 19.1875 8.296875 z"/></defs><g transform="translate(150.582386 266.598437)scale(0.1 -0.1)"><use xlink:href="#DejaVuSans-50"/></g></g></g><g id="xtick_3"><g id="line2d_3"><g><use style="stroke:#000;stroke-width:.8" x="221.4" y="252" xlink:href="#mb36f0cc0f0"/></g></g><g id="text_3"><defs><path id="DejaVuSans-51" d="M 40.578125 39.3125 Q 47.65625 37.796875 51.625 33 Q 55.609375 28.21875 55.609375 21.1875 Q 55.609375 10.40625 48.1875 4.484375 Q 40.765625 -1.421875 27.09375 -1.421875 Q 22.515625 -1.421875 17.65625 -0.515625 Q 12.796875 0.390625 7.625 2.203125 L 7.625 11.71875 Q 11.71875 9.328125 16.59375 8.109375 Q 21.484375 6.890625 26.8125 6.890625 Q 36.078125 6.890625 40.9375 10.546875 Q 45.796875 14.203125 45.796875 21.1875 Q 45.796875 27.640625 41.28125 31.265625 Q 36.765625 34.90625 28.71875 34.90625 L 20.21875 34.90625 L 20.21875 43.015625 L 29.109375 43.015625 Q 36.375 43.015625 40.234375 45.921875 Q 44.09375 48.828125 44.09375 54.296875 Q 44.09375 59.90625 40.109375 62.90625 Q 36.140625 65.921875 28.71875 65.921875 Q 24.65625 65.921875 20.015625 65.03125 Q 15.375 64.15625 9.8125 62.3125 L 9.8125 71.09375 Q 15.4375 72.65625 20.34375 73.4375 Q 25.25 74.21875 29.59375 74.21875 Q 40.828125 74.21875 47.359375 69.109375 Q 53.90625 64.015625 53.90625 55.328125 Q 53.90625 49.265625 50.4375 45.09375 Q 46.96875 40.921875 40.578125 39.3125 z"/></defs><g transform="translate(218.21875 266.598437)scale(0.1 -0.1)"><use xlink:href="#DejaVuSans-51"/></g></g></g><g id="xtick_4"><g id="line2d_4"><g><use style="stroke:#000;stroke-width:.8" x="289.036" y="252" xlink:href="#mb36f0cc0f0"/></g></g><g id="text_4"><defs><path id="DejaVuSans-52" d="M 37.796875 64.3125 L 12.890625 25.390625 L 37.796875 25.390625 z M 35.203125 72.90625 L 47.609375 72.90625 L 47.609375 25.390625 L 58.015625 25.390625 L 58.015625 17.1875 L 47.609375 17.1875 L 47.609375 0 L 37.796875 0 L 37.796875 17.1875 L 4.890625 17.1875 L 4.890625 26.703125 z"/></defs><g transform="translate(285.855114 266.598437)scale(0.1 -0.1)"><use xlink:href="#DejaVuSans-52"/></g></g></g><g id="xtick_5"><g id="line2d_5"><g><use style="stroke:#000;stroke-width:.8" x="356.673" y="252" xlink:href="#mb36f0cc0f0"/></g></g><g id="text_5"><defs><path id="DejaVuSans-53" d="M 10.796875 72.90625 L 49.515625 72.90625 L 49.515625 64.59375 L 19.828125 64.59375 L 19.828125 46.734375 Q 21.96875 47.46875 24.109375 47.828125 Q 26.265625 48.1875 28.421875 48.1875 Q 40.625 48.1875 47.75 41.5 Q 54.890625 34.8125 54.890625 23.390625 Q 54.890625 11.625 47.5625 5.09375 Q 40.234375 -1.421875 26.90625 -1.421875 Q 22.3125 -1.421875 17.546875 -0.640625 Q 12.796875 0.140625 7.71875 1.703125 L 7.71875 11.625 Q 12.109375 9.234375 16.796875 8.0625 Q 21.484375 6.890625 26.703125 6.890625 Q 35.15625 6.890625 40.078125 11.328125 Q 45.015625 15.765625 45.015625 23.390625 Q 45.015625 31 40.078125 35.4375 Q 35.15625 39.890625 26.703125 39.890625 Q 22.75 39.890625 18.8125 39.015625 Q 14.890625 38.140625 10.796875 36.28125 z"/></defs><g transform="translate(353.491477 266.598437)scale(0.1 -0.1)"><use xlink:href="#DejaVuSans-53"/></g></g></g></g><g id="matplotlib.axis_2"><g id="ytick_1"><g id="line2d_6"><defs><path id="m71fb2841b4" d="M 0 0 L -3.5 0" style="stroke:#000;stroke-width:.8"/></defs><g><use style="stroke:#000;stroke-width:.8" x="54" y="251.101" xlink:href="#m71fb2841b4"/></g></g><g id="text_6"><g transform="translate(40.6375 254.900706)scale(0.1 -0.1)"><use xlink:href="#DejaVuSans-53"/></g></g></g><g id="ytick_2"><g id="line2d_7"><g><use style="stroke:#000;stroke-width:.8" x="54" y="206.176" xlink:href="#m71fb2841b4"/></g></g><g id="text_7"><defs><path id="DejaVuSans-48" d="M 31.78125 66.40625 Q 24.171875 66.40625 20.328125 58.90625 Q 16.5 51.421875 16.5 36.375 Q 16.5 21.390625 20.328125 13.890625 Q 24.171875 6.390625 31.78125 6.390625 Q 39.453125 6.390625 43.28125 13.890625 Q 47.125 21.390625 47.125 36.375 Q 47.125 51.421875 43.28125 58.90625 Q 39.453125 66.40625 31.78125 66.40625 z M 31.78125 74.21875 Q 44.046875 74.21875 50.515625 64.515625 Q 56.984375 54.828125 56.984375 36.375 Q 56.984375 17.96875 50.515625 8.265625 Q 44.046875 -1.421875 31.78125 -1.421875 Q 19.53125 -1.421875 13.0625 8.265625 Q 6.59375 17.96875 6.59375 36.375 Q 6.59375 54.828125 13.0625 64.515625 Q 19.53125 74.21875 31.78125 74.21875 z"/></defs><g transform="translate(34.275 209.975087)scale(0.1 -0.1)"><use xlink:href="#DejaVuSans-49"/><use x="63.623" xlink:href="#DejaVuSans-48"/></g></g></g><g id="ytick_3"><g id="line2d_8"><g><use style="stroke:#000;stroke-width:.8" x="54" y="161.25" xlink:href="#m71fb2841b4"/></g></g><g id="text_8"><g transform="translate(34.275 165.049467)scale(0.1 -0.1)"><use xlink:href="#DejaVuSans-49"/><use x="63.623" xlink:href="#DejaVuSans-53"/></g></g></g><g id="ytick_4"><g id="line2d_9"><g><use style="stroke:#000;stroke-width:.8" x="54" y="116.325" xlink:href="#m71fb2841b4"/></g></g><g id="text_9"><g transform="translate(34.275 120.123847)scale(0.1 -0.1)"><use xlink:href="#DejaVuSans-50"/><use x="63.623" xlink:href="#DejaVuSans-48"/></g></g></g><g id="ytick_5"><g id="line2d_10"><g><use style="stroke:#000;stroke-width:.8" x="54" y="71.399" xlink:href="#m71fb2841b4"/></g></g><g id="text_10"><g transform="translate(34.275 75.198227)scale(0.1 -0.1)"><use xlink:href="#DejaVuSans-50"/><use x="63.623" xlink:href="#DejaVuSans-53"/></g></g></g><g id="text_11"><defs><path id="DejaVuSans-68" d="M 19.671875 64.796875 L 19.671875 8.109375 L 31.59375 8.109375 Q 46.6875 8.109375 53.6875 14.9375 Q 60.6875 21.78125 60.6875 36.53125 Q 60.6875 51.171875 53.6875 57.984375 Q 46.6875 64.796875 31.59375 64.796875 z M 9.8125 72.90625 L 30.078125 72.90625 Q 51.265625 72.90625 61.171875 64.09375 Q 71.09375 55.28125 71.09375 36.53125 Q 71.09375 17.671875 61.125 8.828125 Q 51.171875 0 30.078125 0 L 9.8125 0 z"/><path id="DejaVuSans-105" d="M 9.421875 54.6875 L 18.40625 54.6875 L 18.40625 0 L 9.421875 0 z M 9.421875 75.984375 L 18.40625 75.984375 L 18.40625 64.59375 L 9.421875 64.59375 z"/><path id="DejaVuSans-97" d="M 34.28125 27.484375 Q 23.390625 27.484375 19.1875 25 Q 14.984375 22.515625 14.984375 16.5 Q 14.984375 11.71875 18.140625 8.90625 Q 21.296875 6.109375 26.703125 6.109375 Q 34.1875 6.109375 38.703125 11.40625 Q 43.21875 16.703125 43.21875 25.484375 L 43.21875 27.484375 z M 52.203125 31.203125 L 52.203125 0 L 43.21875 0 L 43.21875 8.296875 Q 40.140625 3.328125 35.546875 0.953125 Q 30.953125 -1.421875 24.3125 -1.421875 Q 15.921875 -1.421875 10.953125 3.296875 Q 6 8.015625 6 15.921875 Q 6 25.140625 12.171875 29.828125 Q 18.359375 34.515625 30.609375 34.515625 L 43.21875 34.515625 L 43.21875 35.40625 Q 43.21875 41.609375 39.140625 45 Q 35.0625 48.390625 27.6875 48.390625 Q 23 48.390625 18.546875 47.265625 Q 14.109375 46.140625 10.015625 43.890625 L 10.015625 52.203125 Q 14.9375 54.109375 19.578125 55.046875 Q 24.21875 56 28.609375 56 Q 40.484375 56 46.34375 49.84375 Q 52.203125 43.703125 52.203125 31.203125 z"/><path id="DejaVuSans-109" d="M 52 44.1875 Q 55.375 50.25 60.0625 53.125 Q 64.75 56 71.09375 56 Q 79.640625 56 84.28125 50.015625 Q 88.921875 44.046875 88.921875 33.015625 L 88.921875 0 L 79.890625 0 L 79.890625 32.71875 Q 79.890625 40.578125 77.09375 44.375 Q 74.3125 48.1875 68.609375 48.1875 Q 61.625 48.1875 57.5625 43.546875 Q 53.515625 38.921875 53.515625 30.90625 L 53.515625 0 L 44.484375 0 L 44.484375 32.71875 Q 44.484375 40.625 41.703125 44.40625 Q 38.921875 48.1875 33.109375 48.1875 Q 26.21875 48.1875 22.15625 43.53125 Q 18.109375 38.875 18.109375 30.90625 L 18.109375 0 L 9.078125 0 L 9.078125 54.6875 L 18.109375 54.6875 L 18.109375 46.1875 Q 21.1875 51.21875 25.484375 53.609375 Q 29.78125 56 35.6875 56 Q 41.65625 56 45.828125 52.96875 Q 50 49.953125 52 44.1875 z"/><path id="DejaVuSans-101" d="M 56.203125 29.59375 L 56.203125 25.203125 L 14.890625 25.203125 Q 15.484375 15.921875 20.484375 11.0625 Q 25.484375 6.203125 34.421875 6.203125 Q 39.59375 6.203125 44.453125 7.46875 Q 49.3125 8.734375 54.109375 11.28125 L 54.109375 2.78125 Q 49.265625 0.734375 44.1875 -0.34375 Q 39.109375 -1.421875 33.890625 -1.421875 Q 20.796875 -1.421875 13.15625 6.1875 Q 5.515625 13.8125 5.515625 26.8125 Q 5.515625 40.234375 12.765625 48.109375 Q 20.015625 56 32.328125 56 Q 43.359375 56 49.78125 48.890625 Q 56.203125 41.796875 56.203125 29.59375 z M 47.21875 32.234375 Q 47.125 39.59375 43.09375 43.984375 Q 39.0625 48.390625 32.421875 48.390625 Q 24.90625 48.390625 20.390625 44.140625 Q 15.875 39.890625 15.1875 32.171875 z"/><path id="DejaVuSans-116" d="M 18.3125 70.21875 L 18.3125 54.6875 L 36.8125 54.6875 L 36.8125 47.703125 L 18.3125 47.703125 L 18.3125 18.015625 Q 18.3125 11.328125 20.140625 9.421875 Q 21.96875 7.515625 27.59375 7.515625 L 36.8125 7.515625 L 36.8125 0 L 27.59375 0 Q 17.1875 0 13.234375 3.875 Q 9.28125 7.765625 9.28125 18.015625 L 9.28125 47.703125 L 2.6875 47.703125 L 2.6875 54.6875 L 9.28125 54.6875 L 9.28125 70.21875 z"/><path id="DejaVuSans-114" d="M 41.109375 46.296875 Q 39.59375 47.171875 37.8125 47.578125 Q 36.03125 48 33.890625 48 Q 26.265625 48 22.1875 43.046875 Q 18.109375 38.09375 18.109375 28.8125 L 18.109375 0 L 9.078125 0 L 9.078125 54.6875 L 18.109375 54.6875 L 18.109375 46.1875 Q 20.953125 51.171875 25.484375 53.578125 Q 30.03125 56 36.53125 56 Q 37.453125 56 38.578125 55.875 Q 39.703125 55.765625 41.0625 55.515625 z"/><path id="DejaVuSans-32"/><path id="DejaVuSans-40" d="M 31 75.875 Q 24.46875 64.65625 21.28125 53.65625 Q 18.109375 42.671875 18.109375 31.390625 Q 18.109375 20.125 21.3125 9.0625 Q 24.515625 -2 31 -13.1875 L 23.1875 -13.1875 Q 15.875 -1.703125 12.234375 9.375 Q 8.59375 20.453125 8.59375 31.390625 Q 8.59375 42.28125 12.203125 53.3125 Q 15.828125 64.359375 23.1875 75.875 z"/><path id="DejaVuSans-Oblique-956" d="M -1.3125 -20.796875 L 13.375 54.6875 L 22.40625 54.6875 L 15.765625 20.65625 Q 15.578125 19.625 15.421875 18.359375 Q 15.28125 17.09375 15.28125 15.828125 Q 15.28125 11.28125 18.140625 8.828125 Q 21 6.390625 26.3125 6.390625 Q 33.546875 6.390625 37.984375 10.484375 Q 42.4375 14.59375 44 22.796875 L 50.203125 54.6875 L 59.1875 54.6875 L 51.03125 12.640625 Q 50.828125 11.71875 50.75 11.03125 Q 50.6875 10.359375 50.6875 9.8125 Q 50.6875 8.296875 51.296875 7.59375 Q 51.90625 6.890625 53.21875 6.890625 Q 53.71875 6.890625 54.5625 7.125 Q 55.421875 7.375 56.984375 8.015625 L 55.609375 0.78125 Q 53.46875 -0.296875 51.515625 -0.859375 Q 49.5625 -1.421875 47.703125 -1.421875 Q 44.484375 -1.421875 42.65625 0.625 Q 40.828125 2.6875 40.828125 6.296875 Q 38.09375 2.390625 34.296875 0.484375 Q 30.515625 -1.421875 25.390625 -1.421875 Q 20.84375 -1.421875 17.453125 0.671875 Q 14.0625 2.78125 12.984375 6.203125 L 7.71875 -20.796875 z"/><path id="DejaVuSans-Oblique-109" d="M 89.796875 33.015625 L 83.40625 0 L 74.421875 0 L 80.71875 32.71875 Q 81.109375 34.8125 81.296875 36.328125 Q 81.5 37.84375 81.5 38.921875 Q 81.5 43.3125 79.046875 45.75 Q 76.609375 48.1875 72.21875 48.1875 Q 65.671875 48.1875 60.546875 43.28125 Q 55.421875 38.375 53.90625 30.515625 L 47.90625 0 L 38.921875 0 L 45.3125 32.71875 Q 45.703125 34.515625 45.890625 36.046875 Q 46.09375 37.59375 46.09375 38.8125 Q 46.09375 43.265625 43.65625 45.71875 Q 41.21875 48.1875 36.921875 48.1875 Q 30.28125 48.1875 25.140625 43.28125 Q 20.015625 38.375 18.5 30.515625 L 12.5 0 L 3.515625 0 L 14.203125 54.6875 L 23.1875 54.6875 L 21.484375 46.1875 Q 25.140625 50.984375 30.046875 53.484375 Q 34.96875 56 40.578125 56 Q 46.53125 56 50.359375 52.875 Q 54.203125 49.75 54.984375 44.1875 Q 59.078125 49.953125 64.46875 52.96875 Q 69.875 56 75.875 56 Q 82.90625 56 86.734375 51.953125 Q 90.578125 47.90625 90.578125 40.484375 Q 90.578125 38.875 90.375 36.9375 Q 90.1875 35.015625 89.796875 33.015625 z"/><path id="DejaVuSans-41" d="M 8.015625 75.875 L 15.828125 75.875 Q 23.140625 64.359375 26.78125 53.3125 Q 30.421875 42.28125 30.421875 31.390625 Q 30.421875 20.453125 26.78125 9.375 Q 23.140625 -1.703125 15.828125 -13.1875 L 8.015625 -13.1875 Q 14.5 -2 17.703125 9.0625 Q 20.90625 20.125 20.90625 31.390625 Q 20.90625 42.671875 17.703125 53.65625 Q 14.5 64.65625 8.015625 75.875 z"/></defs><g transform="translate(28.175 180.18)rotate(-90)scale(0.1 -0.1)"><use transform="translate(0 0.015625)" xlink:href="#DejaVuSans-68"/><use transform="translate(77.001953 0.015625)" xlink:href="#DejaVuSans-105"/><use transform="translate(104.785156 0.015625)" xlink:href="#DejaVuSans-97"/><use transform="translate(166.064453 0.015625)" xlink:href="#DejaVuSans-109"/><use transform="translate(263.476562 0.015625)" xlink:href="#DejaVuSans-101"/><use transform="translate(325 0.015625)" xlink:href="#DejaVuSans-116"/><use transform="translate(364.208984 0.015625)" xlink:href="#DejaVuSans-101"/><use transform="translate(425.732422 0.015625)" xlink:href="#DejaVuSans-114"/><use transform="translate(466.845703 0.015625)" xlink:href="#DejaVuSans-32"/><use transform="translate(498.632812 0.015625)" xlink:href="#DejaVuSans-40"/><use transform="translate(537.646484 0.015625)" xlink:href="#DejaVuSans-Oblique-956"/><use transform="translate(601.269531 0.015625)" xlink:href="#DejaVuSans-Oblique-109"/><use transform="translate(698.681641 0.015625)" xlink:href="#DejaVuSans-41"/></g></g></g><g id="LineCollection_1"><path d="M 77.672727 147.323306 L 94.581818 147.323306" clip-path="url(#pbd7c5268ab)" style="fill:none;stroke:green;stroke-width:1.5"/><path d="M 145.309091 144.178512 L 162.218182 144.178512" clip-path="url(#pbd7c5268ab)" style="fill:none;stroke:green;stroke-width:1.5"/><path d="M 212.945455 94.760331 L 229.854545 94.760331" clip-path="url(#pbd7c5268ab)" style="fill:none;stroke:green;stroke-width:1.5"/><path d="M 280.581818 160.800992 L 297.490909 160.800992" clip-path="url(#pbd7c5268ab)" style="fill:none;stroke:green;stroke-width:1.5"/><path d="M 348.218182 225.94314 L 365.127273 225.94314" clip-path="url(#pbd7c5268ab)" style="fill:none;stroke:green;stroke-width:1.5"/></g><g id="LineCollection_2"><path d="M 77.672727 116.324628 L 94.581818 116.324628" clip-path="url(#pbd7c5268ab)" style="fill:none;stroke:#1f77b4;stroke-width:1.5"/><path d="M 145.309091 116.324628 L 162.218182 116.324628" clip-path="url(#pbd7c5268ab)" style="fill:none;stroke:#1f77b4;stroke-width:1.5"/><path d="M 212.945455 44.443636 L 229.854545 44.443636" clip-path="url(#pbd7c5268ab)" style="fill:none;stroke:#1f77b4;stroke-width:1.5"/><path d="M 280.581818 125.309752 L 297.490909 125.309752" clip-path="url(#pbd7c5268ab)" style="fill:none;stroke:#1f77b4;stroke-width:1.5"/><path d="M 348.218182 206.175868 L 365.127273 206.175868" clip-path="url(#pbd7c5268ab)" style="fill:none;stroke:#1f77b4;stroke-width:1.5"/></g><g id="LineCollection_3"><path d="M 77.672727 206.175868 L 94.581818 206.175868" clip-path="url(#pbd7c5268ab)" style="fill:none;stroke:#1f77b4;stroke-width:1.5"/><path d="M 145.309091 206.175868 L 162.218182 206.175868" clip-path="url(#pbd7c5268ab)" style="fill:none;stroke:#1f77b4;stroke-width:1.5"/><path d="M 212.945455 161.250248 L 229.854545 161.250248" clip-path="url(#pbd7c5268ab)" style="fill:none;stroke:#1f77b4;stroke-width:1.5"/><path d="M 280.581818 206.175868 L 297.490909 206.175868" clip-path="url(#pbd7c5268ab)" style="fill:none;stroke:#1f77b4;stroke-width:1.5"/><path d="M 348.218182 242.116364 L 365.127273 242.116364" clip-path="url(#pbd7c5268ab)" style="fill:none;stroke:#1f77b4;stroke-width:1.5"/></g><g id="LineCollection_4"><path d="M 86.127273 206.175868 L 86.127273 116.324628" clip-path="url(#pbd7c5268ab)" style="fill:none;stroke:#1f77b4;stroke-width:1.5"/><path d="M 153.763636 206.175868 L 153.763636 116.324628" clip-path="url(#pbd7c5268ab)" style="fill:none;stroke:#1f77b4;stroke-width:1.5"/><path d="M 221.4 161.250248 L 221.4 44.443636" clip-path="url(#pbd7c5268ab)" style="fill:none;stroke:#1f77b4;stroke-width:1.5"/><path d="M 289.036364 206.175868 L 289.036364 125.309752" clip-path="url(#pbd7c5268ab)" style="fill:none;stroke:#1f77b4;stroke-width:1.5"/><path d="M 356.672727 242.116364 L 356.672727 206.175868" clip-path="url(#pbd7c5268ab)" style="fill:none;stroke:#1f77b4;stroke-width:1.5"/></g><g id="LineCollection_5"><path d="M 77.672727 147.772562 L 94.581818 147.772562" clip-path="url(#pbd7c5268ab)" style="fill:none;stroke:red;stroke-width:1.5"/><path d="M 145.309091 138.787438 L 162.218182 138.787438" clip-path="url(#pbd7c5268ab)" style="fill:none;stroke:red;stroke-width:1.5"/><path d="M 212.945455 98.35438 L 229.854545 98.35438" clip-path="url(#pbd7c5268ab)" style="fill:none;stroke:red;stroke-width:1.5"/><path d="M 280.581818 152.265124 L 297.490909 152.265124" clip-path="url(#pbd7c5268ab)" style="fill:none;stroke:red;stroke-width:1.5"/><path d="M 348.218182 224.146116 L 365.127273 224.146116" clip-path="url(#pbd7c5268ab)" style="fill:none;stroke:red;stroke-width:1.5"/></g><g id="patch_3"><path d="M 54 252 L 54 34.56" style="fill:none;stroke:#000;stroke-linecap:square;stroke-linejoin:miter;stroke-width:.8"/></g><g id="patch_4"><path d="M 388.8 252 L 388.8 34.56" style="fill:none;stroke:#000;stroke-linecap:square;stroke-linejoin:miter;stroke-width:.8"/></g><g id="patch_5"><path d="M 54 252 L 388.8 252" style="fill:none;stroke:#000;stroke-linecap:square;stroke-linejoin:miter;stroke-width:.8"/></g><g id="patch_6"><path d="M 54 34.56 L 388.8 34.56" style="fill:none;stroke:#000;stroke-linecap:square;stroke-linejoin:miter;stroke-width:.8"/></g></g></g><defs><clipPath id="pbd7c5268ab"><rect width="334.8" height="217.44" x="54" y="34.56"/></clipPath></defs></svg>